{
.appVersion = "1075";
DisplayStrings = (
"As4\U00A3"
);
classes = (
{
automatic = 1;

glyphs = (
{
glyphname = A;
layers = (
{
anchors = (
{
name = bottom;
position = "{282, 0}";
},
{
name = ogonek;
position = "{555, 0}";
},
{
name = top;
position = "{322, 702}";
}
);
layerId = UUID0;
paths = (
{
closed = 1;
nodes = (
"319 719 LINE",
"93 158 LINE SMOOTH",
"63 83 OFFCURVE",
"37 34 OFFCURVE",
"-13 33 CURVE",
"-14 0 LINE",
"169 0 LINE",
"171 44 LINE",
"96 40 LINE",
"108 62 OFFCURVE",
"115 77 OFFCURVE",
"127 109 CURVE",
"167 216 LINE",
"423 222 LINE",
"452 128 LINE SMOOTH",
"463 91 OFFCURVE",
"475 35 OFFCURVE",
"400 33 CURVE",
"399 0 LINE",
"616 0 LINE",
"618 44 LINE",
"553 40 LINE",
"556 70 OFFCURVE",
"542 122 OFFCURVE",
"532 150 CURVE SMOOTH",
"341 719 LINE"
);
},
{
closed = 1;
nodes = (
"321 539 OFFCURVE",
"334 499 OFFCURVE",
"347 459 CURVE SMOOTH",
"412 259 LINE",
"183 259 LINE",
"263 468 LINE",
"278 505 OFFCURVE",
"292 543 OFFCURVE",
"307 580 CURVE"
);
}
);
width = 631;
},
{
anchors = (
{
name = bottom;
position = "{300, 0}";
},
{
name = ogonek;
position = "{600, 0}";
},
{
name = top;
position = "{346, 700}";
}
);
layerId = "6B2A2AD0-3CEC-4B3D-96BE-6A11A3496094";
paths = (
{
closed = 1;
nodes = (
"317 718 LINE",
"94 183 LINE SMOOTH",
"68 123 OFFCURVE",
"47 69 OFFCURVE",
"-8 69 CURVE",
"-12 0 LINE",
"202 0 LINE",
"207 80 LINE",
"133 77 LINE",
"146 100 OFFCURVE",
"162 140 OFFCURVE",
"169 158 CURVE",
"188 205 LINE",
"407 209 LINE",
"424 154 LINE SMOOTH",
"440 104 OFFCURVE",
"438 66 OFFCURVE",
"382 66 CURVE",
"378 0 LINE",
"646 0 LINE",
"649 77 LINE",
"592 74 LINE",
"590 104 OFFCURVE",
"575 153 OFFCURVE",
"569 173 CURVE SMOOTH",
"384 718 LINE"
);
},
{
closed = 1;
nodes = (
"319 505 OFFCURVE",
"332 453 OFFCURVE",
"346 405 CURVE SMOOTH",
"385 280 LINE",
"217 280 LINE",
"268 410 LINE",
"293 472 OFFCURVE",
"309 519 OFFCURVE",
"315 542 CURVE"
);
}
);
width = 667;
}
);
leftKerningGroup = A;
rightKerningGroup = A;
unicode = 0041;
},
{
glyphname = AE;
layers = (
{
layerId = UUID0;
paths = (
{
closed = 1;
nodes = (
"162 0 LINE",
"164 44 LINE",
"87 40 LINE",
"87 41 LINE",
"114 79 OFFCURVE",
"142 116 OFFCURVE",
"169 154 CURVE",
"214 216 LINE",
"295 218 OFFCURVE",
"377 219 OFFCURVE",
"458 221 CURVE",
"453 130 LINE SMOOTH",
"450 69 OFFCURVE",
"439 37 OFFCURVE",
"379 36 CURVE",
"377 0 LINE",
"889 0 LINE",
"905 195 LINE",
"871 195 LINE",
"865 77 OFFCURVE",
"808 36 OFFCURVE",
"721 37 CURVE SMOOTH",
"528 40 LINE",
"531 57 OFFCURVE",
"533 82 OFFCURVE",
"535 118 CURVE SMOOTH",
"547 345 LINE",
"571 346 OFFCURVE",
"596 347 OFFCURVE",
"621 347 CURVE SMOOTH",
"705 347 OFFCURVE",
"739 347 OFFCURVE",
"735 259 CURVE",
"768 259 LINE",
"779 477 LINE",
"746 477 LINE",
"742 389 OFFCURVE",
"707 383 OFFCURVE",
"623 383 CURVE SMOOTH",
"549 383 LINE",
"558 544 LINE SMOOTH",
"563 625 OFFCURVE",
"565 661 OFFCURVE",
"640 663 CURVE SMOOTH",
"726 665 LINE SMOOTH",
"801 667 OFFCURVE",
"860 643 OFFCURVE",
"854 525 CURVE",
"887 525 LINE",
"891 700 LINE",
"395 700 LINE",
"393 656 LINE",
"423 657 OFFCURVE",
"453 659 OFFCURVE",
"483 660 CURVE",
"94 125 LINE SMOOTH",
"65 85 OFFCURVE",
"30 33 OFFCURVE",
"-22 33 CURVE",
"-24 0 LINE"
);
},
{
closed = 1;
nodes = (
"381 450 LINE",
"412 494 OFFCURVE",
"444 538 OFFCURVE",
"475 582 CURVE",
"476 582 LINE",
"460 259 LINE",
"245 259 LINE"
);
}
);
width = 955;
},
{
layerId = "6B2A2AD0-3CEC-4B3D-96BE-6A11A3496094";
paths = (
{
closed = 1;
nodes = (
"200 0 LINE",
"204 77 LINE",
"124 74 LINE",
"124 75 LINE",
"146 91 OFFCURVE",
"168 120 OFFCURVE",
"191 151 CURVE SMOOTH",
"229 202 LINE",
"292 203 OFFCURVE",
"363 206 OFFCURVE",
"424 207 CURVE",
"422 153 LINE SMOOTH",
"418 72 OFFCURVE",
"391 68 OFFCURVE",
"346 66 CURVE",
"343 0 LINE",
"868 0 LINE",
"886 220 LINE",
"820 220 LINE",
"814 112 OFFCURVE",
"750 76 OFFCURVE",
"690 76 CURVE SMOOTH",
"556 76 LINE",
"560 93 OFFCURVE",
"563 128 OFFCURVE",
"565 164 CURVE SMOOTH",
"573 328 LINE",
"582 328 OFFCURVE",
"591 329 OFFCURVE",
"600 329 CURVE SMOOTH",
"654 330 OFFCURVE",
"698 325 OFFCURVE",
"693 241 CURVE",
"759 241 LINE",
"772 484 LINE",
"695 484 LINE",
"695 459 OFFCURVE",
"694 425 OFFCURVE",
"695 397 CURVE",
"577 397 LINE",
"585 547 LINE SMOOTH",
"589 625 OFFCURVE",
"614 633 OFFCURVE",
"656 634 CURVE SMOOTH",
"692 635 LINE SMOOTH",
"747 637 OFFCURVE",
"813 615 OFFCURVE",
"807 506 CURVE",
"873 506 LINE",
"877 700 LINE",
"379 700 LINE",
"375 623 LINE",
"390 624 OFFCURVE",
"429 625 OFFCURVE",
"451 625 CURVE",
"104 171 LINE SMOOTH",
"68 124 OFFCURVE",
"26 66 OFFCURVE",
"-21 66 CURVE",
"-24 0 LINE"
);
},
{
closed = 1;
nodes = (
"368 392 LINE SMOOTH",
"411 449 OFFCURVE",
"419 460 OFFCURVE",
"444 501 CURVE",
"445 501 LINE",
"428 276 LINE",
"281 276 LINE"
);
}
);
width = 931;
}
);
leftKerningGroup = A;
rightKerningGroup = E;
unicode = 00C6;
},
{
glyphname = B;
layers = (
{
layerId = UUID0;
paths = (
{
closed = 1;
nodes = (
"220 702 OFFCURVE",
"150 700 OFFCURVE",
"77 700 CURVE",
"74 656 LINE",
"98 657 OFFCURVE",
"123 659 OFFCURVE",
"147 660 CURVE",
"144 643 OFFCURVE",
"141 617 OFFCURVE",
"140 581 CURVE SMOOTH",
"118 161 LINE",
"114 86 OFFCURVE",
"117 35 OFFCURVE",
"42 33 CURVE",
"40 0 LINE",
"329 0 LINE SMOOTH",
"464 0 OFFCURVE",
"566 73 OFFCURVE",
"572 196 CURVE SMOOTH",
"578 299 OFFCURVE",
"510 374 OFFCURVE",
"363 374 CURVE",
"363 376 LINE",
"474 396 OFFCURVE",
"529 466 OFFCURVE",
"533 531 CURVE SMOOTH",
"541 649 OFFCURVE",
"455 702 OFFCURVE",
"300 702 CURVE SMOOTH"
);
},
{
closed = 1;
nodes = (
"405 347 OFFCURVE",
"484 308 OFFCURVE",
"478 190 CURVE SMOOTH",
"473 90 OFFCURVE",
"401 39 OFFCURVE",
"298 39 CURVE SMOOTH",
"285 39 OFFCURVE",
"223 38 OFFCURVE",
"192 41 CURVE",
"195 58 OFFCURVE",
"197 83 OFFCURVE",
"199 119 CURVE SMOOTH",
"211 344 LINE",
"243 346 OFFCURVE",
"274 347 OFFCURVE",
"314 347 CURVE SMOOTH"
);
},
{
closed = 1;
nodes = (
"369 666 OFFCURVE",
"449 644 OFFCURVE",
"445 536 CURVE SMOOTH",
"442 462 OFFCURVE",
"400 390 OFFCURVE",
"286 385 CURVE SMOOTH",
"264 384 OFFCURVE",
"238 383 OFFCURVE",
"213 383 CURVE",
"223 569 LINE SMOOTH",
"227 642 OFFCURVE",
"238 666 OFFCURVE",
"303 666 CURVE SMOOTH"
);
}
);
width = 619;
},
{
layerId = "6B2A2AD0-3CEC-4B3D-96BE-6A11A3496094";
paths = (
{
closed = 1;
nodes = (
"255 701 OFFCURVE",
"164 701 OFFCURVE",
"72 700 CURVE",
"68 623 LINE",
"82 624 OFFCURVE",
"122 625 OFFCURVE",
"143 626 CURVE",
"140 609 OFFCURVE",
"136 572 OFFCURVE",
"134 536 CURVE SMOOTH",
"114 153 LINE SMOOTH",
"110 72 OFFCURVE",
"83 68 OFFCURVE",
"39 66 CURVE",
"35 0 LINE",
"373 0 LINE SMOOTH",
"513 0 OFFCURVE",
"617 69 OFFCURVE",
"624 199 CURVE SMOOTH",
"628 282 OFFCURVE",
"573 357 OFFCURVE",
"442 378 CURVE",
"442 379 LINE",
"537 404 OFFCURVE",
"583 462 OFFCURVE",
"590 520 CURVE SMOOTH",
"604 642 OFFCURVE",
"506 703 OFFCURVE",
"347 702 CURVE SMOOTH"
);
},
{
closed = 1;
nodes = (
"411 323 OFFCURVE",
"474 294 OFFCURVE",
"469 202 CURVE SMOOTH",
"465 128 OFFCURVE",
"427 76 OFFCURVE",
"346 72 CURVE SMOOTH",
"314 71 OFFCURVE",
"283 71 OFFCURVE",
"248 71 CURVE",
"251 88 OFFCURVE",
"255 123 OFFCURVE",
"257 159 CURVE SMOOTH",
"265 322 LINE",
"291 323 OFFCURVE",
"313 323 OFFCURVE",
"346 323 CURVE SMOOTH"
);
},
{
closed = 1;
nodes = (
"391 633 OFFCURVE",
"445 607 OFFCURVE",
"440 528 CURVE SMOOTH",
"437 455 OFFCURVE",
"406 396 OFFCURVE",
"321 394 CURVE",
"304 394 OFFCURVE",
"286 393 OFFCURVE",
"269 393 CURVE",
"277 548 LINE SMOOTH",
"281 625 OFFCURVE",
"307 631 OFFCURVE",
"340 632 CURVE SMOOTH"
);
}
);
width = 659;
}
);
leftKerningGroup = I;
unicode = 0042;
},
{
glyphname = C;
layers = (
{
anchors = (
{
name = bottom;
position = "{389, 0}";
},
{
name = top;
position = "{429, 702}";
}
);
layerId = UUID0;
paths = (
{
closed = 1;
nodes = (
"179 716 OFFCURVE",
"60 527 OFFCURVE",
"50 339 CURVE",
"40 140 OFFCURVE",
"165 -16 OFFCURVE",
"366 -16 CURVE SMOOTH",
"447 -16 OFFCURVE",
"564 11 OFFCURVE",
"656 127 CURVE",
"631 148 LINE",
"573 74 OFFCURVE",
"481 36 OFFCURVE",
"395 36 CURVE SMOOTH",
"247 36 OFFCURVE",
"134 165 OFFCURVE",
"144 354 CURVE",
"154 550 OFFCURVE",
"274 675 OFFCURVE",
"416 675 CURVE SMOOTH",
"532 675 OFFCURVE",
"607 604 OFFCURVE",
"614 479 CURVE",
"650 479 LINE",
"662 710 LINE",
"608 710 LINE",
"610 656 LINE",
"609 656 LINE",
"550 696 OFFCURVE",
"487 716 OFFCURVE",
"412 716 CURVE SMOOTH"
);
}
);
width = 686;
},
{
anchors = (
{
name = bottom;
position = "{394, 0}";
},
{
name = top;
position = "{423, 700}";
}
);
layerId = "6B2A2AD0-3CEC-4B3D-96BE-6A11A3496094";
paths = (
{
closed = 1;
nodes = (
"175 716 OFFCURVE",
"48 522 OFFCURVE",
"38 340 CURVE SMOOTH",
"28 141 OFFCURVE",
"156 -16 OFFCURVE",
"362 -16 CURVE SMOOTH",
"445 -16 OFFCURVE",
"567 9 OFFCURVE",
"671 144 CURVE",
"632 184 LINE",
"564 96 OFFCURVE",
"471 59 OFFCURVE",
"391 60 CURVE SMOOTH",
"256 61 OFFCURVE",
"185 188 OFFCURVE",
"194 360 CURVE SMOOTH",
"202 504 OFFCURVE",
"277 649 OFFCURVE",
"417 648 CURVE SMOOTH",
"510 648 OFFCURVE",
"564 587 OFFCURVE",
"576 476 CURVE",
"642 476 LINE",
"654 709 LINE",
"577 709 LINE",
"578 667 LINE",
"577 667 LINE",
"525 699 OFFCURVE",
"460 716 OFFCURVE",
"408 716 CURVE SMOOTH"
);
}
);
width = 690;
}
);
leftKerningGroup = O;
rightKerningGroup = C;
unicode = 0043;
},
{
glyphname = Ccedilla;
layers = (
{
background = {
paths = (
{
closed = 1;
nodes = (
"180 716 OFFCURVE",
"61 527 OFFCURVE",
"51 339 CURVE",
"42 165 OFFCURVE",
"137 23 OFFCURVE",
"296 -9 CURVE",
"267 -102 LINE",
"299 -119 LINE",
"311 -110 OFFCURVE",
"324 -106 OFFCURVE",
"338 -104 CURVE SMOOTH",
"365 -101 OFFCURVE",
"382 -113 OFFCURVE",
"381 -137 CURVE SMOOTH",
"379 -176 OFFCURVE",
"317 -206 OFFCURVE",
"249 -218 CURVE",
"255 -251 LINE",
"323 -241 OFFCURVE",
"457 -209 OFFCURVE",
"463 -128 CURVE",
"466 -90 OFFCURVE",
"446 -57 OFFCURVE",
"395 -57 CURVE SMOOTH",
"379 -57 OFFCURVE",
"347 -63 OFFCURVE",
"327 -75 CURVE",
"350 -16 LINE",
"355 -16 OFFCURVE",
"361 -16 OFFCURVE",
"367 -16 CURVE SMOOTH",
"448 -16 OFFCURVE",
"565 11 OFFCURVE",
"657 127 CURVE",
"632 148 LINE",
"574 74 OFFCURVE",
"482 36 OFFCURVE",
"396 36 CURVE SMOOTH",
"248 36 OFFCURVE",
"135 165 OFFCURVE",
"145 354 CURVE",
"155 550 OFFCURVE",
"275 675 OFFCURVE",
"417 675 CURVE SMOOTH",
"533 675 OFFCURVE",
"608 604 OFFCURVE",
"615 479 CURVE",
"651 479 LINE",
"663 710 LINE",
"609 710 LINE",
"611 656 LINE",
"552 697 OFFCURVE",
"489 716 OFFCURVE",
"413 716 CURVE SMOOTH"
);
}
);
};
components = (
{
name = C;
},
{
name = cedillacomb.case;
transform = "{1, 0, 0, 1, 239, 0}";
}
);
layerId = UUID0;
width = 686;
},
{
background = {
paths = (
{
closed = 1;
nodes = (
"175 716 OFFCURVE",
"48 522 OFFCURVE",
"39 340 CURVE SMOOTH",
"30 170 OFFCURVE",
"122 31 OFFCURVE",
"276 -6 CURVE",
"243 -121 LINE",
"284 -136 LINE",
"304 -120 OFFCURVE",
"354 -109 OFFCURVE",
"353 -146 CURVE SMOOTH",
"351 -187 OFFCURVE",
"259 -214 OFFCURVE",
"227 -220 CURVE",
"232 -275 LINE",
"310 -264 OFFCURVE",
"465 -219 OFFCURVE",
"470 -125 CURVE SMOOTH",
"472 -78 OFFCURVE",
"439 -53 OFFCURVE",
"398 -52 CURVE SMOOTH",
"380 -51 OFFCURVE",
"346 -59 OFFCURVE",
"329 -67 CURVE",
"328 -67 LINE",
"350 -16 LINE",
"354 -16 OFFCURVE",
"358 -16 OFFCURVE",
"363 -16 CURVE SMOOTH",
"445 -16 OFFCURVE",
"567 9 OFFCURVE",
"672 144 CURVE",
"632 184 LINE",
"564 96 OFFCURVE",
"471 59 OFFCURVE",
"392 60 CURVE SMOOTH",
"257 61 OFFCURVE",
"186 188 OFFCURVE",
"195 360 CURVE SMOOTH",
"202 504 OFFCURVE",
"278 649 OFFCURVE",
"417 648 CURVE SMOOTH",
"511 648 OFFCURVE",
"564 587 OFFCURVE",
"577 476 CURVE",
"642 476 LINE",
"654 709 LINE",
"577 709 LINE",
"579 667 LINE",
"578 667 LINE",
"526 699 OFFCURVE",
"460 716 OFFCURVE",
"408 716 CURVE SMOOTH"
);
}
);
};
components = (
{
name = C;
},
{
name = cedillacomb.case;
transform = "{1, 0, 0, 1, 219, 0}";
}
);
layerId = "6B2A2AD0-3CEC-4B3D-96BE-6A11A3496094";
width = 690;
}
);
leftKerningGroup = O;
rightKerningGroup = C;
unicode = 00C7;
},
{
glyphname = D;
layers = (
{
anchors = (
{
name = center;
position = "{377, 351}";
},
{
name = top;
position = "{393, 702}";
}
);
layerId = UUID0;
paths = (
{
closed = 1;
nodes = (
"77 700 LINE",
"74 656 LINE",
"99 657 OFFCURVE",
"123 659 OFFCURVE",
"148 660 CURVE",
"145 640 OFFCURVE",
"143 615 OFFCURVE",
"141 588 CURVE SMOOTH",
"117 156 LINE",
"114 85 OFFCURVE",
"117 36 OFFCURVE",
"42 33 CURVE",
"40 0 LINE",
"299 0 LINE SMOOTH",
"564 0 OFFCURVE",
"695 181 OFFCURVE",
"695 376 CURVE SMOOTH",
"695 599 OFFCURVE",
"541 702 OFFCURVE",
"309 701 CURVE SMOOTH"
);
},
{
closed = 1;
nodes = (
"507 664 OFFCURVE",
"602 552 OFFCURVE",
"602 380 CURVE SMOOTH",
"602 188 OFFCURVE",
"479 38 OFFCURVE",
"298 38 CURVE SMOOTH",
"265 38 OFFCURVE",
"235 38 OFFCURVE",
"191 40 CURVE",
"194 57 OFFCURVE",
"196 82 OFFCURVE",
"198 118 CURVE SMOOTH",
"221 551 LINE",
"225 629 OFFCURVE",
"227 664 OFFCURVE",
"303 664 CURVE SMOOTH"
);
}
);
width = 738;
},
{
anchors = (
{
name = center;
position = "{377, 350}";
},
{
name = top;
position = "{397, 700}";
}
);
layerId = "6B2A2AD0-3CEC-4B3D-96BE-6A11A3496094";
paths = (
{
closed = 1;
nodes = (
"72 700 LINE",
"68 623 LINE",
"82 624 OFFCURVE",
"122 625 OFFCURVE",
"143 626 CURVE",
"140 609 OFFCURVE",
"136 572 OFFCURVE",
"134 536 CURVE SMOOTH",
"114 153 LINE SMOOTH",
"110 72 OFFCURVE",
"83 68 OFFCURVE",
"39 66 CURVE",
"35 0 LINE",
"319 0 LINE SMOOTH",
"599 0 OFFCURVE",
"714 194 OFFCURVE",
"723 357 CURVE SMOOTH",
"731 523 OFFCURVE",
"625 702 OFFCURVE",
"361 701 CURVE SMOOTH"
);
},
{
closed = 1;
nodes = (
"494 630 OFFCURVE",
"577 540 OFFCURVE",
"566 336 CURVE SMOOTH",
"560 203 OFFCURVE",
"490 73 OFFCURVE",
"344 73 CURVE SMOOTH",
"320 73 OFFCURVE",
"268 76 OFFCURVE",
"249 74 CURVE",
"252 91 OFFCURVE",
"255 128 OFFCURVE",
"257 164 CURVE SMOOTH",
"277 549 LINE SMOOTH",
"281 626 OFFCURVE",
"306 636 OFFCURVE",
"355 634 CURVE SMOOTH"
);
}
);
width = 755;
}
);
leftKerningGroup = I;
rightKerningGroup = D;
unicode = 0044;
},
{
glyphname = Eth;
layers = (
{
background = {
components = (
{
name = D;
}
);
paths = (
{
closed = 1;
nodes = (
"340 332 LINE",
"342 378 LINE",
"26 378 LINE",
"24 328 LINE"
);
}
);
};
layerId = UUID0;
paths = (
{
closed = 1;
nodes = (
"299 0 LINE SMOOTH",
"564 0 OFFCURVE",
"695 181 OFFCURVE",
"695 376 CURVE SMOOTH",
"695 599 OFFCURVE",
"541 702 OFFCURVE",
"309 701 CURVE SMOOTH",
"77 700 LINE",
"74 656 LINE",
"99 657 OFFCURVE",
"123 659 OFFCURVE",
"148 660 CURVE",
"145 640 OFFCURVE",
"143 615 OFFCURVE",
"141 588 CURVE SMOOTH",
"129 378 LINE",
"26 378 LINE",
"24 328 LINE",
"127 329 LINE",
"117 156 LINE SMOOTH",
"114 85 OFFCURVE",
"117 36 OFFCURVE",
"42 33 CURVE",
"40 0 LINE"
);
},
{
closed = 1;
nodes = (
"265 38 OFFCURVE",
"235 38 OFFCURVE",
"191 40 CURVE",
"194 57 OFFCURVE",
"196 82 OFFCURVE",
"198 118 CURVE SMOOTH",
"209 330 LINE",
"340 332 LINE",
"342 378 LINE",
"212 378 LINE",
"221 551 LINE SMOOTH",
"225 629 OFFCURVE",
"227 664 OFFCURVE",
"303 664 CURVE SMOOTH",
"507 664 OFFCURVE",
"602 552 OFFCURVE",
"602 380 CURVE SMOOTH",
"602 188 OFFCURVE",
"479 38 OFFCURVE",
"298 38 CURVE SMOOTH"
);
}
);
width = 738;
},
{
layerId = "6B2A2AD0-3CEC-4B3D-96BE-6A11A3496094";
paths = (
{
closed = 1;
nodes = (
"320 0 LINE SMOOTH",
"600 0 OFFCURVE",
"715 194 OFFCURVE",
"724 357 CURVE SMOOTH",
"732 523 OFFCURVE",
"625 702 OFFCURVE",
"362 701 CURVE SMOOTH",
"73 700 LINE",
"69 623 LINE",
"83 624 OFFCURVE",
"123 625 OFFCURVE",
"144 626 CURVE",
"141 609 OFFCURVE",
"137 572 OFFCURVE",
"135 536 CURVE SMOOTH",
"128 400 LINE",
"29 400 LINE",
"24 302 LINE",
"123 304 LINE",
"115 153 LINE SMOOTH",
"111 72 OFFCURVE",
"84 68 OFFCURVE",
"40 66 CURVE",
"36 0 LINE"
);
},
{
closed = 1;
nodes = (
"321 73 OFFCURVE",
"269 76 OFFCURVE",
"250 74 CURVE",
"253 91 OFFCURVE",
"256 128 OFFCURVE",
"258 164 CURVE",
"265 307 LINE",
"367 309 LINE",
"372 400 LINE",
"270 400 LINE",
"278 549 LINE SMOOTH",
"282 626 OFFCURVE",
"307 636 OFFCURVE",
"356 634 CURVE SMOOTH",
"495 630 OFFCURVE",
"578 540 OFFCURVE",
"567 336 CURVE SMOOTH",
"561 203 OFFCURVE",
"491 73 OFFCURVE",
"345 73 CURVE SMOOTH"
);
}
);
width = 756;
}
);
leftKerningGroup = I;
rightKerningGroup = D;
rightMetricsKey = D;
unicode = 00D0;
},
{
glyphname = E;
layers = (
{
anchors = (
{
name = bottom;
position = "{332, 0}";
},
{
name = ogonek;
position = "{544, 5}";
},
{
name = top;
position = "{363, 702}";
},
{
name = topleft;
position = "{33, 700}";
}
);
layerId = UUID0;
paths = (
{
closed = 1;
nodes = (
"78 700 LINE",
"76 656 LINE",
"100 657 OFFCURVE",
"125 659 OFFCURVE",
"149 660 CURVE",
"146 640 OFFCURVE",
"143 615 OFFCURVE",
"142 588 CURVE SMOOTH",
"118 156 LINE SMOOTH",
"115 85 OFFCURVE",
"118 36 OFFCURVE",
"43 33 CURVE",
"41 0 LINE",
"553 0 LINE",
"569 195 LINE",
"535 195 LINE",
"529 76 OFFCURVE",
"470 41 OFFCURVE",
"383 40 CURVE SMOOTH",
"192 37 LINE",
"195 54 OFFCURVE",
"197 79 OFFCURVE",
"199 115 CURVE SMOOTH",
"211 344 LINE",
"284 347 LINE SMOOTH",
"370 350 OFFCURVE",
"403 347 OFFCURVE",
"399 259 CURVE",
"432 259 LINE",
"443 477 LINE",
"410 477 LINE",
"406 389 OFFCURVE",
"369 382 OFFCURVE",
"285 383 CURVE SMOOTH",
"213 384 LINE",
"222 544 LINE SMOOTH",
"227 625 OFFCURVE",
"229 661 OFFCURVE",
"304 663 CURVE SMOOTH",
"390 665 LINE SMOOTH",
"465 667 OFFCURVE",
"524 643 OFFCURVE",
"518 525 CURVE",
"551 525 LINE",
"555 700 LINE"
);
}
);
width = 619;
},
{
anchors = (
{
name = bottom;
position = "{343, 0}";
},
{
name = ogonek;
position = "{561, 5}";
},
{
name = top;
position = "{343, 700}";
},
{
name = topleft;
position = "{33, 700}";
}
);
layerId = "6B2A2AD0-3CEC-4B3D-96BE-6A11A3496094";
paths = (
{
closed = 1;
nodes = (
"72 700 LINE",
"68 623 LINE",
"82 624 OFFCURVE",
"122 625 OFFCURVE",
"143 626 CURVE",
"140 609 OFFCURVE",
"136 572 OFFCURVE",
"134 536 CURVE SMOOTH",
"114 153 LINE SMOOTH",
"110 72 OFFCURVE",
"83 68 OFFCURVE",
"39 66 CURVE",
"35 0 LINE",
"561 0 LINE",
"578 220 LINE",
"512 220 LINE",
"506 112 OFFCURVE",
"442 76 OFFCURVE",
"383 76 CURVE SMOOTH",
"249 76 LINE",
"252 93 OFFCURVE",
"255 128 OFFCURVE",
"257 164 CURVE SMOOTH",
"266 328 LINE",
"292 329 LINE SMOOTH",
"346 330 OFFCURVE",
"390 325 OFFCURVE",
"386 241 CURVE",
"452 241 LINE",
"464 484 LINE",
"387 484 LINE",
"387 459 OFFCURVE",
"387 425 OFFCURVE",
"387 397 CURVE",
"270 397 LINE",
"277 547 LINE SMOOTH",
"281 625 OFFCURVE",
"307 633 OFFCURVE",
"349 634 CURVE SMOOTH",
"385 635 LINE SMOOTH",
"439 637 OFFCURVE",
"505 615 OFFCURVE",
"500 506 CURVE",
"565 506 LINE",
"570 700 LINE"
);
}
);
width = 623;
}
);
leftKerningGroup = I;
rightKerningGroup = E;
unicode = 0045;
},
{
color = 4;
glyphname = Ezh;
layers = (
{
anchors = (
{
name = bottom;
position = "{277, 0}";
},
{
name = top;
position = "{313, 700}";
}
);
background = {
anchors = (
{
name = bottom;
position = "{285, 0}";
},
{
name = top;
position = "{321, 700}";
}
);
paths = (
{
closed = 1;
nodes = (
"418 -17 OFFCURVE",
"540 57 OFFCURVE",
"548 191 CURVE SMOOTH",
"554 291 OFFCURVE",
"488 373 OFFCURVE",
"324 367 CURVE",
"260 343 LINE",
"393 342 OFFCURVE",
"457 301 OFFCURVE",
"451 202 CURVE SMOOTH",
"445 89 OFFCURVE",
"365 31 OFFCURVE",
"261 31 CURVE SMOOTH",
"180 31 OFFCURVE",
"112 71 OFFCURVE",
"51 146 CURVE",
"24 125 LINE",
"86 26 OFFCURVE",
"188 -17 OFFCURVE",
"290 -17 CURVE SMOOTH"
);
},
{
closed = 1;
nodes = (
"298 343 LINE",
"280 386 LINE",
"195 386 LINE",
"193 342 LINE"
);
},
{
closed = 1;
nodes = (
"354 366 LINE",
"354 369 LINE",
"455 379 OFFCURVE",
"523 456 OFFCURVE",
"529 545 CURVE SMOOTH",
"536 650 OFFCURVE",
"454 716 OFFCURVE",
"325 716 CURVE SMOOTH",
"266 716 OFFCURVE",
"199 697 OFFCURVE",
"148 655 CURVE",
"155 709 LINE",
"101 709 LINE",
"89 477 LINE",
"125 477 LINE",
"160 608 OFFCURVE",
"233 675 OFFCURVE",
"320 675 CURVE SMOOTH",
"389 675 OFFCURVE",
"442 637 OFFCURVE",
"437 539 CURVE SMOOTH",
"433 459 OFFCURVE",
"390 383 OFFCURVE",
"267 386 CURVE",
"297 343 LINE"
);
}
);
};
components = (
{
name = "Dzeabkhasian-cy";
}
);
layerId = UUID0;
width = 579;
},
{
anchors = (
{
name = bottom;
position = "{303, 0}";
},
{
name = top;
position = "{340, 700}";
}
);
components = (
{
name = "Dzeabkhasian-cy";
}
);
layerId = "6B2A2AD0-3CEC-4B3D-96BE-6A11A3496094";
width = 631;
}
);
unicode = 01B7;
},
{
glyphname = F;
layers = (
{
layerId = UUID0;
paths = (
{
closed = 1;
nodes = (
"78 700 LINE",
"76 656 LINE",
"100 657 OFFCURVE",
"125 659 OFFCURVE",
"149 660 CURVE",
"146 640 OFFCURVE",
"143 615 OFFCURVE",
"142 588 CURVE SMOOTH",
"118 156 LINE SMOOTH",
"115 85 OFFCURVE",
"118 36 OFFCURVE",
"43 33 CURVE",
"41 0 LINE",
"292 0 LINE",
"294 44 LINE",
"260 43 OFFCURVE",
"226 41 OFFCURVE",
"192 40 CURVE",
"195 57 OFFCURVE",
"198 83 OFFCURVE",
"199 119 CURVE SMOOTH",
"210 328 LINE",
"236 330 OFFCURVE",
"262 331 OFFCURVE",
"288 331 CURVE SMOOTH",
"359 331 OFFCURVE",
"388 325 OFFCURVE",
"384 243 CURVE",
"417 243 LINE",
"428 462 LINE",
"395 462 LINE",
"391 380 OFFCURVE",
"361 369 OFFCURVE",
"290 368 CURVE SMOOTH",
"212 368 LINE",
"222 552 LINE SMOOTH",
"225 622 OFFCURVE",
"229 661 OFFCURVE",
"297 663 CURVE SMOOTH",
"370 665 LINE SMOOTH",
"445 667 OFFCURVE",
"507 643 OFFCURVE",
"501 525 CURVE",
"534 525 LINE",
"538 700 LINE"
);
}
);
width = 541;
},
{
layerId = "6B2A2AD0-3CEC-4B3D-96BE-6A11A3496094";
paths = (
{
closed = 1;
nodes = (
"72 700 LINE",
"68 623 LINE",
"82 624 OFFCURVE",
"122 625 OFFCURVE",
"143 626 CURVE",
"140 609 OFFCURVE",
"136 572 OFFCURVE",
"134 536 CURVE SMOOTH",
"114 153 LINE SMOOTH",
"110 72 OFFCURVE",
"83 68 OFFCURVE",
"39 66 CURVE",
"35 0 LINE",
"333 0 LINE",
"337 77 LINE",
"323 77 OFFCURVE",
"270 76 OFFCURVE",
"249 74 CURVE",
"252 91 OFFCURVE",
"255 128 OFFCURVE",
"257 164 CURVE SMOOTH",
"265 304 LINE",
"269 304 OFFCURVE",
"273 304 OFFCURVE",
"277 304 CURVE SMOOTH",
"331 306 OFFCURVE",
"375 300 OFFCURVE",
"370 216 CURVE",
"436 216 LINE",
"449 459 LINE",
"372 459 LINE",
"372 435 OFFCURVE",
"371 400 OFFCURVE",
"372 373 CURVE",
"268 373 LINE",
"277 547 LINE SMOOTH",
"281 625 OFFCURVE",
"307 633 OFFCURVE",
"349 634 CURVE SMOOTH",
"385 635 LINE SMOOTH",
"439 637 OFFCURVE",
"505 615 OFFCURVE",
"500 506 CURVE",
"565 506 LINE",
"570 700 LINE"
);
}
);
width = 566;
}
);
leftKerningGroup = I;
unicode = 0046;
},
{
glyphname = G;
layers = (
{
anchors = (
{
name = bottom;
position = "{358, 0}";
},
{
name = top;
position = "{430, 702}";
}
);
layerId = UUID0;
paths = (
{
closed = 1;
nodes = (
"410 -16 OFFCURVE",
"472 -6 OFFCURVE",
"514 10 CURVE SMOOTH",
"563 29 OFFCURVE",
"601 36 OFFCURVE",
"623 36 CURVE SMOOTH",
"647 36 LINE",
"655 188 LINE SMOOTH",
"657 215 OFFCURVE",
"658 307 OFFCURVE",
"733 307 CURVE",
"735 340 LINE",
"512 340 LINE",
"510 296 LINE",
"533 297 OFFCURVE",
"557 299 OFFCURVE",
"580 300 CURVE",
"578 266 OFFCURVE",
"577 233 OFFCURVE",
"575 199 CURVE",
"569 82 LINE",
"515 47 OFFCURVE",
"448 32 OFFCURVE",
"395 32 CURVE SMOOTH",
"237 32 OFFCURVE",
"134 169 OFFCURVE",
"144 358 CURVE SMOOTH",
"154 544 OFFCURVE",
"275 676 OFFCURVE",
"417 676 CURVE SMOOTH",
"533 676 OFFCURVE",
"620 605 OFFCURVE",
"622 480 CURVE",
"658 480 LINE",
"670 709 LINE",
"615 709 LINE",
"617 662 LINE",
"562 695 OFFCURVE",
"485 716 OFFCURVE",
"413 716 CURVE SMOOTH",
"180 716 OFFCURVE",
"60 523 OFFCURVE",
"50 335 CURVE SMOOTH",
"38 116 OFFCURVE",
"165 -16 OFFCURVE",
"366 -16 CURVE SMOOTH"
);
}
);
width = 753;
},
{
anchors = (
{
name = bottom;
position = "{368, 0}";
},
{
name = top;
position = "{427, 700}";
}
);
layerId = "6B2A2AD0-3CEC-4B3D-96BE-6A11A3496094";
paths = (
{
closed = 1;
nodes = (
"427 -16 OFFCURVE",
"479 -1 OFFCURVE",
"525 12 CURVE SMOOTH",
"563 24 OFFCURVE",
"598 34 OFFCURVE",
"633 34 CURVE SMOOTH",
"658 34 LINE",
"666 194 LINE SMOOTH",
"670 270 OFFCURVE",
"692 279 OFFCURVE",
"737 281 CURVE",
"740 347 LINE",
"477 347 LINE",
"473 270 LINE",
"487 271 OFFCURVE",
"527 271 OFFCURVE",
"548 273 CURVE",
"545 256 OFFCURVE",
"542 219 OFFCURVE",
"540 183 CURVE SMOOTH",
"535 90 LINE",
"497 72 OFFCURVE",
"428 63 OFFCURVE",
"390 63 CURVE SMOOTH",
"253 63 OFFCURVE",
"185 188 OFFCURVE",
"194 360 CURVE SMOOTH",
"202 504 OFFCURVE",
"276 644 OFFCURVE",
"416 644 CURVE SMOOTH",
"509 643 OFFCURVE",
"580 587 OFFCURVE",
"592 476 CURVE",
"658 476 LINE",
"670 709 LINE",
"593 709 LINE",
"593 667 LINE",
"542 699 OFFCURVE",
"458 716 OFFCURVE",
"406 716 CURVE SMOOTH",
"173 716 OFFCURVE",
"48 522 OFFCURVE",
"39 340 CURVE SMOOTH",
"28 141 OFFCURVE",
"144 -16 OFFCURVE",
"361 -16 CURVE SMOOTH"
);
}
);
width = 756;
}
);
leftKerningGroup = O;
rightKerningGroup = G;
unicode = 0047;
},
{
color = 4;
glyphname = Gstroke;
layers = (
{
components = (
{
name = G;
}
);
layerId = "6B2A2AD0-3CEC-4B3D-96BE-6A11A3496094";
paths = (
{
closed = 1;
nodes = (
"448 228 LINE",
"446 185 LINE",
"751 189 LINE",
"753 228 LINE"
);
}
);
width = 756;
},
{
components = (
{
name = G;
}
);
layerId = UUID0;
paths = (
{
closed = 1;
nodes = (
"464 228 LINE",
"462 185 LINE",
"746 189 LINE",
"748 228 LINE"
);
}
);
width = 753;
}
);
leftMetricsKey = G;
unicode = 01E4;
},
{
glyphname = H;
layers = (
{
anchors = (
{
name = center;
position = "{395, 351}";
},
{
name = top;
position = "{410, 702}";
}
);
layerId = UUID0;
paths = (
{
closed = 1;
nodes = (
"519 700 LINE",
"517 656 LINE",
"541 657 OFFCURVE",
"565 659 OFFCURVE",
"589 660 CURVE",
"586 640 OFFCURVE",
"583 615 OFFCURVE",
"582 588 CURVE SMOOTH",
"571 378 LINE",
"212 378 LINE",
"222 556 LINE SMOOTH",
"226 627 OFFCURVE",
"232 664 OFFCURVE",
"297 667 CURVE",
"299 700 LINE",
"78 700 LINE",
"76 656 LINE",
"100 657 OFFCURVE",
"124 659 OFFCURVE",
"148 660 CURVE",
"145 640 OFFCURVE",
"143 615 OFFCURVE",
"141 588 CURVE SMOOTH",
"118 156 LINE SMOOTH",
"114 85 OFFCURVE",
"118 36 OFFCURVE",
"43 33 CURVE",
"41 0 LINE",
"262 0 LINE",
"264 44 LINE",
"240 43 OFFCURVE",
"216 41 OFFCURVE",
"192 40 CURVE",
"195 57 OFFCURVE",
"197 83 OFFCURVE",
"199 119 CURVE SMOOTH",
"210 334 LINE",
"569 338 LINE",
"559 156 LINE",
"556 85 OFFCURVE",
"559 36 OFFCURVE",
"484 33 CURVE",
"482 0 LINE",
"703 0 LINE",
"705 44 LINE",
"681 43 OFFCURVE",
"657 41 OFFCURVE",
"633 40 CURVE",
"636 57 OFFCURVE",
"638 83 OFFCURVE",
"640 119 CURVE SMOOTH",
"663 557 LINE SMOOTH",
"667 628 OFFCURVE",
"673 664 OFFCURVE",
"738 667 CURVE",
"740 700 LINE"
);
}
);
width = 773;
},
{
anchors = (
{
name = center;
position = "{401, 350}";
},
{
name = top;
position = "{429, 700}";
}
);
layerId = "6B2A2AD0-3CEC-4B3D-96BE-6A11A3496094";
paths = (
{
closed = 1;
nodes = (
"489 700 LINE",
"485 623 LINE",
"500 624 OFFCURVE",
"539 625 OFFCURVE",
"561 626 CURVE",
"557 609 OFFCURVE",
"554 572 OFFCURVE",
"552 536 CURVE SMOOTH",
"544 391 LINE",
"269 391 LINE",
"277 547 LINE SMOOTH",
"281 628 OFFCURVE",
"308 632 OFFCURVE",
"353 634 CURVE",
"356 700 LINE",
"72 700 LINE",
"68 623 LINE",
"82 624 OFFCURVE",
"122 625 OFFCURVE",
"143 626 CURVE",
"140 609 OFFCURVE",
"136 572 OFFCURVE",
"134 536 CURVE SMOOTH",
"114 153 LINE SMOOTH",
"110 72 OFFCURVE",
"83 68 OFFCURVE",
"39 66 CURVE",
"35 0 LINE",
"320 0 LINE",
"324 77 LINE",
"310 77 OFFCURVE",
"270 76 OFFCURVE",
"249 74 CURVE",
"252 91 OFFCURVE",
"255 128 OFFCURVE",
"257 164 CURVE SMOOTH",
"265 312 LINE",
"541 315 LINE",
"532 153 LINE SMOOTH",
"528 72 OFFCURVE",
"501 68 OFFCURVE",
"456 66 CURVE",
"453 0 LINE",
"737 0 LINE",
"741 77 LINE",
"727 77 OFFCURVE",
"688 76 OFFCURVE",
"666 74 CURVE",
"669 91 OFFCURVE",
"673 128 OFFCURVE",
"675 164 CURVE SMOOTH",
"695 547 LINE SMOOTH",
"699 628 OFFCURVE",
"726 632 OFFCURVE",
"771 634 CURVE",
"774 700 LINE"
);
}
);
width = 802;
}
);
leftKerningGroup = I;
rightKerningGroup = I;
unicode = 0048;
},
{
color = 4;
glyphname = Hbar;
layers = (
{
background = {
paths = (
{
closed = 1;
nodes = (
"372 518 LINE",
"374 552 LINE",
"48 552 LINE",
"46 514 LINE"
);
}
);
};
components = (
{
name = H;
}
);
layerId = UUID0;
paths = (
{
closed = 1;
nodes = (
"48 558 LINE",
"46 515 LINE",
"751 519 LINE",
"753 558 LINE"
);
}
);
width = 780;
},
{
components = (
{
name = H;
}
);
layerId = "6B2A2AD0-3CEC-4B3D-96BE-6A11A3496094";
paths = (
{
closed = 1;
nodes = (
"52 538 LINE",
"50 485 LINE",
"755 489 LINE",
"757 538 LINE"
);
}
);
width = 807;
}
);
unicode = 0126;
},
{
glyphname = I;
layers = (
{
anchors = (
{
name = bottom;
position = "{153, 0}";
},
{
name = ogonek;
position = "{262, 0}";
},
{
name = top;
position = "{197, 702}";
},
{
name = topleft;
position = "{33, 700}";
}
);
layerId = UUID0;
paths = (
{
closed = 1;
nodes = (
"78 700 LINE",
"76 656 LINE",
"100 657 OFFCURVE",
"124 659 OFFCURVE",
"148 660 CURVE",
"145 640 OFFCURVE",
"142 615 OFFCURVE",
"141 588 CURVE SMOOTH",
"118 156 LINE",
"115 85 OFFCURVE",
"118 36 OFFCURVE",
"43 33 CURVE",
"41 0 LINE",
"262 0 LINE",
"264 44 LINE",
"240 43 OFFCURVE",
"216 41 OFFCURVE",
"192 40 CURVE",
"195 57 OFFCURVE",
"198 83 OFFCURVE",
"199 119 CURVE SMOOTH",
"222 554 LINE SMOOTH",
"225 625 OFFCURVE",
"227 664 OFFCURVE",
"297 667 CURVE",
"299 700 LINE"
);
}
);
width = 333;
},
{
anchors = (
{
name = bottom;
position = "{179, 0}";
},
{
name = ogonek;
position = "{318, 0}";
},
{
name = top;
position = "{226, 700}";
},
{
name = topleft;
position = "{33, 700}";
}
);
layerId = "6B2A2AD0-3CEC-4B3D-96BE-6A11A3496094";
paths = (
{
closed = 1;
nodes = (
"72 700 LINE",
"68 623 LINE",
"82 624 OFFCURVE",
"122 625 OFFCURVE",
"143 626 CURVE",
"140 609 OFFCURVE",
"136 572 OFFCURVE",
"134 536 CURVE SMOOTH",
"114 153 LINE SMOOTH",
"110 72 OFFCURVE",
"83 68 OFFCURVE",
"39 66 CURVE",
"35 0 LINE",
"320 0 LINE",
"324 77 LINE",
"310 77 OFFCURVE",
"270 76 OFFCURVE",
"249 74 CURVE",
"252 91 OFFCURVE",
"255 128 OFFCURVE",
"257 164 CURVE SMOOTH",
"277 547 LINE SMOOTH",
"281 628 OFFCURVE",
"308 632 OFFCURVE",
"353 634 CURVE",
"356 700 LINE"
);
}
);
width = 384;
}
);
leftKerningGroup = I;
rightKerningGroup = I;
unicode = 0049;
},
{
glyphname = Icircumflex;
layers = (
{
background = {
paths = (
{
closed = 1;
nodes = (
"201 930 LINE",
"14 789 LINE",
"30 764 LINE",
"191 850 LINE",
"193 850 LINE",
"356 761 LINE",
"374 789 LINE",
"203 930 LINE"
);
}
);
};
components = (
{
name = I;
},
{
name = circumflexcomb.case.i;
transform = "{1, 0, 0, 1, -32, 2}";
}
);
layerId = UUID0;
width = 333;
},
{
background = {
paths = (
{
closed = 1;
nodes = (
"240 983 LINE",
"61 818 LINE",
"96 771 LINE",
"232 871 LINE",
"233 871 LINE",
"358 768 LINE",
"401 813 LINE",
"250 983 LINE"
);
}
);
};
components = (
{
name = I;
},
{
name = circumflexcomb.case.i;
transform = "{1, 0, 0, 1, -26, 0}";
}
);
layerId = "6B2A2AD0-3CEC-4B3D-96BE-6A11A3496094";
width = 384;
}
);
leftKerningGroup = I;
rightKerningGroup = I;
unicode = 00CE;
},
{
glyphname = J;
layers = (
{
anchors = (
{
name = top;
position = "{237, 702}";
}
);
layerId = UUID0;
paths = (
{
closed = 1;
nodes = (
"99 700 LINE",
"97 656 LINE",
"131 657 OFFCURVE",
"165 659 OFFCURVE",
"199 660 CURVE",
"197 623 OFFCURVE",
"195 587 OFFCURVE",
"193 550 CURVE",
"173 153 LINE SMOOTH",
"167 34 OFFCURVE",
"129 25 OFFCURVE",
"106 24 CURVE SMOOTH",
"95 24 OFFCURVE",
"79 29 OFFCURVE",
"73 40 CURVE",
"76 46 OFFCURVE",
"77 56 OFFCURVE",
"77 63 CURVE SMOOTH",
"77 83 OFFCURVE",
"63 109 OFFCURVE",
"30 107 CURVE SMOOTH",
"2 105 OFFCURVE",
"-14 82 OFFCURVE",
"-14 55 CURVE SMOOTH",
"-14 2 OFFCURVE",
"39 -16 OFFCURVE",
"87 -16 CURVE SMOOTH",
"203 -16 OFFCURVE",
"250 56 OFFCURVE",
"260 244 CURVE SMOOTH",
"276 568 LINE SMOOTH",
"279 624 OFFCURVE",
"292 667 OFFCURVE",
"358 667 CURVE",
"361 700 LINE"
);
}
);
width = 367;
},
{
anchors = (
{
name = top;
position = "{310, 700}";
}
);
layerId = "6B2A2AD0-3CEC-4B3D-96BE-6A11A3496094";
paths = (
{
closed = 1;
nodes = (
"151 700 LINE",
"147 623 LINE",
"161 624 OFFCURVE",
"206 625 OFFCURVE",
"227 626 CURVE",
"224 609 OFFCURVE",
"220 572 OFFCURVE",
"218 536 CURVE SMOOTH",
"197 135 LINE SMOOTH",
"194 79 OFFCURVE",
"178 56 OFFCURVE",
"149 56 CURVE SMOOTH",
"142 56 OFFCURVE",
"125 59 OFFCURVE",
"120 72 CURVE",
"126 84 OFFCURVE",
"130 98 OFFCURVE",
"130 109 CURVE SMOOTH",
"130 143 OFFCURVE",
"112 177 OFFCURVE",
"62 174 CURVE SMOOTH",
"17 172 OFFCURVE",
"-9 133 OFFCURVE",
"-11 91 CURVE SMOOTH",
"-15 29 OFFCURVE",
"47 -16 OFFCURVE",
"125 -16 CURVE SMOOTH",
"260 -16 OFFCURVE",
"335 62 OFFCURVE",
"346 254 CURVE SMOOTH",
"361 547 LINE SMOOTH",
"365 628 OFFCURVE",
"392 632 OFFCURVE",
"437 634 CURVE",
"440 700 LINE"
);
}
);
width = 445;
}
);
leftKerningGroup = J;
rightKerningGroup = J;
unicode = 004A;
},
{
glyphname = K;
layers = (
{
anchors = (
{
name = bottom;
position = "{320, 0}";
},
{
name = top;
position = "{368, 702}";
}
);
background = {
paths = (
{
closed = 1;
nodes = (
"114 156 LINE SMOOTH",
"110 85 OFFCURVE",
"114 36 OFFCURVE",
"39 33 CURVE",
"37 0 LINE",
"262 0 LINE",
"264 44 LINE",
"192 40 LINE",
"195 57 OFFCURVE",
"197 83 OFFCURVE",
"199 119 CURVE SMOOTH",
"211 340 LINE",
"260 341 LINE",
"283 326 OFFCURVE",
"307 293 OFFCURVE",
"331 260 CURVE",
"442 98 LINE",
"478 47 OFFCURVE",
"518 0 OFFCURVE",
"538 0 CURVE SMOOTH",
"660 0 LINE",
"662 33 LINE",
"619 33 OFFCURVE",
"591 41 OFFCURVE",
"521 142 CURVE SMOOTH",
"417 291 LINE",
"394 322 OFFCURVE",
"374 353 OFFCURVE",
"338 376 CURVE",
"444 532 LINE SMOOTH",
"518 641 OFFCURVE",
"568 660 OFFCURVE",
"653 667 CURVE",
"655 700 LINE",
"440 700 LINE",
"438 659 LINE",
"499 661 LINE",
"470 639 OFFCURVE",
"441 603 OFFCURVE",
"423 577 CURVE SMOOTH",
"288 380 LINE",
"213 380 LINE",
"222 544 LINE SMOOTH",
"225 615 OFFCURVE",
"222 664 OFFCURVE",
"297 667 CURVE",
"299 700 LINE",
"74 700 LINE",
"71 656 LINE",
"144 660 LINE",
"140 640 OFFCURVE",
"138 615 OFFCURVE",
"137 588 CURVE SMOOTH"
);
}
);
};
layerId = UUID0;
paths = (
{
closed = 1;
nodes = (
"262 0 LINE",
"264 44 LINE",
"240 43 OFFCURVE",
"216 41 OFFCURVE",
"192 40 CURVE",
"195 57 OFFCURVE",
"197 83 OFFCURVE",
"199 119 CURVE SMOOTH",
"211 340 LINE",
"229 340 OFFCURVE",
"246 341 OFFCURVE",
"264 341 CURVE",
"287 326 OFFCURVE",
"313 293 OFFCURVE",
"335 260 CURVE SMOOTH",
"446 98 LINE",
"483 47 OFFCURVE",
"522 0 OFFCURVE",
"542 0 CURVE SMOOTH",
"660 0 LINE",
"662 33 LINE",
"619 33 OFFCURVE",
"591 41 OFFCURVE",
"521 142 CURVE",
"416 291 LINE SMOOTH",
"394 322 OFFCURVE",
"375 353 OFFCURVE",
"338 376 CURVE",
"444 532 LINE SMOOTH",
"518 641 OFFCURVE",
"569 660 OFFCURVE",
"653 667 CURVE",
"655 700 LINE",
"440 700 LINE",
"438 659 LINE",
"459 660 OFFCURVE",
"480 660 OFFCURVE",
"501 661 CURVE",
"469 638 OFFCURVE",
"442 604 OFFCURVE",
"424 577 CURVE SMOOTH",
"291 380 LINE",
"213 380 LINE",
"222 554 LINE SMOOTH",
"226 625 OFFCURVE",
"232 664 OFFCURVE",
"297 667 CURVE",
"299 700 LINE",
"78 700 LINE",
"76 656 LINE",
"100 657 OFFCURVE",
"124 659 OFFCURVE",
"148 660 CURVE",
"145 640 OFFCURVE",
"143 615 OFFCURVE",
"141 588 CURVE SMOOTH",
"118 156 LINE",
"115 85 OFFCURVE",
"118 36 OFFCURVE",
"43 33 CURVE",
"41 0 LINE"
);
}
);
width = 667;
},
{
anchors = (
{
name = bottom;
position = "{355, 0}";
},
{
name = top;
position = "{393, 700}";
}
);
layerId = "6B2A2AD0-3CEC-4B3D-96BE-6A11A3496094";
paths = (
{
closed = 1;
nodes = (
"320 0 LINE",
"324 77 LINE",
"310 77 OFFCURVE",
"270 76 OFFCURVE",
"249 74 CURVE",
"252 91 OFFCURVE",
"255 128 OFFCURVE",
"257 164 CURVE SMOOTH",
"265 315 LINE",
"277 315 OFFCURVE",
"299 315 OFFCURVE",
"301 315 CURVE",
"318 302 OFFCURVE",
"339 271 OFFCURVE",
"356 246 CURVE",
"447 102 LINE SMOOTH",
"472 63 OFFCURVE",
"523 1 OFFCURVE",
"540 0 CURVE",
"692 0 LINE",
"696 66 LINE",
"651 68 OFFCURVE",
"608 117 OFFCURVE",
"570 174 CURVE SMOOTH",
"476 319 LINE SMOOTH",
"462 341 OFFCURVE",
"442 361 OFFCURVE",
"417 378 CURVE",
"521 532 LINE SMOOTH",
"581 621 OFFCURVE",
"636 632 OFFCURVE",
"681 634 CURVE",
"684 700 LINE",
"439 700 LINE",
"436 623 LINE",
"450 624 OFFCURVE",
"478 625 OFFCURVE",
"499 627 CURVE",
"481 612 OFFCURVE",
"451 566 OFFCURVE",
"425 526 CURVE SMOOTH",
"342 395 LINE",
"269 395 LINE",
"277 547 LINE SMOOTH",
"281 628 OFFCURVE",
"308 632 OFFCURVE",
"353 634 CURVE",
"356 700 LINE",
"72 700 LINE",
"68 623 LINE",
"82 624 OFFCURVE",
"122 625 OFFCURVE",
"143 626 CURVE",
"140 609 OFFCURVE",
"136 572 OFFCURVE",
"134 536 CURVE SMOOTH",
"114 153 LINE SMOOTH",
"110 72 OFFCURVE",
"83 68 OFFCURVE",
"39 66 CURVE",
"35 0 LINE"
);
}
);
width = 711;
}
);
leftKerningGroup = I;
rightKerningGroup = K;
unicode = 004B;
},
{
glyphname = L;
layers = (
{
anchors = (
{
name = bottom;
position = "{275, 0}";
},
{
name = top;
position = "{192, 702}";
}
);
layerId = UUID0;
paths = (
{
closed = 1;
nodes = (
"77 700 LINE",
"77 656 LINE",
"101 657 OFFCURVE",
"124 659 OFFCURVE",
"148 660 CURVE",
"144 640 OFFCURVE",
"143 615 OFFCURVE",
"141 588 CURVE SMOOTH",
"117 156 LINE SMOOTH",
"113 85 OFFCURVE",
"117 36 OFFCURVE",
"42 33 CURVE",
"40 0 LINE",
"532 0 LINE",
"549 207 LINE",
"515 207 LINE",
"509 88 OFFCURVE",
"462 42 OFFCURVE",
"378 40 CURVE SMOOTH",
"191 37 LINE",
"194 54 OFFCURVE",
"196 79 OFFCURVE",
"198 115 CURVE SMOOTH",
"221 544 LINE",
"224 615 OFFCURVE",
"226 664 OFFCURVE",
"296 667 CURVE",
"298 700 LINE"
);
}
);
width = 577;
},
{
anchors = (
{
name = bottom;
position = "{303, 0}";
},
{
name = top;
position = "{211, 700}";
}
);
layerId = "6B2A2AD0-3CEC-4B3D-96BE-6A11A3496094";
paths = (
{
closed = 1;
nodes = (
"72 700 LINE",
"68 623 LINE",
"82 624 OFFCURVE",
"122 625 OFFCURVE",
"143 626 CURVE",
"140 609 OFFCURVE",
"136 572 OFFCURVE",
"134 536 CURVE SMOOTH",
"114 153 LINE SMOOTH",
"110 72 OFFCURVE",
"83 68 OFFCURVE",
"39 66 CURVE",
"35 0 LINE",
"566 0 LINE",
"584 240 LINE",
"518 240 LINE",
"512 131 OFFCURVE",
"461 77 OFFCURVE",
"383 76 CURVE SMOOTH",
"249 76 LINE",
"252 93 OFFCURVE",
"255 128 OFFCURVE",
"257 164 CURVE SMOOTH",
"277 547 LINE SMOOTH",
"281 628 OFFCURVE",
"308 632 OFFCURVE",
"353 634 CURVE",
"356 700 LINE"
);
}
);
width = 606;
}
);
leftKerningGroup = I;
rightKerningGroup = L;
unicode = 004C;
},
{
glyphname = Lslash;
layers = (
{
layerId = UUID0;
paths = (
{
closed = 1;
nodes = (
"78 700 LINE",
"78 656 LINE",
"102 657 OFFCURVE",
"125 659 OFFCURVE",
"149 660 CURVE",
"145 640 OFFCURVE",
"144 615 OFFCURVE",
"142 588 CURVE SMOOTH",
"128 343 LINE",
"47 284 LINE",
"44 228 LINE",
"125 288 LINE",
"118 156 LINE SMOOTH",
"114 85 OFFCURVE",
"118 36 OFFCURVE",
"43 33 CURVE",
"41 0 LINE",
"533 0 LINE",
"550 207 LINE",
"516 207 LINE",
"510 88 OFFCURVE",
"463 42 OFFCURVE",
"379 40 CURVE SMOOTH",
"192 37 LINE",
"195 54 OFFCURVE",
"197 79 OFFCURVE",
"199 115 CURVE SMOOTH",
"212 352 LINE",
"314 427 LINE",
"317 481 LINE",
"215 406 LINE",
"222 544 LINE",
"225 615 OFFCURVE",
"227 664 OFFCURVE",
"297 667 CURVE",
"299 700 LINE"
);
}
);
width = 577;
},
{
layerId = "6B2A2AD0-3CEC-4B3D-96BE-6A11A3496094";
paths = (
{
closed = 1;
nodes = (
"73 700 LINE",
"69 623 LINE",
"83 624 OFFCURVE",
"123 625 OFFCURVE",
"144 626 CURVE",
"141 609 OFFCURVE",
"137 572 OFFCURVE",
"135 536 CURVE SMOOTH",
"125 349 LINE",
"46 292 LINE",
"41 180 LINE",
"120 237 LINE",
"115 153 LINE SMOOTH",
"111 72 OFFCURVE",
"84 68 OFFCURVE",
"40 66 CURVE",
"36 0 LINE",
"567 0 LINE",
"585 240 LINE",
"519 240 LINE",
"513 131 OFFCURVE",
"462 77 OFFCURVE",
"384 76 CURVE SMOOTH",
"250 76 LINE",
"253 93 OFFCURVE",
"256 128 OFFCURVE",
"258 164 CURVE SMOOTH",
"268 344 LINE",
"348 401 LINE",
"354 512 LINE",
"273 454 LINE",
"278 547 LINE SMOOTH",
"282 628 OFFCURVE",
"309 632 OFFCURVE",
"354 634 CURVE",
"357 700 LINE"
);
}
);
width = 606;
}
);
leftKerningGroup = I;
rightKerningGroup = L;
unicode = 0141;
},
{
glyphname = M;
layers = (
{
layerId = UUID0;
paths = (
{
closed = 1;
nodes = (
"444 -10 LINE",
"682 503 LINE",
"717 580 LINE",
"719 580 LINE",
"718 551 OFFCURVE",
"718 523 OFFCURVE",
"718 494 CURVE SMOOTH",
"718 152 LINE SMOOTH",
"718 60 OFFCURVE",
"704 37 OFFCURVE",
"648 33 CURVE",
"646 0 LINE",
"866 0 LINE",
"869 44 LINE",
"844 43 OFFCURVE",
"820 41 OFFCURVE",
"795 40 CURVE",
"796 58 OFFCURVE",
"797 79 OFFCURVE",
"797 103 CURVE SMOOTH",
"794 558 LINE",
"793 640 OFFCURVE",
"818 668 OFFCURVE",
"868 667 CURVE",
"870 700 LINE",
"726 700 LINE",
"663 558 OFFCURVE",
"579 395 OFFCURVE",
"515 251 CURVE SMOOTH",
"499 215 OFFCURVE",
"474 158 OFFCURVE",
"457 122 CURVE",
"455 122 LINE",
"433 179 OFFCURVE",
"412 235 OFFCURVE",
"392 290 CURVE",
"238 700 LINE",
"89 700 LINE",
"87 657 LINE",
"111 658 OFFCURVE",
"135 659 OFFCURVE",
"159 660 CURVE",
"156 632 OFFCURVE",
"153 603 OFFCURVE",
"150 575 CURVE",
"105 125 LINE",
"100 76 OFFCURVE",
"94 34 OFFCURVE",
"32 33 CURVE",
"30 0 LINE",
"220 0 LINE",
"223 44 LINE",
"198 43 OFFCURVE",
"172 41 OFFCURVE",
"147 40 CURVE",
"151 65 OFFCURVE",
"154 95 OFFCURVE",
"157 125 CURVE SMOOTH",
"183 395 LINE SMOOTH",
"188 453 OFFCURVE",
"193 518 OFFCURVE",
"196 593 CURVE",
"198 593 LINE",
"216 531 OFFCURVE",
"223 514 OFFCURVE",
"242 462 CURVE",
"415 -10 LINE"
);
}
);
width = 917;
},
{
layerId = "6B2A2AD0-3CEC-4B3D-96BE-6A11A3496094";
paths = (
{
closed = 1;
nodes = (
"487 -10 LINE",
"669 428 LINE",
"716 542 LINE",
"717 542 LINE",
"717 481 OFFCURVE",
"717 389 OFFCURVE",
"716 365 CURVE SMOOTH",
"713 153 LINE SMOOTH",
"712 72 OFFCURVE",
"683 68 OFFCURVE",
"638 66 CURVE",
"634 0 LINE",
"914 0 LINE",
"918 77 LINE",
"904 77 OFFCURVE",
"864 76 OFFCURVE",
"842 74 CURVE",
"846 91 OFFCURVE",
"851 128 OFFCURVE",
"851 164 CURVE SMOOTH",
"856 547 LINE",
"857 628 OFFCURVE",
"887 632 OFFCURVE",
"932 634 CURVE",
"936 700 LINE",
"703 700 LINE",
"645 562 OFFCURVE",
"588 425 OFFCURVE",
"530 287 CURVE SMOOTH",
"512 244 OFFCURVE",
"494 196 OFFCURVE",
"475 150 CURVE",
"474 150 LINE",
"460 198 OFFCURVE",
"448 250 OFFCURVE",
"426 312 CURVE SMOOTH",
"289 700 LINE",
"75 700 LINE",
"70 623 LINE",
"84 624 OFFCURVE",
"125 625 OFFCURVE",
"146 626 CURVE",
"143 609 OFFCURVE",
"140 572 OFFCURVE",
"137 536 CURVE SMOOTH",
"111 153 LINE",
"105 72 OFFCURVE",
"81 68 OFFCURVE",
"36 66 CURVE",
"32 0 LINE",
"260 0 LINE",
"264 77 LINE",
"250 77 OFFCURVE",
"210 76 OFFCURVE",
"188 74 CURVE",
"191 91 OFFCURVE",
"195 128 OFFCURVE",
"197 164 CURVE SMOOTH",
"208 345 LINE SMOOTH",
"212 405 OFFCURVE",
"213 467 OFFCURVE",
"215 535 CURVE",
"216 535 LINE",
"231 455 OFFCURVE",
"261 356 OFFCURVE",
"275 319 CURVE SMOOTH",
"397 -10 LINE"
);
}
);
width = 970;
}
);
unicode = 004D;
},
{
glyphname = N;
layers = (
{
anchors = (
{
name = bottom;
position = "{368, 0}";
},
{
name = top;
position = "{405, 702}";
}
);
layerId = UUID0;
paths = (
{
closed = 1;
nodes = (
"640 -11 LINE",
"668 544 LINE SMOOTH",
"672 615 OFFCURVE",
"666 664 OFFCURVE",
"741 667 CURVE",
"743 700 LINE",
"559 700 LINE",
"557 656 LINE",
"581 657 OFFCURVE",
"605 659 OFFCURVE",
"629 660 CURVE",
"626 641 OFFCURVE",
"624 617 OFFCURVE",
"622 588 CURVE SMOOTH",
"601 128 LINE",
"599 128 LINE",
"571 168 OFFCURVE",
"543 208 OFFCURVE",
"515 248 CURVE",
"197 700 LINE",
"78 700 LINE",
"76 656 LINE",
"98 657 OFFCURVE",
"121 659 OFFCURVE",
"143 660 CURVE",
"141 626 OFFCURVE",
"140 593 OFFCURVE",
"138 559 CURVE",
"116 112 LINE SMOOTH",
"115 81 OFFCURVE",
"107 33 OFFCURVE",
"46 33 CURVE",
"45 0 LINE",
"228 0 LINE",
"230 44 LINE",
"206 43 OFFCURVE",
"182 41 OFFCURVE",
"158 40 CURVE",
"163 71 OFFCURVE",
"163 105 OFFCURVE",
"165 139 CURVE SMOOTH",
"181 573 LINE",
"183 573 LINE",
"206 540 OFFCURVE",
"229 508 OFFCURVE",
"252 475 CURVE",
"592 -11 LINE"
);
}
);
width = 762;
},
{
anchors = (
{
name = bottom;
position = "{386, 0}";
},
{
name = top;
position = "{410, 700}";
}
);
layerId = "6B2A2AD0-3CEC-4B3D-96BE-6A11A3496094";
paths = (
{
closed = 1;
nodes = (
"651 -10 LINE",
"681 547 LINE SMOOTH",
"685 628 OFFCURVE",
"711 632 OFFCURVE",
"757 634 CURVE",
"760 700 LINE",
"533 700 LINE",
"528 623 LINE",
"542 624 OFFCURVE",
"582 625 OFFCURVE",
"604 626 CURVE",
"601 609 OFFCURVE",
"597 572 OFFCURVE",
"595 536 CURVE SMOOTH",
"579 217 LINE",
"578 217 LINE",
"563 240 OFFCURVE",
"544 270 OFFCURVE",
"513 313 CURVE SMOOTH",
"228 700 LINE",
"71 700 LINE",
"66 623 LINE",
"81 624 OFFCURVE",
"120 625 OFFCURVE",
"142 626 CURVE",
"139 609 OFFCURVE",
"135 572 OFFCURVE",
"133 536 CURVE SMOOTH",
"116 153 LINE",
"111 72 OFFCURVE",
"85 68 OFFCURVE",
"40 66 CURVE",
"36 0 LINE",
"264 0 LINE",
"269 77 LINE",
"254 77 OFFCURVE",
"215 76 OFFCURVE",
"193 74 CURVE",
"196 91 OFFCURVE",
"200 128 OFFCURVE",
"202 164 CURVE SMOOTH",
"216 476 LINE",
"217 476 LINE",
"234 449 OFFCURVE",
"252 423 OFFCURVE",
"268 401 CURVE SMOOTH",
"566 -10 LINE"
);
}
);
width = 772;
}
);
leftKerningGroup = I;
rightKerningGroup = N;
unicode = 004E;
},
{
color = 4;
glyphname = Eng;
layers = (
{
background = {
anchors = (
{
name = top;
position = "{643, 452}";
}
);
paths = (
{
closed = 1;
nodes = (
"595 43 LINE",
"588 -97 LINE SMOOTH",
"582 -216 OFFCURVE",
"545 -225 OFFCURVE",
"522 -226 CURVE SMOOTH",
"511 -226 OFFCURVE",
"495 -221 OFFCURVE",
"489 -210 CURVE",
"492 -204 OFFCURVE",
"493 -194 OFFCURVE",
"493 -187 CURVE SMOOTH",
"493 -167 OFFCURVE",
"479 -141 OFFCURVE",
"446 -143 CURVE SMOOTH",
"418 -145 OFFCURVE",
"402 -168 OFFCURVE",
"402 -195 CURVE SMOOTH",
"402 -248 OFFCURVE",
"455 -266 OFFCURVE",
"503 -266 CURVE SMOOTH",
"596 -266 OFFCURVE",
"632 -194 OFFCURVE",
"640 -6 CURVE SMOOTH",
"642 43 LINE"
);
},
{
closed = 1;
nodes = (
"595 43 LINE",
"588 -97 LINE SMOOTH",
"582 -216 OFFCURVE",
"545 -225 OFFCURVE",
"522 -226 CURVE SMOOTH",
"511 -226 OFFCURVE",
"495 -221 OFFCURVE",
"489 -210 CURVE",
"492 -204 OFFCURVE",
"493 -194 OFFCURVE",
"493 -187 CURVE SMOOTH",
"493 -167 OFFCURVE",
"479 -141 OFFCURVE",
"446 -143 CURVE SMOOTH",
"418 -145 OFFCURVE",
"402 -168 OFFCURVE",
"402 -195 CURVE SMOOTH",
"402 -248 OFFCURVE",
"455 -266 OFFCURVE",
"503 -266 CURVE SMOOTH",
"596 -266 OFFCURVE",
"632 -194 OFFCURVE",
"640 -6 CURVE SMOOTH",
"642 43 LINE"
);
}
);
};
components = (
{
name = N;
}
);
guideLines = (
{
angle = 90;
position = "{613, 305}";
},
{
angle = 90;
position = "{661, 305}";
}
);
layerId = UUID0;
paths = (
{
closed = 1;
nodes = (
"595 43 LINE",
"588 -87 LINE SMOOTH",
"583 -186 OFFCURVE",
"529 -226 OFFCURVE",
"482 -226 CURVE SMOOTH",
"471 -226 OFFCURVE",
"455 -221 OFFCURVE",
"449 -210 CURVE",
"452 -204 OFFCURVE",
"453 -194 OFFCURVE",
"453 -187 CURVE SMOOTH",
"453 -167 OFFCURVE",
"439 -141 OFFCURVE",
"406 -143 CURVE SMOOTH",
"378 -145 OFFCURVE",
"362 -168 OFFCURVE",
"362 -195 CURVE SMOOTH",
"362 -238 OFFCURVE",
"406 -266 OFFCURVE",
"473 -266 CURVE SMOOTH",
"573 -266 OFFCURVE",
"629 -204 OFFCURVE",
"639 -16 CURVE SMOOTH",
"642 43 LINE"
);
}
);
width = 762;
},
{
background = {
anchors = (
{
name = top;
position = "{696, 450}";
}
);
paths = (
{
closed = 1;
nodes = (
"572 88 LINE",
"562 -115 LINE SMOOTH",
"559 -171 OFFCURVE",
"543 -194 OFFCURVE",
"514 -194 CURVE SMOOTH",
"507 -194 OFFCURVE",
"490 -191 OFFCURVE",
"485 -178 CURVE",
"491 -166 OFFCURVE",
"495 -152 OFFCURVE",
"495 -141 CURVE SMOOTH",
"495 -107 OFFCURVE",
"477 -73 OFFCURVE",
"427 -76 CURVE SMOOTH",
"382 -79 OFFCURVE",
"356 -117 OFFCURVE",
"354 -159 CURVE SMOOTH",
"351 -221 OFFCURVE",
"412 -266 OFFCURVE",
"490 -266 CURVE SMOOTH",
"589 -266 OFFCURVE",
"645 -188 OFFCURVE",
"652 4 CURVE SMOOTH",
"656 88 LINE"
);
}
);
};
components = (
{
name = N;
}
);
guideLines = (
{
angle = 90;
position = "{582, 512}";
}
);
layerId = "6B2A2AD0-3CEC-4B3D-96BE-6A11A3496094";
paths = (
{
closed = 1;
nodes = (
"572 88 LINE",
"562 -115 LINE SMOOTH",
"557 -171 OFFCURVE",
"531 -194 OFFCURVE",
"484 -194 CURVE SMOOTH",
"464 -194 OFFCURVE",
"448 -191 OFFCURVE",
"445 -178 CURVE",
"451 -166 OFFCURVE",
"455 -152 OFFCURVE",
"455 -141 CURVE SMOOTH",
"455 -107 OFFCURVE",
"437 -73 OFFCURVE",
"387 -76 CURVE SMOOTH",
"342 -79 OFFCURVE",
"321 -109 OFFCURVE",
"319 -151 CURVE SMOOTH",
"316 -213 OFFCURVE",
"376 -266 OFFCURVE",
"460 -266 CURVE SMOOTH",
"577 -266 OFFCURVE",
"644 -188 OFFCURVE",
"652 4 CURVE SMOOTH",
"656 88 LINE"
);
}
);
width = 772;
}
);
leftMetricsKey = N;
rightMetricsKey = N;
unicode = 014A;
},
{
glyphname = O;
layers = (
{
anchors = (
{
name = bottom;
position = "{381, 0}";
},
{
name = center;
position = "{399, 350}";
},
{
name = ogonek;
position = "{696, 5}";
},
{
name = top;
position = "{417, 702}";
},
{
name = topleft;
position = "{33, 700}";
},
{
name = topright;
position = "{612, 700}";
}
);
layerId = UUID0;
paths = (
{
closed = 1;
nodes = (
"191 716 OFFCURVE",
"49 533 OFFCURVE",
"49 327 CURVE SMOOTH",
"49 165 OFFCURVE",
"147 -16 OFFCURVE",
"382 -16 CURVE SMOOTH",
"627 -16 OFFCURVE",
"746 199 OFFCURVE",
"746 369 CURVE SMOOTH",
"746 532 OFFCURVE",
"648 716 OFFCURVE",
"413 716 CURVE SMOOTH"
);
},
{
closed = 1;
nodes = (
"567 676 OFFCURVE",
"650 510 OFFCURVE",
"650 353 CURVE SMOOTH",
"650 200 OFFCURVE",
"559 25 OFFCURVE",
"387 25 CURVE SMOOTH",
"208 25 OFFCURVE",
"143 213 OFFCURVE",
"145 349 CURVE SMOOTH",
"146 503 OFFCURVE",
"241 676 OFFCURVE",
"408 676 CURVE SMOOTH"
);
}
);
width = 788;
},
{
anchors = (
{
name = bottom;
position = "{368, 0}";
},
{
name = center;
position = "{386, 350}";
},
{
name = ogonek;
position = "{672, 5}";
},
{
name = top;
position = "{399, 700}";
},
{
name = topleft;
position = "{33, 700}";
},
{
name = topright;
position = "{604, 700}";
}
);
layerId = "6B2A2AD0-3CEC-4B3D-96BE-6A11A3496094";
paths = (
{
closed = 1;
nodes = (
"169 716 OFFCURVE",
"48 518 OFFCURVE",
"40 350 CURVE SMOOTH",
"30 176 OFFCURVE",
"111 -16 OFFCURVE",
"365 -16 CURVE SMOOTH",
"601 -16 OFFCURVE",
"721 185 OFFCURVE",
"730 350 CURVE SMOOTH",
"738 517 OFFCURVE",
"649 716 OFFCURVE",
"406 716 CURVE SMOOTH"
);
},
{
closed = 1;
nodes = (
"528 651 OFFCURVE",
"585 516 OFFCURVE",
"576 333 CURVE SMOOTH",
"570 210 OFFCURVE",
"517 53 OFFCURVE",
"379 52 CURVE SMOOTH",
"228 51 OFFCURVE",
"187 237 OFFCURVE",
"194 362 CURVE SMOOTH",
"200 485 OFFCURVE",
"252 645 OFFCURVE",
"389 648 CURVE SMOOTH"
);
}
);
width = 762;
}
);
leftKerningGroup = O;
rightKerningGroup = O;
unicode = 004F;
},
{
glyphname = Oslash;
layers = (
{
anchors = (
{
name = bottom;
position = "{381, 0}";
},
{
name = top;
position = "{417, 700}";
}
);
layerId = UUID0;
paths = (
{
closed = 1;
nodes = (
"228 16 LINE",
"271 -4 OFFCURVE",
"321 -16 OFFCURVE",
"381 -16 CURVE SMOOTH",
"626 -16 OFFCURVE",
"745 199 OFFCURVE",
"745 369 CURVE SMOOTH",
"745 467 OFFCURVE",
"709 572 OFFCURVE",
"630 641 CURVE",
"682 721 LINE",
"632 755 LINE",
"582 675 LINE",
"536 701 OFFCURVE",
"479 716 OFFCURVE",
"412 716 CURVE SMOOTH",
"190 716 OFFCURVE",
"48 533 OFFCURVE",
"48 327 CURVE SMOOTH",
"48 222 OFFCURVE",
"89 109 OFFCURVE",
"182 42 CURVE",
"124 -50 LINE",
"168 -77 LINE"
);
},
{
closed = 1;
nodes = (
"165 170 OFFCURVE",
"142 269 OFFCURVE",
"144 349 CURVE",
"146 503 OFFCURVE",
"240 676 OFFCURVE",
"407 676 CURVE SMOOTH",
"463 676 OFFCURVE",
"510 655 OFFCURVE",
"547 621 CURVE",
"220 103 LINE"
);
},
{
closed = 1;
nodes = (
"335 25 OFFCURVE",
"293 40 OFFCURVE",
"259 65 CURVE",
"587 574 LINE",
"628 513 OFFCURVE",
"649 432 OFFCURVE",
"649 353 CURVE SMOOTH",
"649 200 OFFCURVE",
"558 25 OFFCURVE",
"386 25 CURVE SMOOTH"
);
}
);
width = 787;
},
{
anchors = (
{
name = bottom;
position = "{368, 0}";
},
{
name = top;
position = "{405, 700}";
}
);
layerId = "6B2A2AD0-3CEC-4B3D-96BE-6A11A3496094";
paths = (
{
closed = 1;
nodes = (
"229 7 LINE",
"267 -8 OFFCURVE",
"312 -16 OFFCURVE",
"365 -16 CURVE SMOOTH",
"601 -16 OFFCURVE",
"721 185 OFFCURVE",
"730 350 CURVE SMOOTH",
"735 449 OFFCURVE",
"706 560 OFFCURVE",
"630 633 CURVE",
"694 734 LINE",
"618 783 LINE",
"555 685 LINE",
"514 705 OFFCURVE",
"464 716 OFFCURVE",
"406 716 CURVE SMOOTH",
"169 716 OFFCURVE",
"48 518 OFFCURVE",
"40 350 CURVE SMOOTH",
"34 239 OFFCURVE",
"64 122 OFFCURVE",
"152 50 CURVE",
"87 -52 LINE",
"159 -102 LINE"
);
},
{
closed = 1;
nodes = (
"198 226 OFFCURVE",
"190 301 OFFCURVE",
"194 362 CURVE SMOOTH",
"200 485 OFFCURVE",
"252 645 OFFCURVE",
"389 648 CURVE SMOOTH",
"437 649 OFFCURVE",
"476 634 OFFCURVE",
"505 605 CURVE",
"225 165 LINE"
);
},
{
closed = 1;
nodes = (
"338 52 OFFCURVE",
"306 65 OFFCURVE",
"280 86 CURVE",
"556 518 LINE",
"573 467 OFFCURVE",
"580 403 OFFCURVE",
"576 333 CURVE SMOOTH",
"570 210 OFFCURVE",
"517 53 OFFCURVE",
"379 52 CURVE SMOOTH"
);
}
);
width = 761;
}
);
leftKerningGroup = O;
rightKerningGroup = O;
unicode = 00D8;
},
{
glyphname = OE;
layers = (
{
layerId = UUID0;
paths = (
{
closed = 1;
nodes = (
"405 -16 OFFCURVE",
"452 -11 OFFCURVE",
"504 0 CURVE",
"946 0 LINE",
"962 195 LINE",
"928 195 LINE",
"922 76 OFFCURVE",
"864 34 OFFCURVE",
"777 37 CURVE SMOOTH",
"585 43 LINE",
"588 60 OFFCURVE",
"591 85 OFFCURVE",
"592 121 CURVE",
"604 343 LINE",
"626 346 OFFCURVE",
"655 347 OFFCURVE",
"678 347 CURVE SMOOTH",
"762 347 OFFCURVE",
"796 347 OFFCURVE",
"792 259 CURVE",
"826 259 LINE",
"836 477 LINE",
"803 477 LINE",
"799 389 OFFCURVE",
"765 383 OFFCURVE",
"681 383 CURVE SMOOTH",
"606 383 LINE",
"615 544 LINE SMOOTH",
"620 625 OFFCURVE",
"623 661 OFFCURVE",
"697 663 CURVE SMOOTH",
"783 665 LINE SMOOTH",
"858 667 OFFCURVE",
"917 643 OFFCURVE",
"912 525 CURVE",
"944 525 LINE",
"948 700 LINE",
"542 700 LINE",
"499 708 OFFCURVE",
"451 717 OFFCURVE",
"412 716 CURVE SMOOTH",
"177 710 OFFCURVE",
"59 517 OFFCURVE",
"49 329 CURVE SMOOTH",
"39 130 OFFCURVE",
"163 -16 OFFCURVE",
"366 -16 CURVE SMOOTH"
);
},
{
closed = 1;
nodes = (
"227 31 OFFCURVE",
"134 155 OFFCURVE",
"143 344 CURVE SMOOTH",
"151 550 OFFCURVE",
"273 674 OFFCURVE",
"416 674 CURVE SMOOTH",
"454 674 OFFCURVE",
"501 666 OFFCURVE",
"539 651 CURVE",
"537 616 OFFCURVE",
"535 580 OFFCURVE",
"533 545 CURVE",
"507 47 LINE",
"466 36 OFFCURVE",
"435 31 OFFCURVE",
"398 31 CURVE SMOOTH"
);
}
);
width = 1012;
},
{
layerId = "6B2A2AD0-3CEC-4B3D-96BE-6A11A3496094";
paths = (
{
closed = 1;
nodes = (
"406 -17 OFFCURVE",
"458 -14 OFFCURVE",
"507 0 CURVE",
"952 0 LINE",
"970 220 LINE",
"904 220 LINE",
"898 112 OFFCURVE",
"833 76 OFFCURVE",
"774 76 CURVE SMOOTH",
"640 76 LINE",
"644 93 OFFCURVE",
"647 128 OFFCURVE",
"649 164 CURVE SMOOTH",
"657 328 LINE",
"666 328 OFFCURVE",
"675 329 OFFCURVE",
"684 329 CURVE SMOOTH",
"738 330 OFFCURVE",
"782 325 OFFCURVE",
"777 241 CURVE",
"843 241 LINE",
"856 484 LINE",
"779 484 LINE",
"779 459 OFFCURVE",
"778 425 OFFCURVE",
"779 397 CURVE",
"661 397 LINE",
"669 547 LINE SMOOTH",
"673 625 OFFCURVE",
"698 633 OFFCURVE",
"740 634 CURVE SMOOTH",
"776 635 LINE SMOOTH",
"831 637 OFFCURVE",
"897 615 OFFCURVE",
"891 506 CURVE",
"957 506 LINE",
"961 700 LINE",
"543 700 LINE",
"502 711 OFFCURVE",
"448 716 OFFCURVE",
"416 716 CURVE SMOOTH",
"161 716 OFFCURVE",
"48 520 OFFCURVE",
"39 337 CURVE SMOOTH",
"28 139 OFFCURVE",
"157 -13 OFFCURVE",
"362 -16 CURVE SMOOTH"
);
},
{
closed = 1;
nodes = (
"257 75 OFFCURVE",
"185 192 OFFCURVE",
"194 365 CURVE SMOOTH",
"201 509 OFFCURVE",
"266 638 OFFCURVE",
"411 644 CURVE SMOOTH",
"457 646 OFFCURVE",
"500 636 OFFCURVE",
"533 615 CURVE",
"530 596 OFFCURVE",
"527 566 OFFCURVE",
"526 536 CURVE SMOOTH",
"502 78 LINE",
"468 66 OFFCURVE",
"433 61 OFFCURVE",
"391 64 CURVE SMOOTH"
);
}
);
width = 1015;
}
);
leftKerningGroup = O;
rightKerningGroup = E;
unicode = 0152;
},
{
glyphname = P;
layers = (
{
layerId = UUID0;
paths = (
{
closed = 1;
nodes = (
"219 702 OFFCURVE",
"148 701 OFFCURVE",
"78 700 CURVE",
"75 656 LINE",
"99 657 OFFCURVE",
"124 659 OFFCURVE",
"148 660 CURVE",
"145 640 OFFCURVE",
"143 615 OFFCURVE",
"141 588 CURVE SMOOTH",
"118 156 LINE",
"115 85 OFFCURVE",
"118 36 OFFCURVE",
"43 33 CURVE",
"41 0 LINE",
"282 0 LINE",
"284 45 LINE",
"253 43 OFFCURVE",
"223 42 OFFCURVE",
"192 40 CURVE",
"195 57 OFFCURVE",
"197 83 OFFCURVE",
"199 119 CURVE SMOOTH",
"207 264 LINE",
"220 263 OFFCURVE",
"239 263 OFFCURVE",
"246 263 CURVE SMOOTH",
"520 263 OFFCURVE",
"584 402 OFFCURVE",
"585 506 CURVE",
"585 634 OFFCURVE",
"490 702 OFFCURVE",
"297 702 CURVE SMOOTH"
);
},
{
closed = 1;
nodes = (
"415 663 OFFCURVE",
"497 615 OFFCURVE",
"491 489 CURVE SMOOTH",
"485 372 OFFCURVE",
"388 303 OFFCURVE",
"274 303 CURVE SMOOTH",
"250 303 OFFCURVE",
"234 303 OFFCURVE",
"209 306 CURVE",
"222 549 LINE",
"225 620 OFFCURVE",
"230 663 OFFCURVE",
"293 663 CURVE SMOOTH"
);
}
);
width = 597;
},
{
layerId = "6B2A2AD0-3CEC-4B3D-96BE-6A11A3496094";
paths = (
{
closed = 1;
nodes = (
"260 701 OFFCURVE",
"166 701 OFFCURVE",
"72 700 CURVE",
"68 623 LINE",
"82 624 OFFCURVE",
"122 625 OFFCURVE",
"143 626 CURVE",
"140 609 OFFCURVE",
"136 572 OFFCURVE",
"134 536 CURVE SMOOTH",
"114 153 LINE SMOOTH",
"110 72 OFFCURVE",
"83 68 OFFCURVE",
"39 66 CURVE",
"35 0 LINE",
"330 0 LINE",
"333 77 LINE",
"319 77 OFFCURVE",
"270 76 OFFCURVE",
"249 74 CURVE",
"252 91 OFFCURVE",
"255 128 OFFCURVE",
"257 165 CURVE SMOOTH",
"262 253 LINE",
"285 252 OFFCURVE",
"304 252 OFFCURVE",
"334 253 CURVE SMOOTH",
"524 259 OFFCURVE",
"618 368 OFFCURVE",
"627 475 CURVE SMOOTH",
"640 634 OFFCURVE",
"529 703 OFFCURVE",
"354 702 CURVE SMOOTH"
);
},
{
closed = 1;
nodes = (
"399 632 OFFCURVE",
"482 618 OFFCURVE",
"476 484 CURVE SMOOTH",
"470 382 OFFCURVE",
"421 325 OFFCURVE",
"311 325 CURVE SMOOTH",
"295 325 OFFCURVE",
"280 326 OFFCURVE",
"266 328 CURVE",
"277 553 LINE SMOOTH",
"281 623 OFFCURVE",
"307 632 OFFCURVE",
"349 632 CURVE SMOOTH"
);
}
);
width = 632;
}
);
leftKerningGroup = I;
unicode = 0050;
},
{
glyphname = Thorn;
layers = (
{
layerId = UUID0;
paths = (
{
closed = 1;
nodes = (
"262 0 LINE",
"264 44 LINE",
"240 43 OFFCURVE",
"216 41 OFFCURVE",
"192 40 CURVE",
"196 59 OFFCURVE",
"197 68 OFFCURVE",
"201 159 CURVE",
"206 159 OFFCURVE",
"212 159 OFFCURVE",
"217 159 CURVE SMOOTH",
"491 159 OFFCURVE",
"559 298 OFFCURVE",
"559 392 CURVE SMOOTH",
"559 508 OFFCURVE",
"468 578 OFFCURVE",
"275 578 CURVE SMOOTH",
"259 578 OFFCURVE",
"241 578 OFFCURVE",
"223 577 CURVE",
"227 633 OFFCURVE",
"235 664 OFFCURVE",
"297 667 CURVE",
"299 700 LINE",
"78 700 LINE",
"76 656 LINE",
"100 657 OFFCURVE",
"124 659 OFFCURVE",
"148 660 CURVE",
"145 640 OFFCURVE",
"143 615 OFFCURVE",
"141 588 CURVE SMOOTH",
"118 156 LINE",
"115 85 OFFCURVE",
"118 36 OFFCURVE",
"43 33 CURVE",
"41 0 LINE"
);
},
{
closed = 1;
nodes = (
"221 538 LINE",
"244 539 OFFCURVE",
"262 539 OFFCURVE",
"267 539 CURVE SMOOTH",
"389 539 OFFCURVE",
"472 491 OFFCURVE",
"465 375 CURVE SMOOTH",
"459 268 OFFCURVE",
"374 199 OFFCURVE",
"248 198 CURVE SMOOTH",
"231 198 OFFCURVE",
"218 197 OFFCURVE",
"203 198 CURVE"
);
}
);
width = 577;
},
{
layerId = "6B2A2AD0-3CEC-4B3D-96BE-6A11A3496094";
paths = (
{
closed = 1;
nodes = (
"320 0 LINE",
"324 77 LINE",
"310 77 OFFCURVE",
"270 76 OFFCURVE",
"249 74 CURVE",
"251 89 OFFCURVE",
"254 120 OFFCURVE",
"256 152 CURVE",
"276 151 OFFCURVE",
"293 151 OFFCURVE",
"321 152 CURVE SMOOTH",
"510 157 OFFCURVE",
"609 252 OFFCURVE",
"618 359 CURVE SMOOTH",
"630 518 OFFCURVE",
"514 573 OFFCURVE",
"339 571 CURVE SMOOTH",
"319 571 OFFCURVE",
"299 570 OFFCURVE",
"279 570 CURVE",
"287 628 OFFCURVE",
"313 632 OFFCURVE",
"353 634 CURVE",
"356 700 LINE",
"72 700 LINE",
"68 623 LINE",
"82 624 OFFCURVE",
"122 625 OFFCURVE",
"143 626 CURVE",
"140 609 OFFCURVE",
"136 572 OFFCURVE",
"134 536 CURVE SMOOTH",
"114 153 LINE SMOOTH",
"110 72 OFFCURVE",
"83 68 OFFCURVE",
"39 66 CURVE",
"35 0 LINE"
);
},
{
closed = 1;
nodes = (
"275 500 LINE",
"291 500 OFFCURVE",
"310 500 OFFCURVE",
"333 500 CURVE SMOOTH",
"375 500 OFFCURVE",
"471 497 OFFCURVE",
"464 368 CURVE SMOOTH",
"459 271 OFFCURVE",
"407 223 OFFCURVE",
"297 223 CURVE SMOOTH",
"284 223 OFFCURVE",
"272 224 OFFCURVE",
"260 225 CURVE"
);
}
);
width = 630;
}
);
leftKerningGroup = I;
unicode = 00DE;
},
{
glyphname = Q;
layers = (
{
layerId = UUID0;
paths = (
{
closed = 1;
nodes = (
"191 716 OFFCURVE",
"49 533 OFFCURVE",
"49 327 CURVE SMOOTH",
"49 165 OFFCURVE",
"147 -16 OFFCURVE",
"382 -16 CURVE SMOOTH",
"461 -16 OFFCURVE",
"485 -72 OFFCURVE",
"585 -162 CURVE SMOOTH",
"647 -218 OFFCURVE",
"676 -218 OFFCURVE",
"748 -218 CURVE SMOOTH",
"780 -218 LINE",
"780 -185 LINE",
"744 -185 OFFCURVE",
"733 -175 OFFCURVE",
"620 -71 CURVE SMOOTH",
"556 -12 OFFCURVE",
"519 -8 OFFCURVE",
"463 -8 CURVE",
"463 -7 LINE",
"653 34 OFFCURVE",
"746 219 OFFCURVE",
"746 369 CURVE SMOOTH",
"746 532 OFFCURVE",
"648 716 OFFCURVE",
"413 716 CURVE SMOOTH"
);
},
{
closed = 1;
nodes = (
"567 676 OFFCURVE",
"650 510 OFFCURVE",
"650 353 CURVE SMOOTH",
"650 200 OFFCURVE",
"559 25 OFFCURVE",
"387 25 CURVE SMOOTH",
"208 25 OFFCURVE",
"143 213 OFFCURVE",
"145 349 CURVE SMOOTH",
"146 503 OFFCURVE",
"241 676 OFFCURVE",
"408 676 CURVE SMOOTH"
);
}
);
width = 788;
},
{
layerId = "6B2A2AD0-3CEC-4B3D-96BE-6A11A3496094";
paths = (
{
closed = 1;
nodes = (
"170 716 OFFCURVE",
"48 518 OFFCURVE",
"39 350 CURVE SMOOTH",
"30 178 OFFCURVE",
"109 -16 OFFCURVE",
"355 -16 CURVE SMOOTH",
"438 -16 OFFCURVE",
"471 -89 OFFCURVE",
"552 -164 CURVE SMOOTH",
"606 -213 OFFCURVE",
"629 -218 OFFCURVE",
"722 -218 CURVE SMOOTH",
"763 -218 LINE",
"767 -151 LINE",
"724 -151 OFFCURVE",
"719 -137 OFFCURVE",
"630 -51 CURVE SMOOTH",
"581 -2 OFFCURVE",
"548 5 OFFCURVE",
"491 5 CURVE",
"491 6 LINE",
"645 63 OFFCURVE",
"725 217 OFFCURVE",
"732 350 CURVE SMOOTH",
"741 517 OFFCURVE",
"650 716 OFFCURVE",
"407 716 CURVE SMOOTH"
);
},
{
closed = 1;
nodes = (
"529 646 OFFCURVE",
"586 516 OFFCURVE",
"576 333 CURVE SMOOTH",
"570 210 OFFCURVE",
"518 58 OFFCURVE",
"379 57 CURVE SMOOTH",
"228 56 OFFCURVE",
"188 237 OFFCURVE",
"194 362 CURVE SMOOTH",
"201 485 OFFCURVE",
"252 640 OFFCURVE",
"390 643 CURVE SMOOTH"
);
}
);
width = 764;
}
);
leftKerningGroup = O;
unicode = 0051;
},
{
glyphname = R;
layers = (
{
anchors = (
{
name = bottom;
position = "{312, 0}";
},
{
name = top;
position = "{323, 702}";
}
);
layerId = UUID0;
paths = (
{
closed = 1;
nodes = (
"226 703 OFFCURVE",
"153 701 OFFCURVE",
"78 700 CURVE",
"75 656 LINE",
"99 657 OFFCURVE",
"124 659 OFFCURVE",
"148 660 CURVE",
"145 640 OFFCURVE",
"142 615 OFFCURVE",
"141 588 CURVE",
"118 156 LINE",
"115 85 OFFCURVE",
"118 36 OFFCURVE",
"43 33 CURVE",
"41 0 LINE",
"262 0 LINE",
"264 44 LINE",
"240 43 OFFCURVE",
"216 41 OFFCURVE",
"192 40 CURVE",
"195 57 OFFCURVE",
"197 83 OFFCURVE",
"199 119 CURVE SMOOTH",
"209 313 LINE",
"215 313 OFFCURVE",
"263 311 OFFCURVE",
"282 313 CURVE",
"308 287 OFFCURVE",
"328 247 OFFCURVE",
"344 218 CURVE SMOOTH",
"405 111 LINE",
"431 67 OFFCURVE",
"458 25 OFFCURVE",
"488 0 CURVE",
"610 0 LINE",
"612 33 LINE",
"549 33 OFFCURVE",
"526 74 OFFCURVE",
"495 128 CURVE SMOOTH",
"433 235 LINE SMOOTH",
"400 291 OFFCURVE",
"410 274 OFFCURVE",
"367 322 CURVE",
"520 353 OFFCURVE",
"557 443 OFFCURVE",
"561 519 CURVE",
"567 625 OFFCURVE",
"496 699 OFFCURVE",
"303 702 CURVE SMOOTH"
);
},
{
closed = 1;
nodes = (
"420 664 OFFCURVE",
"473 612 OFFCURVE",
"468 511 CURVE SMOOTH",
"462 396 OFFCURVE",
"383 354 OFFCURVE",
"273 350 CURVE SMOOTH",
"250 349 OFFCURVE",
"232 350 OFFCURVE",
"211 352 CURVE",
"222 549 LINE",
"225 620 OFFCURVE",
"227 664 OFFCURVE",
"297 664 CURVE SMOOTH"
);
}
);
width = 625;
},
{
anchors = (
{
name = bottom;
position = "{340, 0}";
},
{
name = top;
position = "{353, 704}";
}
);
layerId = "6B2A2AD0-3CEC-4B3D-96BE-6A11A3496094";
paths = (
{
closed = 1;
nodes = (
"260 701 OFFCURVE",
"166 701 OFFCURVE",
"72 700 CURVE",
"68 623 LINE",
"82 624 OFFCURVE",
"122 625 OFFCURVE",
"143 626 CURVE",
"140 609 OFFCURVE",
"136 572 OFFCURVE",
"134 536 CURVE SMOOTH",
"114 153 LINE SMOOTH",
"110 72 OFFCURVE",
"83 68 OFFCURVE",
"39 66 CURVE",
"35 0 LINE",
"330 0 LINE",
"333 77 LINE",
"319 77 OFFCURVE",
"270 76 OFFCURVE",
"249 74 CURVE",
"252 91 OFFCURVE",
"255 128 OFFCURVE",
"257 165 CURVE SMOOTH",
"263 272 LINE",
"282 272 OFFCURVE",
"294 272 OFFCURVE",
"315 272 CURVE",
"327 258 OFFCURVE",
"339 241 OFFCURVE",
"354 214 CURVE SMOOTH",
"421 94 LINE SMOOTH",
"445 51 OFFCURVE",
"467 17 OFFCURVE",
"490 0 CURVE",
"652 0 LINE",
"656 66 LINE",
"611 68 OFFCURVE",
"590 92 OFFCURVE",
"549 160 CURVE SMOOTH",
"506 230 LINE SMOOTH",
"489 257 OFFCURVE",
"464 283 OFFCURVE",
"440 294 CURVE",
"558 327 OFFCURVE",
"619 402 OFFCURVE",
"625 487 CURVE SMOOTH",
"638 646 OFFCURVE",
"529 703 OFFCURVE",
"354 702 CURVE SMOOTH"
);
},
{
closed = 1;
nodes = (
"390 632 OFFCURVE",
"485 623 OFFCURVE",
"478 495 CURVE SMOOTH",
"473 393 OFFCURVE",
"426 344 OFFCURVE",
"315 344 CURVE SMOOTH",
"298 344 OFFCURVE",
"282 346 OFFCURVE",
"267 348 CURVE",
"277 553 LINE SMOOTH",
"281 623 OFFCURVE",
"307 632 OFFCURVE",
"349 632 CURVE SMOOTH"
);
}
);
width = 681;
}
);
leftKerningGroup = I;
rightKerningGroup = R;
unicode = 0052;
},
{
glyphname = S;
layers = (
{
anchors = (
{
name = bottom;
position = "{292, 0}";
},
{
name = top;
position = "{317, 702}";
}
);
layerId = UUID0;
paths = (
{
closed = 1;
nodes = (
"420 -16 OFFCURVE",
"510 62 OFFCURVE",
"515 173 CURVE",
"522 309 OFFCURVE",
"399 355 OFFCURVE",
"294 405 CURVE SMOOTH",
"216 441 OFFCURVE",
"148 480 OFFCURVE",
"152 558 CURVE SMOOTH",
"155 621 OFFCURVE",
"205 676 OFFCURVE",
"288 676 CURVE SMOOTH",
"405 676 OFFCURVE",
"456 584 OFFCURVE",
"457 488 CURVE",
"493 488 LINE",
"504 708 LINE",
"453 708 LINE",
"455 665 LINE",
"402 705 OFFCURVE",
"335 716 OFFCURVE",
"284 716 CURVE SMOOTH",
"122 716 OFFCURVE",
"76 607 OFFCURVE",
"72 539 CURVE SMOOTH",
"66 424 OFFCURVE",
"157 376 OFFCURVE",
"250 333 CURVE SMOOTH",
"343 289 OFFCURVE",
"436 250 OFFCURVE",
"431 150 CURVE SMOOTH",
"427 69 OFFCURVE",
"356 26 OFFCURVE",
"278 26 CURVE SMOOTH",
"172 26 OFFCURVE",
"92 82 OFFCURVE",
"91 205 CURVE",
"52 205 LINE",
"47 -8 LINE",
"99 -8 LINE",
"96 27 LINE",
"146 -7 OFFCURVE",
"220 -16 OFFCURVE",
"271 -16 CURVE SMOOTH"
);
}
);
width = 566;
},
{
anchors = (
{
name = bottom;
position = "{332, 0}";
},
{
name = top;
position = "{331, 700}";
}
);
layerId = "6B2A2AD0-3CEC-4B3D-96BE-6A11A3496094";
paths = (
{
closed = 1;
nodes = (
"446 -16 OFFCURVE",
"552 67 OFFCURVE",
"559 186 CURVE SMOOTH",
"565 316 OFFCURVE",
"440 376 OFFCURVE",
"342 417 CURVE SMOOTH",
"234 461 OFFCURVE",
"185 496 OFFCURVE",
"188 558 CURVE SMOOTH",
"190 608 OFFCURVE",
"243 644 OFFCURVE",
"300 644 CURVE SMOOTH",
"393 645 OFFCURVE",
"452 587 OFFCURVE",
"464 476 CURVE",
"530 476 LINE",
"542 709 LINE",
"465 709 LINE",
"465 668 LINE",
"423 700 OFFCURVE",
"353 716 OFFCURVE",
"300 716 CURVE SMOOTH",
"123 716 OFFCURVE",
"61 608 OFFCURVE",
"56 525 CURVE SMOOTH",
"49 394 OFFCURVE",
"143 332 OFFCURVE",
"270 280 CURVE SMOOTH",
"343 250 OFFCURVE",
"427 220 OFFCURVE",
"423 150 CURVE SMOOTH",
"421 99 OFFCURVE",
"369 56 OFFCURVE",
"298 56 CURVE SMOOTH",
"205 56 OFFCURVE",
"134 113 OFFCURVE",
"122 225 CURVE",
"56 225 LINE",
"44 -9 LINE",
"121 -9 LINE",
"121 33 LINE",
"172 1 OFFCURVE",
"239 -16 OFFCURVE",
"291 -16 CURVE SMOOTH"
);
}
);
width = 600;
}
);
leftKerningGroup = S;
rightKerningGroup = S;
unicode = 0053;
},
{
color = 4;
glyphname = Germandbls;
layers = (
{
layerId = UUID0;
paths = (
{
closed = 1;
nodes = (
"502 -16 OFFCURVE",
"613 57 OFFCURVE",
"621 200 CURVE SMOOTH",
"627 315 OFFCURVE",
"556 404 OFFCURVE",
"406 409 CURVE",
"622 665 LINE",
"623 700 LINE",
"357 700 LINE SMOOTH",
"182 700 OFFCURVE",
"119 579 OFFCURVE",
"113 450 CURVE SMOOTH",
"98 152 LINE SMOOTH",
"94 80 OFFCURVE",
"94 30 OFFCURVE",
"33 30 CURVE",
"31 0 LINE",
"172 0 LINE",
"179 63 OFFCURVE",
"180 79 OFFCURVE",
"182 106 CURVE",
"200 468 LINE SMOOTH",
"206 587 OFFCURVE",
"255 658 OFFCURVE",
"355 660 CURVE SMOOTH",
"554 663 LINE",
"514 639 OFFCURVE",
"490 615 OFFCURVE",
"463 583 CURVE SMOOTH",
"317 409 LINE",
"314 367 LINE",
"339 368 LINE",
"469 362 OFFCURVE",
"527 310 OFFCURVE",
"522 202 CURVE SMOOTH",
"516 89 OFFCURVE",
"448 32 OFFCURVE",
"367 32 CURVE SMOOTH",
"329 32 OFFCURVE",
"286 45 OFFCURVE",
"261 67 CURVE",
"233 46 LINE",
"273 4 OFFCURVE",
"328 -16 OFFCURVE",
"388 -16 CURVE SMOOTH"
);
}
);
width = 669;
},
{
guideLines = (
{
angle = 90;
position = "{375, 721}";
}
);
layerId = "6B2A2AD0-3CEC-4B3D-96BE-6A11A3496094";
paths = (
{
closed = 1;
nodes = (
"555 -19 OFFCURVE",
"697 66 OFFCURVE",
"704 213 CURVE SMOOTH",
"709 312 OFFCURVE",
"639 423 OFFCURVE",
"508 418 CURVE",
"685 625 LINE",
"689 700 LINE",
"404 700 LINE SMOOTH",
"254 700 OFFCURVE",
"117 635 OFFCURVE",
"107 430 CURVE SMOOTH",
"92 154 LINE SMOOTH",
"89 101 OFFCURVE",
"83 65 OFFCURVE",
"27 65 CURVE",
"24 0 LINE",
"222 0 LINE",
"227 30 OFFCURVE",
"234 144 OFFCURVE",
"235 163 CURVE SMOOTH",
"249 437 LINE SMOOTH",
"256 576 OFFCURVE",
"316 636 OFFCURVE",
"400 634 CURVE SMOOTH",
"544 630 LINE",
"514 601 OFFCURVE",
"487 572 OFFCURVE",
"457 532 CURVE SMOOTH",
"350 393 LINE",
"348 358 LINE",
"415 358 LINE SMOOTH",
"508 358 OFFCURVE",
"551 303 OFFCURVE",
"547 218 CURVE SMOOTH",
"541 105 OFFCURVE",
"480 65 OFFCURVE",
"422 65 CURVE SMOOTH",
"383 65 OFFCURVE",
"348 75 OFFCURVE",
"318 106 CURVE",
"266 64 LINE",
"313 8 OFFCURVE",
"361 -16 OFFCURVE",
"430 -16 CURVE SMOOTH"
);
}
);
width = 731;
}
);
unicode = 1E9E;
},
{
glyphname = T;
layers = (
{
anchors = (
{
name = bottom;
position = "{320, 0}";
},
{
name = center;
position = "{327, 351}";
},
{
name = top;
position = "{354, 702}";
}
);
layerId = UUID0;
paths = (
{
closed = 1;
nodes = (
"53 700 LINE",
"36 489 LINE",
"73 489 LINE",
"79 607 OFFCURVE",
"113 662 OFFCURVE",
"197 662 CURVE SMOOTH",
"300 663 LINE",
"269 156 LINE SMOOTH",
"265 88 OFFCURVE",
"260 36 OFFCURVE",
"195 33 CURVE",
"193 0 LINE",
"424 0 LINE",
"426 44 LINE",
"398 43 OFFCURVE",
"371 41 OFFCURVE",
"343 40 CURVE",
"346 57 OFFCURVE",
"348 83 OFFCURVE",
"350 119 CURVE SMOOTH",
"383 663 LINE",
"468 664 LINE SMOOTH",
"571 665 OFFCURVE",
"593 607 OFFCURVE",
"589 489 CURVE",
"627 489 LINE",
"632 700 LINE"
);
}
);
width = 636;
},
{
anchors = (
{
name = bottom;
position = "{342, 0}";
},
{
name = center;
position = "{324, 350}";
},
{
name = top;
position = "{350, 700}";
}
);
layerId = "6B2A2AD0-3CEC-4B3D-96BE-6A11A3496094";
paths = (
{
closed = 1;
nodes = (
"46 700 LINE",
"29 474 LINE",
"95 474 LINE",
"100 582 OFFCURVE",
"151 631 OFFCURVE",
"227 632 CURVE SMOOTH",
"273 632 LINE",
"248 153 LINE SMOOTH",
"244 72 OFFCURVE",
"217 68 OFFCURVE",
"172 66 CURVE",
"168 0 LINE",
"458 0 LINE",
"462 77 LINE",
"448 77 OFFCURVE",
"403 76 OFFCURVE",
"382 74 CURVE",
"385 91 OFFCURVE",
"389 128 OFFCURVE",
"391 164 CURVE SMOOTH",
"415 633 LINE",
"463 633 LINE SMOOTH",
"539 634 OFFCURVE",
"583 582 OFFCURVE",
"578 474 CURVE",
"644 474 LINE",
"650 700 LINE"
);
}
);
width = 648;
}
);
leftKerningGroup = T;
rightKerningGroup = T;
unicode = 0054;
},
{
glyphname = U;
layers = (
{
anchors = (
{
name = bottom;
position = "{359, 0}";
},
{
name = ogonek;
position = "{480, 5}";
},
{
name = top;
position = "{408, 702}";
},
{
name = topright;
position = "{743, 700}";
}
);
layerId = UUID0;
paths = (
{
closed = 1;
nodes = (
"556 700 LINE",
"554 656 LINE",
"578 657 OFFCURVE",
"602 659 OFFCURVE",
"626 660 CURVE",
"623 640 OFFCURVE",
"621 615 OFFCURVE",
"619 588 CURVE SMOOTH",
"601 306 LINE SMOOTH",
"590 150 OFFCURVE",
"525 41 OFFCURVE",
"381 41 CURVE SMOOTH",
"202 41 OFFCURVE",
"181 186 OFFCURVE",
"189 335 CURVE SMOOTH",
"202 588 LINE SMOOTH",
"204 615 OFFCURVE",
"208 667 OFFCURVE",
"276 667 CURVE",
"278 700 LINE",
"56 700 LINE",
"54 657 LINE",
"78 658 OFFCURVE",
"102 659 OFFCURVE",
"126 660 CURVE",
"122 634 OFFCURVE",
"120 614 OFFCURVE",
"118 579 CURVE SMOOTH",
"105 340 LINE SMOOTH",
"92 93 OFFCURVE",
"152 -16 OFFCURVE",
"366 -16 CURVE SMOOTH",
"566 -16 OFFCURVE",
"642 137 OFFCURVE",
"652 311 CURVE SMOOTH",
"666 544 LINE",
"670 615 OFFCURVE",
"666 664 OFFCURVE",
"742 667 CURVE",
"743 700 LINE"
);
}
);
width = 744;
},
{
anchors = (
{
name = bottom;
position = "{365, 0}";
},
{
name = ogonek;
position = "{492, 5}";
},
{
name = top;
position = "{422, 700}";
},
{
name = topright;
position = "{761, 700}";
}
);
layerId = "6B2A2AD0-3CEC-4B3D-96BE-6A11A3496094";
paths = (
{
closed = 1;
nodes = (
"524 700 LINE",
"521 623 LINE",
"535 624 OFFCURVE",
"574 625 OFFCURVE",
"596 626 CURVE",
"592 609 OFFCURVE",
"589 572 OFFCURVE",
"587 536 CURVE SMOOTH",
"573 274 LINE SMOOTH",
"565 126 OFFCURVE",
"497 56 OFFCURVE",
"387 60 CURVE SMOOTH",
"306 63 OFFCURVE",
"230 105 OFFCURVE",
"239 272 CURVE SMOOTH",
"253 547 LINE",
"257 628 OFFCURVE",
"284 632 OFFCURVE",
"329 634 CURVE",
"333 700 LINE",
"47 700 LINE",
"43 623 LINE",
"58 624 OFFCURVE",
"97 625 OFFCURVE",
"119 626 CURVE",
"115 609 OFFCURVE",
"112 572 OFFCURVE",
"110 536 CURVE SMOOTH",
"97 294 LINE SMOOTH",
"88 123 OFFCURVE",
"142 -16 OFFCURVE",
"367 -16 CURVE SMOOTH",
"527 -16 OFFCURVE",
"651 67 OFFCURVE",
"664 297 CURVE SMOOTH",
"677 547 LINE SMOOTH",
"681 628 OFFCURVE",
"708 632 OFFCURVE",
"752 634 CURVE",
"756 700 LINE"
);
}
);
width = 755;
}
);
leftKerningGroup = U;
rightKerningGroup = U;
unicode = 0055;
},
{
color = 9;
glyphname = Uhorn;
layers = (
{
anchors = (
{
name = bottom;
position = "{359, 0}";
},
{
name = ogonek;
position = "{480, 5}";
},
{
name = top;
position = "{408, 702}";
},
{
name = topright;
position = "{737, 700}";
}
);
components = (
{
name = horncomb;
transform = "{1, 0, 0, 1, 552, 196}";
}
);
layerId = UUID0;
paths = (
{
closed = 1;
nodes = (
"556 700 LINE",
"554 656 LINE",
"578 657 OFFCURVE",
"602 659 OFFCURVE",
"626 660 CURVE",
"623 640 OFFCURVE",
"621 615 OFFCURVE",
"619 588 CURVE SMOOTH",
"601 306 LINE SMOOTH",
"590 150 OFFCURVE",
"525 41 OFFCURVE",
"381 41 CURVE SMOOTH",
"202 41 OFFCURVE",
"181 186 OFFCURVE",
"189 335 CURVE SMOOTH",
"202 588 LINE SMOOTH",
"204 615 OFFCURVE",
"208 667 OFFCURVE",
"276 667 CURVE",
"278 700 LINE",
"56 700 LINE",
"54 657 LINE",
"78 658 OFFCURVE",
"102 659 OFFCURVE",
"126 660 CURVE",
"122 634 OFFCURVE",
"120 614 OFFCURVE",
"118 579 CURVE SMOOTH",
"105 340 LINE SMOOTH",
"92 93 OFFCURVE",
"152 -16 OFFCURVE",
"366 -16 CURVE SMOOTH",
"566 -16 OFFCURVE",
"642 137 OFFCURVE",
"652 311 CURVE SMOOTH",
"678 700 LINE"
);
}
);
width = 744;
},
{
anchors = (
{
name = bottom;
position = "{365, 0}";
},
{
name = ogonek;
position = "{492, 5}";
},
{
name = top;
position = "{422, 700}";
},
{
name = topright;
position = "{761, 700}";
}
);
components = (
{
name = horncomb;
transform = "{1, 0, 0, 1, 564, 203}";
}
);
layerId = "6B2A2AD0-3CEC-4B3D-96BE-6A11A3496094";
paths = (
{
closed = 1;
nodes = (
"524 700 LINE",
"521 623 LINE",
"535 624 OFFCURVE",
"574 625 OFFCURVE",
"596 626 CURVE",
"592 609 OFFCURVE",
"589 572 OFFCURVE",
"587 536 CURVE SMOOTH",
"573 274 LINE SMOOTH",
"565 126 OFFCURVE",
"497 56 OFFCURVE",
"387 60 CURVE SMOOTH",
"306 63 OFFCURVE",
"230 105 OFFCURVE",
"239 272 CURVE SMOOTH",
"253 547 LINE",
"257 628 OFFCURVE",
"284 632 OFFCURVE",
"329 634 CURVE",
"333 700 LINE",
"47 700 LINE",
"43 623 LINE",
"58 624 OFFCURVE",
"97 625 OFFCURVE",
"119 626 CURVE",
"115 609 OFFCURVE",
"112 572 OFFCURVE",
"110 536 CURVE SMOOTH",
"97 294 LINE SMOOTH",
"88 123 OFFCURVE",
"142 -16 OFFCURVE",
"367 -16 CURVE SMOOTH",
"527 -16 OFFCURVE",
"651 67 OFFCURVE",
"664 297 CURVE SMOOTH",
"685 700 LINE"
);
}
);
width = 755;
}
);
unicode = 01AF;
},
{
glyphname = V;
layers = (
{
layerId = UUID0;
paths = (
{
closed = 1;
nodes = (
"493 700 LINE",
"491 656 LINE",
"517 657 OFFCURVE",
"542 659 OFFCURVE",
"568 660 CURVE",
"559 644 OFFCURVE",
"549 620 OFFCURVE",
"535 586 CURVE SMOOTH",
"511 527 OFFCURVE",
"475 442 OFFCURVE",
"407 275 CURVE SMOOTH",
"383 216 OFFCURVE",
"367 178 OFFCURVE",
"349 132 CURVE",
"347 132 LINE",
"332 177 OFFCURVE",
"305 250 OFFCURVE",
"276 325 CURVE",
"194 558 LINE",
"170 624 OFFCURVE",
"183 662 OFFCURVE",
"251 666 CURVE",
"253 700 LINE",
"25 700 LINE",
"23 656 LINE",
"42 657 OFFCURVE",
"60 657 OFFCURVE",
"79 658 CURVE",
"81 628 OFFCURVE",
"89 590 OFFCURVE",
"115 522 CURVE SMOOTH",
"311 -11 LINE",
"337 -11 LINE",
"562 525 OFFCURVE",
"570 547 OFFCURVE",
"579 569 CURVE SMOOTH",
"609 641 OFFCURVE",
"635 664 OFFCURVE",
"694 667 CURVE",
"696 700 LINE"
);
}
);
width = 665;
},
{
layerId = "6B2A2AD0-3CEC-4B3D-96BE-6A11A3496094";
paths = (
{
closed = 1;
nodes = (
"500 700 LINE",
"497 623 LINE",
"511 624 OFFCURVE",
"552 625 OFFCURVE",
"574 627 CURVE",
"562 613 OFFCURVE",
"551 590 OFFCURVE",
"528 535 CURVE SMOOTH",
"499 465 OFFCURVE",
"470 396 OFFCURVE",
"441 326 CURVE SMOOTH",
"422 280 OFFCURVE",
"402 226 OFFCURVE",
"385 187 CURVE",
"384 187 LINE",
"366 237 OFFCURVE",
"355 275 OFFCURVE",
"335 331 CURVE",
"255 557 LINE SMOOTH",
"234 616 OFFCURVE",
"267 635 OFFCURVE",
"317 634 CURVE",
"320 700 LINE",
"29 700 LINE",
"25 623 LINE",
"40 624 OFFCURVE",
"57 625 OFFCURVE",
"79 626 CURVE",
"78 604 OFFCURVE",
"90 564 OFFCURVE",
"102 531 CURVE SMOOTH",
"305 -6 LINE",
"383 -6 LINE",
"459 172 OFFCURVE",
"535 349 OFFCURVE",
"611 527 CURVE SMOOTH",
"644 604 OFFCURVE",
"677 632 OFFCURVE",
"722 634 CURVE",
"726 700 LINE"
);
}
);
width = 702;
}
);
unicode = 0056;
},
{
glyphname = W;
layers = (
{
anchors = (
{
name = top;
position = "{543, 705}";
}
);
layerId = UUID0;
paths = (
{
closed = 1;
nodes = (
"296 -11 LINE",
"451 399 LINE",
"468 443 OFFCURVE",
"484 487 OFFCURVE",
"501 531 CURVE",
"505 531 LINE",
"515 491 OFFCURVE",
"525 452 OFFCURVE",
"545 383 CURVE SMOOTH",
"659 -11 LINE",
"685 -11 LINE",
"893 519 LINE",
"941 642 OFFCURVE",
"956 659 OFFCURVE",
"1024 667 CURVE",
"1026 700 LINE",
"823 700 LINE",
"821 656 LINE",
"848 657 OFFCURVE",
"874 658 OFFCURVE",
"901 659 CURVE",
"887 636 OFFCURVE",
"875 608 OFFCURVE",
"867 586 CURVE SMOOTH",
"843 524 OFFCURVE",
"822 474 OFFCURVE",
"749 274 CURVE SMOOTH",
"731 227 OFFCURVE",
"713 181 OFFCURVE",
"698 143 CURVE",
"696 143 LINE",
"680 206 OFFCURVE",
"663 265 OFFCURVE",
"646 325 CURVE",
"542 702 LINE",
"515 702 LINE",
"363 289 LINE",
"353 262 OFFCURVE",
"328 197 OFFCURVE",
"312 152 CURVE",
"310 152 LINE",
"292 215 OFFCURVE",
"277 265 OFFCURVE",
"261 325 CURVE",
"197 558 LINE",
"179 638 OFFCURVE",
"190 663 OFFCURVE",
"268 667 CURVE",
"270 700 LINE",
"30 700 LINE",
"28 656 LINE",
"47 657 OFFCURVE",
"65 657 OFFCURVE",
"84 658 CURVE",
"88 628 OFFCURVE",
"99 592 OFFCURVE",
"119 522 CURVE SMOOTH",
"270 -11 LINE"
);
}
);
width = 994;
},
{
anchors = (
{
name = top;
position = "{547, 700}";
}
);
layerId = "6B2A2AD0-3CEC-4B3D-96BE-6A11A3496094";
paths = (
{
closed = 1;
nodes = (
"340 -6 LINE",
"474 369 LINE SMOOTH",
"490 414 OFFCURVE",
"500 454 OFFCURVE",
"510 500 CURVE",
"511 500 LINE",
"518 454 OFFCURVE",
"525 404 OFFCURVE",
"540 352 CURVE SMOOTH",
"640 -6 LINE",
"727 -6 LINE",
"918 527 LINE",
"948 605 OFFCURVE",
"985 632 OFFCURVE",
"1030 634 CURVE",
"1033 700 LINE",
"808 700 LINE",
"804 623 LINE",
"818 624 OFFCURVE",
"859 625 OFFCURVE",
"881 627 CURVE",
"860 604 OFFCURVE",
"846 567 OFFCURVE",
"835 535 CURVE",
"813 465 OFFCURVE",
"791 396 OFFCURVE",
"769 326 CURVE SMOOTH",
"753 277 OFFCURVE",
"737 231 OFFCURVE",
"723 188 CURVE",
"722 188 LINE",
"714 237 OFFCURVE",
"706 286 OFFCURVE",
"694 332 CURVE SMOOTH",
"600 700 LINE",
"510 700 LINE",
"401 394 LINE SMOOTH",
"391 365 OFFCURVE",
"345 226 OFFCURVE",
"334 189 CURVE",
"333 189 LINE",
"324 253 OFFCURVE",
"316 285 OFFCURVE",
"307 331 CURVE SMOOTH",
"258 559 LINE",
"245 620 OFFCURVE",
"271 635 OFFCURVE",
"321 634 CURVE",
"325 700 LINE",
"33 700 LINE",
"29 623 LINE",
"43 624 OFFCURVE",
"61 625 OFFCURVE",
"82 626 CURVE",
"81 604 OFFCURVE",
"93 566 OFFCURVE",
"105 533 CURVE",
"256 -6 LINE"
);
}
);
width = 1010;
}
);
unicode = 0057;
},
{
glyphname = X;
layers = (
{
layerId = UUID0;
paths = (
{
closed = 1;
nodes = (
"196 0 LINE",
"198 44 LINE",
"170 42 OFFCURVE",
"143 41 OFFCURVE",
"115 39 CURVE",
"149 77 OFFCURVE",
"176 117 OFFCURVE",
"202 153 CURVE",
"310 301 LINE",
"444 106 LINE",
"466 72 OFFCURVE",
"470 31 OFFCURVE",
"399 33 CURVE",
"397 0 LINE",
"643 0 LINE",
"645 44 LINE",
"626 43 OFFCURVE",
"606 43 OFFCURVE",
"587 42 CURVE",
"566 75 OFFCURVE",
"544 105 OFFCURVE",
"523 135 CURVE",
"359 368 LINE",
"481 528 LINE SMOOTH",
"527 588 OFFCURVE",
"581 658 OFFCURVE",
"645 667 CURVE",
"647 700 LINE",
"450 700 LINE",
"448 656 LINE",
"476 657 OFFCURVE",
"504 659 OFFCURVE",
"532 660 CURVE",
"510 641 OFFCURVE",
"474 592 OFFCURVE",
"438 544 CURVE SMOOTH",
"334 405 LINE",
"219 584 LINE",
"178 657 OFFCURVE",
"192 663 OFFCURVE",
"290 667 CURVE",
"292 700 LINE",
"32 700 LINE",
"30 656 LINE",
"49 657 OFFCURVE",
"67 657 OFFCURVE",
"86 658 CURVE",
"97 628 OFFCURVE",
"105 607 OFFCURVE",
"140 553 CURVE SMOOTH",
"167 510 OFFCURVE",
"211 446 OFFCURVE",
"284 338 CURVE",
"145 153 LINE SMOOTH",
"96 87 OFFCURVE",
"66 46 OFFCURVE",
"2 33 CURVE",
"0 0 LINE"
);
}
);
width = 652;
},
{
layerId = "6B2A2AD0-3CEC-4B3D-96BE-6A11A3496094";
paths = (
{
closed = 1;
nodes = (
"242 0 LINE",
"246 77 LINE",
"231 77 OFFCURVE",
"196 75 OFFCURVE",
"174 73 CURVE",
"191 90 OFFCURVE",
"203 104 OFFCURVE",
"233 142 CURVE",
"327 263 LINE",
"422 134 LINE SMOOTH",
"451 96 OFFCURVE",
"459 66 OFFCURVE",
"386 66 CURVE",
"382 0 LINE",
"679 0 LINE",
"683 77 LINE",
"668 77 OFFCURVE",
"666 76 OFFCURVE",
"644 74 CURVE",
"634 97 OFFCURVE",
"615 122 OFFCURVE",
"594 150 CURVE SMOOTH",
"418 390 LINE",
"521 521 LINE SMOOTH",
"578 594 OFFCURVE",
"622 628 OFFCURVE",
"668 634 CURVE",
"672 700 LINE",
"444 700 LINE",
"440 623 LINE",
"455 624 OFFCURVE",
"494 625 OFFCURVE",
"515 627 CURVE",
"497 610 OFFCURVE",
"483 596 OFFCURVE",
"453 558 CURVE",
"371 453 LINE",
"289 566 LINE SMOOTH",
"261 604 OFFCURVE",
"262 634 OFFCURVE",
"335 634 CURVE",
"339 700 LINE",
"37 700 LINE",
"33 623 LINE",
"47 624 OFFCURVE",
"52 625 OFFCURVE",
"73 626 CURVE",
"86 592 OFFCURVE",
"107 560 OFFCURVE",
"128 532 CURVE SMOOTH",
"178 464 OFFCURVE",
"229 396 OFFCURVE",
"279 328 CURVE",
"154 173 LINE SMOOTH",
"102 107 OFFCURVE",
"63 75 OFFCURVE",
"25 66 CURVE",
"21 0 LINE"
);
}
);
width = 700;
}
);
unicode = 0058;
},
{
glyphname = Y;
layers = (
{
anchors = (
{
name = bottom;
position = "{308, 0}";
},
{
name = top;
position = "{359, 702}";
},
{
name = topleft;
position = "{33, 700}";
}
);
layerId = UUID0;
paths = (
{
closed = 1;
nodes = (
"438 0 LINE",
"440 44 LINE",
"412 43 OFFCURVE",
"385 41 OFFCURVE",
"357 40 CURVE",
"360 57 OFFCURVE",
"363 83 OFFCURVE",
"364 119 CURVE",
"374 300 LINE",
"513 538 LINE",
"564 623 OFFCURVE",
"601 663 OFFCURVE",
"667 667 CURVE",
"669 700 LINE",
"465 700 LINE",
"463 656 LINE",
"489 657 OFFCURVE",
"516 658 OFFCURVE",
"542 659 CURVE",
"522 638 OFFCURVE",
"501 602 OFFCURVE",
"490 583 CURVE SMOOTH",
"459 530 OFFCURVE",
"430 482 OFFCURVE",
"399 429 CURVE SMOOTH",
"383 402 OFFCURVE",
"366 373 OFFCURVE",
"348 341 CURVE",
"347 341 LINE",
"331 367 OFFCURVE",
"314 394 OFFCURVE",
"298 420 CURVE",
"271 464 OFFCURVE",
"238 520 OFFCURVE",
"216 558 CURVE SMOOTH",
"180 622 OFFCURVE",
"183 667 OFFCURVE",
"275 667 CURVE",
"277 700 LINE",
"23 700 LINE",
"21 656 LINE",
"42 657 OFFCURVE",
"62 657 OFFCURVE",
"83 658 CURVE",
"86 633 OFFCURVE",
"99 598 OFFCURVE",
"131 545 CURVE SMOOTH",
"289 270 LINE",
"283 156 LINE SMOOTH",
"280 88 OFFCURVE",
"284 36 OFFCURVE",
"209 33 CURVE",
"207 0 LINE"
);
}
);
width = 641;
},
{
anchors = (
{
name = bottom;
position = "{319, 0}";
},
{
name = top;
position = "{377, 700}";
},
{
name = topleft;
position = "{33, 700}";
}
);
layerId = "6B2A2AD0-3CEC-4B3D-96BE-6A11A3496094";
paths = (
{
closed = 1;
nodes = (
"480 0 LINE",
"484 77 LINE",
"470 77 OFFCURVE",
"425 76 OFFCURVE",
"404 74 CURVE",
"407 91 OFFCURVE",
"411 128 OFFCURVE",
"413 164 CURVE SMOOTH",
"418 277 LINE",
"562 527 LINE",
"604 600 OFFCURVE",
"634 627 OFFCURVE",
"681 634 CURVE",
"684 700 LINE",
"463 700 LINE",
"459 623 LINE",
"474 624 OFFCURVE",
"515 625 OFFCURVE",
"536 626 CURVE",
"518 605 OFFCURVE",
"490 556 OFFCURVE",
"479 535 CURVE SMOOTH",
"460 501 OFFCURVE",
"440 467 OFFCURVE",
"421 433 CURVE SMOOTH",
"395 382 OFFCURVE",
"377 351 OFFCURVE",
"370 335 CURVE",
"368 335 LINE",
"359 364 OFFCURVE",
"331 416 OFFCURVE",
"323 432 CURVE SMOOTH",
"300 474 OFFCURVE",
"276 515 OFFCURVE",
"253 557 CURVE SMOOTH",
"224 612 OFFCURVE",
"258 638 OFFCURVE",
"316 634 CURVE",
"319 700 LINE",
"27 700 LINE",
"23 623 LINE",
"38 624 OFFCURVE",
"50 625 OFFCURVE",
"72 626 CURVE",
"71 604 OFFCURVE",
"87 562 OFFCURVE",
"105 531 CURVE SMOOTH",
"274 240 LINE",
"270 153 LINE SMOOTH",
"266 72 OFFCURVE",
"239 68 OFFCURVE",
"194 66 CURVE",
"190 0 LINE"
);
}
);
width = 665;
}
);
leftKerningGroup = Y;
rightKerningGroup = Y;
unicode = 0059;
},
{
glyphname = Z;
layers = (
{
anchors = (
{
name = top;
position = "{347, 702}";
}
);
layerId = UUID0;
paths = (
{
closed = 1;
nodes = (
"541 0 LINE",
"558 205 LINE",
"524 205 LINE",
"518 93 OFFCURVE",
"448 42 OFFCURVE",
"360 41 CURVE SMOOTH",
"113 37 LINE",
"135 56 OFFCURVE",
"154 77 OFFCURVE",
"185 120 CURVE SMOOTH",
"577 665 LINE",
"579 700 LINE",
"83 700 LINE",
"66 493 LINE",
"100 493 LINE",
"106 607 OFFCURVE",
"148 656 OFFCURVE",
"227 659 CURVE SMOOTH",
"485 663 LINE",
"458 634 OFFCURVE",
"437 603 OFFCURVE",
"416 573 CURVE",
"31 46 LINE",
"28 0 LINE"
);
}
);
width = 612;
},
{
anchors = (
{
name = top;
position = "{330, 700}";
}
);
layerId = "6B2A2AD0-3CEC-4B3D-96BE-6A11A3496094";
paths = (
{
closed = 1;
nodes = (
"538 0 LINE",
"555 214 LINE",
"489 214 LINE",
"483 105 OFFCURVE",
"429 65 OFFCURVE",
"355 66 CURVE SMOOTH",
"173 71 LINE",
"204 106 OFFCURVE",
"235 147 OFFCURVE",
"265 189 CURVE SMOOTH",
"576 625 LINE",
"580 700 LINE",
"73 700 LINE",
"56 487 LINE",
"122 487 LINE",
"128 595 OFFCURVE",
"182 637 OFFCURVE",
"256 635 CURVE SMOOTH",
"428 630 LINE",
"403 602 OFFCURVE",
"383 575 OFFCURVE",
"353 531 CURVE SMOOTH",
"29 75 LINE",
"25 0 LINE"
);
}
);
width = 603;
}
);
leftKerningGroup = Z;
rightKerningGroup = Z;
unicode = 005A;
},
{
glyphname = a;
layers = (
{
anchors = (
{
name = bottom;
position = "{261, 0}";
},
{
name = ogonek;
position = "{472, 5}";
},
{
name = top;
position = "{309, 512}";
}
);
layerId = UUID0;
paths = (
{
closed = 1;
nodes = (
"134 511 OFFCURVE",
"37 350 OFFCURVE",
"37 163 CURVE SMOOTH",
"37 37 OFFCURVE",
"92 -11 OFFCURVE",
"164 -11 CURVE SMOOTH",
"219 -11 OFFCURVE",
"296 16 OFFCURVE",
"359 213 CURVE",
"362 213 LINE",
"352 163 OFFCURVE",
"344 117 OFFCURVE",
"344 79 CURVE SMOOTH",
"344 25 OFFCURVE",
"364 -11 OFFCURVE",
"418 -11 CURVE SMOOTH",
"498 -11 OFFCURVE",
"539 83 OFFCURVE",
"548 130 CURVE",
"520 136 LINE",
"500 65 OFFCURVE",
"469 39 OFFCURVE",
"447 39 CURVE SMOOTH",
"418 39 OFFCURVE",
"419 72 OFFCURVE",
"419 99 CURVE SMOOTH",
"419 164 OFFCURVE",
"442 335 OFFCURVE",
"463 494 CURVE",
"420 505 OFFCURVE",
"369 511 OFFCURVE",
"329 511 CURVE SMOOTH"
);
},
{
closed = 1;
nodes = (
"329 475 OFFCURVE",
"356 471 OFFCURVE",
"376 463 CURVE",
"375 284 OFFCURVE",
"277 33 OFFCURVE",
"186 33 CURVE SMOOTH",
"137 33 OFFCURVE",
"121 95 OFFCURVE",
"121 180 CURVE SMOOTH",
"121 327 OFFCURVE",
"177 475 OFFCURVE",
"298 475 CURVE SMOOTH"
);
}
);
width = 548;
},
{
anchors = (
{
name = bottom;
position = "{262, 0}";
},
{
name = ogonek;
position = "{462, 5}";
},
{
name = top;
position = "{324, 500}";
}
);
layerId = "6B2A2AD0-3CEC-4B3D-96BE-6A11A3496094";
paths = (
{
closed = 1;
nodes = (
"135 511 OFFCURVE",
"25 354 OFFCURVE",
"25 171 CURVE SMOOTH",
"25 47 OFFCURVE",
"85 -11 OFFCURVE",
"158 -11 CURVE SMOOTH",
"219 -11 OFFCURVE",
"279 22 OFFCURVE",
"328 138 CURVE",
"329 138 LINE",
"326 121 OFFCURVE",
"325 97 OFFCURVE",
"325 80 CURVE SMOOTH",
"325 9 OFFCURVE",
"362 -11 OFFCURVE",
"405 -11 CURVE SMOOTH",
"493 -11 OFFCURVE",
"533 88 OFFCURVE",
"544 145 CURVE",
"490 161 LINE",
"473 101 OFFCURVE",
"455 82 OFFCURVE",
"439 82 CURVE SMOOTH",
"432 82 OFFCURVE",
"425 87 OFFCURVE",
"425 111 CURVE SMOOTH",
"425 179 OFFCURVE",
"457 390 OFFCURVE",
"471 490 CURVE",
"416 503 OFFCURVE",
"364 511 OFFCURVE",
"327 511 CURVE SMOOTH"
);
},
{
closed = 1;
nodes = (
"305 445 OFFCURVE",
"324 441 OFFCURVE",
"331 439 CURVE",
"323 289 OFFCURVE",
"273 78 OFFCURVE",
"200 78 CURVE SMOOTH",
"176 78 OFFCURVE",
"162 111 OFFCURVE",
"162 166 CURVE SMOOTH",
"162 349 OFFCURVE",
"214 445 OFFCURVE",
"290 445 CURVE SMOOTH"
);
}
);
width = 549;
}
);
leftKerningGroup = a;
rightKerningGroup = a;
unicode = 0061;
},
{
glyphname = ae;
layers = (
{
layerId = UUID0;
paths = (
{
closed = 1;
nodes = (
"480 511 OFFCURVE",
"422 478 OFFCURVE",
"381 420 CURVE",
"360 476 OFFCURVE",
"321 511 OFFCURVE",
"255 511 CURVE SMOOTH",
"140 511 OFFCURVE",
"63 443 OFFCURVE",
"61 385 CURVE SMOOTH",
"60 360 OFFCURVE",
"77 343 OFFCURVE",
"100 342 CURVE SMOOTH",
"124 342 OFFCURVE",
"141 361 OFFCURVE",
"141 381 CURVE SMOOTH",
"141 391 OFFCURVE",
"140 402 OFFCURVE",
"132 412 CURVE",
"143 450 OFFCURVE",
"184 477 OFFCURVE",
"235 477 CURVE SMOOTH",
"322 477 OFFCURVE",
"330 399 OFFCURVE",
"324 316 CURVE SMOOTH",
"321 276 OFFCURVE",
"321 265 OFFCURVE",
"321 264 CURVE",
"185 270 OFFCURVE",
"26 214 OFFCURVE",
"26 97 CURVE SMOOTH",
"26 32 OFFCURVE",
"68 -11 OFFCURVE",
"154 -11 CURVE SMOOTH",
"217 -11 OFFCURVE",
"283 18 OFFCURVE",
"340 81 CURVE",
"376 15 OFFCURVE",
"423 -11 OFFCURVE",
"502 -11 CURVE SMOOTH",
"570 -11 OFFCURVE",
"649 23 OFFCURVE",
"710 141 CURVE",
"678 160 LINE",
"639 92 OFFCURVE",
"583 39 OFFCURVE",
"521 39 CURVE SMOOTH",
"429 39 OFFCURVE",
"396 117 OFFCURVE",
"396 230 CURVE",
"633 256 OFFCURVE",
"687 344 OFFCURVE",
"687 403 CURVE SMOOTH",
"687 428 OFFCURVE",
"676 511 OFFCURVE",
"554 511 CURVE SMOOTH"
);
},
{
closed = 1;
nodes = (
"316 194 OFFCURVE",
"319 151 OFFCURVE",
"327 114 CURVE",
"285 70 OFFCURVE",
"228 40 OFFCURVE",
"175 45 CURVE SMOOTH",
"145 48 OFFCURVE",
"107 64 OFFCURVE",
"109 113 CURVE SMOOTH",
"112 211 OFFCURVE",
"227 229 OFFCURVE",
"318 232 CURVE"
);
},
{
closed = 1;
nodes = (
"565 479 OFFCURVE",
"607 466 OFFCURVE",
"607 405 CURVE SMOOTH",
"607 319 OFFCURVE",
"502 276 OFFCURVE",
"396 266 CURVE",
"408 387 OFFCURVE",
"458 476 OFFCURVE",
"536 478 CURVE SMOOTH"
);
}
);
width = 747;
},
{
layerId = "6B2A2AD0-3CEC-4B3D-96BE-6A11A3496094";
paths = (
{
closed = 1;
nodes = (
"479 511 OFFCURVE",
"425 484 OFFCURVE",
"388 438 CURVE",
"371 495 OFFCURVE",
"323 511 OFFCURVE",
"260 511 CURVE SMOOTH",
"143 511 OFFCURVE",
"58 453 OFFCURVE",
"54 379 CURVE SMOOTH",
"52 343 OFFCURVE",
"73 312 OFFCURVE",
"112 311 CURVE SMOOTH",
"159 310 OFFCURVE",
"181 346 OFFCURVE",
"183 374 CURVE SMOOTH",
"183 383 OFFCURVE",
"182 402 OFFCURVE",
"173 414 CURVE",
"190 431 OFFCURVE",
"214 439 OFFCURVE",
"240 440 CURVE SMOOTH",
"291 442 OFFCURVE",
"308 402 OFFCURVE",
"305 350 CURVE SMOOTH",
"304 328 OFFCURVE",
"303 307 OFFCURVE",
"302 285 CURVE",
"168 279 OFFCURVE",
"26 249 OFFCURVE",
"19 122 CURVE SMOOTH",
"15 46 OFFCURVE",
"63 -11 OFFCURVE",
"159 -11 CURVE SMOOTH",
"217 -10 OFFCURVE",
"284 4 OFFCURVE",
"343 61 CURVE",
"378 15 OFFCURVE",
"416 -12 OFFCURVE",
"485 -11 CURVE SMOOTH",
"563 -11 OFFCURVE",
"644 19 OFFCURVE",
"701 150 CURVE",
"645 178 LINE",
"608 95 OFFCURVE",
"545 81 OFFCURVE",
"512 81 CURVE SMOOTH",
"469 81 OFFCURVE",
"420 114 OFFCURVE",
"420 228 CURVE",
"538 245 OFFCURVE",
"690 276 OFFCURVE",
"690 385 CURVE SMOOTH",
"690 473 OFFCURVE",
"626 511 OFFCURVE",
"538 511 CURVE SMOOTH"
);
},
{
closed = 1;
nodes = (
"297 188 OFFCURVE",
"300 158 OFFCURVE",
"306 117 CURVE",
"284 95 OFFCURVE",
"239 83 OFFCURVE",
"208 83 CURVE SMOOTH",
"180 83 OFFCURVE",
"149 102 OFFCURVE",
"150 139 CURVE SMOOTH",
"152 196 OFFCURVE",
"223 216 OFFCURVE",
"298 224 CURVE"
);
},
{
closed = 1;
nodes = (
"547 445 OFFCURVE",
"573 432 OFFCURVE",
"574 399 CURVE SMOOTH",
"575 350 OFFCURVE",
"532 312 OFFCURVE",
"424 292 CURVE",
"432 367 OFFCURVE",
"459 445 OFFCURVE",
"527 445 CURVE SMOOTH"
);
}
);
width = 731;
}
);
leftKerningGroup = a;
rightKerningGroup = e;
unicode = 00E6;
},
{
glyphname = b;
layers = (
{
layerId = UUID0;
paths = (
{
closed = 1;
nodes = (
"166 755 LINE",
"150 741 OFFCURVE",
"127 728 OFFCURVE",
"39 728 CURVE",
"35 688 LINE",
"59 689 OFFCURVE",
"83 691 OFFCURVE",
"107 692 CURVE",
"104 674 OFFCURVE",
"104 673 OFFCURVE",
"101 639 CURVE SMOOTH",
"81 407 OFFCURVE",
"75 270 OFFCURVE",
"57 10 CURVE",
"98 -6 OFFCURVE",
"155 -11 OFFCURVE",
"188 -11 CURVE SMOOTH",
"386 -11 OFFCURVE",
"465 143 OFFCURVE",
"465 327 CURVE SMOOTH",
"465 424 OFFCURVE",
"432 511 OFFCURVE",
"340 511 CURVE SMOOTH",
"280 511 OFFCURVE",
"200 491 OFFCURVE",
"147 298 CURVE",
"144 298 LINE",
"154 404 OFFCURVE",
"164 498 OFFCURVE",
"173 586 CURVE SMOOTH",
"178 631 OFFCURVE",
"186 699 OFFCURVE",
"195 755 CURVE"
);
},
{
closed = 1;
nodes = (
"358 466 OFFCURVE",
"377 410 OFFCURVE",
"379 319 CURVE SMOOTH",
"381 197 OFFCURVE",
"351 26 OFFCURVE",
"205 24 CURVE SMOOTH",
"179 24 OFFCURVE",
"147 31 OFFCURVE",
"131 47 CURVE",
"135 214 OFFCURVE",
"216 460 OFFCURVE",
"311 464 CURVE SMOOTH"
);
}
);
width = 511;
},
{
layerId = "6B2A2AD0-3CEC-4B3D-96BE-6A11A3496094";
paths = (
{
closed = 1;
nodes = (
"171 755 LINE",
"156 742 OFFCURVE",
"111 725 OFFCURVE",
"19 725 CURVE",
"15 649 LINE",
"29 650 OFFCURVE",
"63 651 OFFCURVE",
"84 652 CURVE",
"80 623 OFFCURVE",
"77 583 OFFCURVE",
"76 560 CURVE SMOOTH",
"63 350 OFFCURVE",
"55 228 OFFCURVE",
"47 16 CURVE",
"99 -4 OFFCURVE",
"175 -11 OFFCURVE",
"207 -11 CURVE SMOOTH",
"403 -11 OFFCURVE",
"478 140 OFFCURVE",
"478 320 CURVE SMOOTH",
"478 420 OFFCURVE",
"436 511 OFFCURVE",
"335 511 CURVE SMOOTH",
"293 511 OFFCURVE",
"232 480 OFFCURVE",
"187 393 CURVE",
"186 393 LINE",
"195 447 OFFCURVE",
"201 529 OFFCURVE",
"204 551 CURVE SMOOTH",
"208 591 OFFCURVE",
"217 697 OFFCURVE",
"225 755 CURVE"
);
},
{
closed = 1;
nodes = (
"318 419 OFFCURVE",
"341 397 OFFCURVE",
"341 325 CURVE SMOOTH",
"341 231 OFFCURVE",
"330 55 OFFCURVE",
"221 55 CURVE SMOOTH",
"208 55 OFFCURVE",
"183 59 OFFCURVE",
"172 64 CURVE",
"176 254 OFFCURVE",
"230 419 OFFCURVE",
"295 419 CURVE SMOOTH"
);
}
);
width = 513;
}
);
unicode = 0062;
},
{
glyphname = c;
layers = (
{
anchors = (
{
name = bottom;
position = "{213, 0}";
},
{
name = top;
position = "{282, 510}";
}
);
layerId = UUID0;
paths = (
{
closed = 1;
nodes = (
"112 511 OFFCURVE",
"39 339 OFFCURVE",
"39 208 CURVE SMOOTH",
"39 58 OFFCURVE",
"114 -11 OFFCURVE",
"232 -11 CURVE SMOOTH",
"310 -11 OFFCURVE",
"386 31 OFFCURVE",
"437 147 CURVE",
"402 164 LINE",
"363 68 OFFCURVE",
"301 38 OFFCURVE",
"249 38 CURVE SMOOTH",
"178 38 OFFCURVE",
"127 91 OFFCURVE",
"127 231 CURVE SMOOTH",
"127 337 OFFCURVE",
"161 476 OFFCURVE",
"277 476 CURVE SMOOTH",
"316 476 OFFCURVE",
"349 460 OFFCURVE",
"356 423 CURVE",
"345 411 OFFCURVE",
"343 397 OFFCURVE",
"343 385 CURVE SMOOTH",
"343 370 OFFCURVE",
"354 344 OFFCURVE",
"386 345 CURVE SMOOTH",
"412 345 OFFCURVE",
"428 365 OFFCURVE",
"428 394 CURVE SMOOTH",
"428 460 OFFCURVE",
"364 511 OFFCURVE",
"278 511 CURVE SMOOTH"
);
}
);
width = 473;
},
{
anchors = (
{
name = bottom;
position = "{199, 0}";
},
{
name = top;
position = "{284, 500}";
}
);
layerId = "6B2A2AD0-3CEC-4B3D-96BE-6A11A3496094";
paths = (
{
closed = 1;
nodes = (
"106 511 OFFCURVE",
"27 336 OFFCURVE",
"27 207 CURVE SMOOTH",
"27 59 OFFCURVE",
"106 -10 OFFCURVE",
"223 -11 CURVE",
"306 -10 OFFCURVE",
"384 26 OFFCURVE",
"441 157 CURVE",
"384 185 LINE",
"343 91 OFFCURVE",
"284 78 OFFCURVE",
"247 81 CURVE SMOOTH",
"205 85 OFFCURVE",
"160 124 OFFCURVE",
"164 233 CURVE SMOOTH",
"166 313 OFFCURVE",
"186 445 OFFCURVE",
"271 445 CURVE SMOOTH",
"295 445 OFFCURVE",
"313 435 OFFCURVE",
"319 423 CURVE",
"312 410 OFFCURVE",
"309 393 OFFCURVE",
"309 381 CURVE SMOOTH",
"309 358 OFFCURVE",
"325 321 OFFCURVE",
"371 322 CURVE SMOOTH",
"410 323 OFFCURVE",
"435 351 OFFCURVE",
"435 391 CURVE SMOOTH",
"435 464 OFFCURVE",
"365 511 OFFCURVE",
"273 511 CURVE SMOOTH"
);
}
);
width = 467;
}
);
leftKerningGroup = o;
rightKerningGroup = c;
unicode = 0063;
},
{
glyphname = d;
layers = (
{
anchors = (
{
name = center;
position = "{291, 256}";
},
{
name = topright;
position = "{559, 512}";
}
);
layerId = UUID0;
paths = (
{
closed = 1;
nodes = (
"232 -11 OFFCURVE",
"305 25 OFFCURVE",
"360 208 CURVE",
"363 208 LINE",
"353 158 OFFCURVE",
"348 117 OFFCURVE",
"348 79 CURVE SMOOTH",
"348 25 OFFCURVE",
"371 -11 OFFCURVE",
"425 -11 CURVE SMOOTH",
"505 -11 OFFCURVE",
"546 83 OFFCURVE",
"555 130 CURVE",
"526 136 LINE",
"506 65 OFFCURVE",
"476 39 OFFCURVE",
"454 39 CURVE SMOOTH",
"428 39 OFFCURVE",
"427 66 OFFCURVE",
"427 92 CURVE SMOOTH",
"427 164 OFFCURVE",
"442 299 OFFCURVE",
"456 427 CURVE",
"474 585 OFFCURVE",
"486 683 OFFCURVE",
"498 755 CURVE",
"469 755 LINE",
"453 741 OFFCURVE",
"430 728 OFFCURVE",
"342 728 CURVE",
"338 688 LINE",
"362 689 OFFCURVE",
"387 691 OFFCURVE",
"411 692 CURVE",
"403 661 OFFCURVE",
"393 578 OFFCURVE",
"385 507 CURVE",
"367 510 OFFCURVE",
"349 511 OFFCURVE",
"329 511 CURVE SMOOTH",
"136 511 OFFCURVE",
"38 374 OFFCURVE",
"38 179 CURVE SMOOTH",
"38 74 OFFCURVE",
"81 -11 OFFCURVE",
"173 -11 CURVE SMOOTH"
);
},
{
closed = 1;
nodes = (
"142 36 OFFCURVE",
"124 105 OFFCURVE",
"124 196 CURVE SMOOTH",
"124 318 OFFCURVE",
"171 475 OFFCURVE",
"312 475 CURVE SMOOTH",
"335 475 OFFCURVE",
"358 473 OFFCURVE",
"380 465 CURVE",
"372 391 OFFCURVE",
"365 335 OFFCURVE",
"355 289 CURVE SMOOTH",
"326 158 OFFCURVE",
"257 36 OFFCURVE",
"194 36 CURVE SMOOTH"
);
}
);
width = 555;
},
{
anchors = (
{
name = center;
position = "{282, 250}";
},
{
name = topright;
position = "{554, 500}";
}
);
layerId = "6B2A2AD0-3CEC-4B3D-96BE-6A11A3496094";
paths = (
{
closed = 1;
nodes = (
"229 -11 OFFCURVE",
"297 22 OFFCURVE",
"345 140 CURVE",
"346 140 LINE",
"343 117 OFFCURVE",
"342 106 OFFCURVE",
"342 80 CURVE SMOOTH",
"342 9 OFFCURVE",
"379 -11 OFFCURVE",
"422 -11 CURVE SMOOTH",
"509 -11 OFFCURVE",
"546 88 OFFCURVE",
"558 145 CURVE",
"503 161 LINE",
"486 101 OFFCURVE",
"470 82 OFFCURVE",
"455 82 CURVE SMOOTH",
"448 82 OFFCURVE",
"440 87 OFFCURVE",
"440 111 CURVE SMOOTH",
"440 171 OFFCURVE",
"458 298 OFFCURVE",
"473 435 CURVE SMOOTH",
"485 542 OFFCURVE",
"498 648 OFFCURVE",
"510 755 CURVE",
"456 755 LINE",
"441 742 OFFCURVE",
"396 725 OFFCURVE",
"303 725 CURVE",
"299 649 LINE",
"313 650 OFFCURVE",
"347 651 OFFCURVE",
"369 652 CURVE",
"365 629 OFFCURVE",
"362 600 OFFCURVE",
"353 509 CURVE",
"343 510 OFFCURVE",
"314 511 OFFCURVE",
"305 511 CURVE SMOOTH",
"114 511 OFFCURVE",
"28 370 OFFCURVE",
"28 180 CURVE SMOOTH",
"28 72 OFFCURVE",
"75 -11 OFFCURVE",
"176 -11 CURVE SMOOTH"
);
},
{
closed = 1;
nodes = (
"184 80 OFFCURVE",
"164 113 OFFCURVE",
"164 181 CURVE SMOOTH",
"164 260 OFFCURVE",
"179 445 OFFCURVE",
"292 445 CURVE SMOOTH",
"305 445 OFFCURVE",
"336 441 OFFCURVE",
"345 437 CURVE",
"340 379 OFFCURVE",
"333 325 OFFCURVE",
"324 277 CURVE SMOOTH",
"300 160 OFFCURVE",
"263 80 OFFCURVE",
"213 80 CURVE SMOOTH"
);
}
);
width = 564;
}
);
leftKerningGroup = o;
rightKerningGroup = d;
unicode = 0064;
},
{
color = 4;
glyphname = eth;
layers = (
{
background = {
paths = (
{
closed = 1;
nodes = (
"429 -16 OFFCURVE",
"503 114 OFFCURVE",
"502 272 CURVE SMOOTH",
"501 458 OFFCURVE",
"419 629 OFFCURVE",
"276 710 CURVE",
"320 766 LINE",
"291 793 LINE",
"237 729 LINE",
"197 746 OFFCURVE",
"155 757 OFFCURVE",
"107 760 CURVE",
"103 718 LINE",
"140 715 OFFCURVE",
"174 705 OFFCURVE",
"204 691 CURVE",
"146 622 LINE",
"182 592 LINE",
"243 669 LINE",
"333 610 OFFCURVE",
"385 510 OFFCURVE",
"405 430 CURVE",
"403 430 LINE",
"371 481 OFFCURVE",
"307 498 OFFCURVE",
"257 496 CURVE SMOOTH",
"123 491 OFFCURVE",
"43 364 OFFCURVE",
"43 222 CURVE SMOOTH",
"43 74 OFFCURVE",
"139 -16 OFFCURVE",
"259 -16 CURVE SMOOTH"
);
},
{
closed = 1;
nodes = (
"200 24 OFFCURVE",
"143 101 OFFCURVE",
"143 243 CURVE SMOOTH",
"143 359 OFFCURVE",
"193 459 OFFCURVE",
"283 455 CURVE SMOOTH",
"384 450 OFFCURVE",
"414 322 OFFCURVE",
"413 229 CURVE SMOOTH",
"412 93 OFFCURVE",
"348 24 OFFCURVE",
"275 24 CURVE SMOOTH"
);
}
);
};
layerId = UUID0;
paths = (
{
closed = 1;
nodes = (
"273 736 LINE",
"230 755 OFFCURVE",
"179 763 OFFCURVE",
"119 758 CURVE",
"119 725 LINE",
"169 726 OFFCURVE",
"209 717 OFFCURVE",
"242 702 CURVE",
"179 632 LINE",
"213 600 LINE",
"278 679 LINE",
"342 627 OFFCURVE",
"365 541 OFFCURVE",
"372 454 CURVE",
"343 489 OFFCURVE",
"306 501 OFFCURVE",
"264 503 CURVE SMOOTH",
"146 507 OFFCURVE",
"40 392 OFFCURVE",
"40 209 CURVE SMOOTH",
"40 64 OFFCURVE",
"120 -11 OFFCURVE",
"210 -11 CURVE SMOOTH",
"340 -11 OFFCURVE",
"457 78 OFFCURVE",
"457 348 CURVE SMOOTH",
"457 508 OFFCURVE",
"414 648 OFFCURVE",
"310 716 CURVE",
"360 776 LINE",
"331 802 LINE"
);
},
{
closed = 1;
nodes = (
"330 463 OFFCURVE",
"376 427 OFFCURVE",
"376 352 CURVE SMOOTH",
"376 229 OFFCURVE",
"343 27 OFFCURVE",
"228 27 CURVE SMOOTH",
"170 27 OFFCURVE",
"126 96 OFFCURVE",
"126 220 CURVE SMOOTH",
"126 379 OFFCURVE",
"204 463 OFFCURVE",
"264 463 CURVE SMOOTH"
);
}
);
width = 516;
},
{
layerId = "6B2A2AD0-3CEC-4B3D-96BE-6A11A3496094";
paths = (
{
closed = 1;
nodes = (
"235 723 LINE",
"205 738 OFFCURVE",
"161 754 OFFCURVE",
"103 760 CURVE",
"86 689 LINE",
"122 682 OFFCURVE",
"151 670 OFFCURVE",
"174 656 CURVE",
"123 599 LINE",
"180 546 LINE",
"242 617 LINE",
"287 591 OFFCURVE",
"344 510 OFFCURVE",
"350 455 CURVE",
"330 477 OFFCURVE",
"304 500 OFFCURVE",
"253 500 CURVE SMOOTH",
"93 500 OFFCURVE",
"29 336 OFFCURVE",
"29 221 CURVE SMOOTH",
"29 51 OFFCURVE",
"124 -11 OFFCURVE",
"229 -11 CURVE SMOOTH",
"398 -11 OFFCURVE",
"475 142 OFFCURVE",
"475 312 CURVE SMOOTH",
"475 481 OFFCURVE",
"401 610 OFFCURVE",
"291 688 CURVE",
"345 738 LINE",
"290 790 LINE"
);
},
{
closed = 1;
nodes = (
"331 435 OFFCURVE",
"344 354 OFFCURVE",
"344 260 CURVE SMOOTH",
"344 177 OFFCURVE",
"320 55 OFFCURVE",
"243 55 CURVE SMOOTH",
"181 55 OFFCURVE",
"163 128 OFFCURVE",
"163 227 CURVE SMOOTH",
"163 325 OFFCURVE",
"191 435 OFFCURVE",
"269 435 CURVE SMOOTH"
);
}
);
width = 522;
}
);
unicode = 00F0;
},
{
glyphname = dcroat;
layers = (
{
components = (
{
name = d;
}
);
layerId = UUID0;
paths = (
{
closed = 1;
nodes = (
"213 621 LINE",
"210 578 LINE",
"553 582 LINE",
"556 621 LINE"
);
}
);
width = 555;
},
{
background = {
paths = (
{
closed = 1;
nodes = (
"213 626 LINE",
"210 583 LINE",
"553 586 LINE",
"556 626 LINE"
);
}
);
};
components = (
{
name = d;
}
);
layerId = "6B2A2AD0-3CEC-4B3D-96BE-6A11A3496094";
paths = (
{
closed = 1;
nodes = (
"197 618 LINE",
"192 546 LINE",
"560 550 LINE",
"564 618 LINE"
);
}
);
width = 564;
}
);
leftKerningGroup = o;
rightKerningGroup = d;
unicode = 0111;
},
{
glyphname = e;
layers = (
{
anchors = (
{
name = bottom;
position = "{252, 0}";
},
{
name = ogonek;
position = "{307, 5}";
},
{
name = top;
position = "{277, 512}";
}
);
layerId = UUID0;
paths = (
{
closed = 1;
nodes = (
"118 511 OFFCURVE",
"39 360 OFFCURVE",
"39 205 CURVE SMOOTH",
"39 75 OFFCURVE",
"97 -11 OFFCURVE",
"224 -11 CURVE SMOOTH",
"315 -11 OFFCURVE",
"382 36 OFFCURVE",
"438 141 CURVE",
"405 160 LINE",
"361 76 OFFCURVE",
"299 39 OFFCURVE",
"241 39 CURVE SMOOTH",
"163 39 OFFCURVE",
"127 103 OFFCURVE",
"127 227 CURVE",
"251 241 OFFCURVE",
"422 286 OFFCURVE",
"422 396 CURVE SMOOTH",
"422 481 OFFCURVE",
"353 511 OFFCURVE",
"282 511 CURVE SMOOTH"
);
},
{
closed = 1;
nodes = (
"316 477 OFFCURVE",
"339 443 OFFCURVE",
"339 401 CURVE SMOOTH",
"339 324 OFFCURVE",
"233 277 OFFCURVE",
"128 263 CURVE",
"135 371 OFFCURVE",
"176 477 OFFCURVE",
"268 477 CURVE SMOOTH"
);
}
);
width = 477;
},
{
anchors = (
{
name = bottom;
position = "{260, 0}";
},
{
name = ogonek;
position = "{313, 5}";
},
{
name = top;
position = "{263, 500}";
}
);
layerId = "6B2A2AD0-3CEC-4B3D-96BE-6A11A3496094";
paths = (
{
closed = 1;
nodes = (
"104 511 OFFCURVE",
"27 336 OFFCURVE",
"27 207 CURVE SMOOTH",
"27 59 OFFCURVE",
"104 -12 OFFCURVE",
"227 -11 CURVE SMOOTH",
"305 -11 OFFCURVE",
"383 19 OFFCURVE",
"440 150 CURVE",
"384 177 LINE",
"348 94 OFFCURVE",
"287 81 OFFCURVE",
"254 81 CURVE SMOOTH",
"211 81 OFFCURVE",
"164 108 OFFCURVE",
"164 222 CURVE",
"282 239 OFFCURVE",
"430 276 OFFCURVE",
"430 385 CURVE SMOOTH",
"430 473 OFFCURVE",
"368 511 OFFCURVE",
"280 511 CURVE SMOOTH"
);
},
{
closed = 1;
nodes = (
"289 445 OFFCURVE",
"312 432 OFFCURVE",
"313 399 CURVE SMOOTH",
"314 350 OFFCURVE",
"275 306 OFFCURVE",
"167 287 CURVE",
"175 361 OFFCURVE",
"201 445 OFFCURVE",
"269 445 CURVE SMOOTH"
);
}
);
width = 470;
}
);
leftKerningGroup = o;
rightKerningGroup = e;
unicode = 0065;
},
{
color = 4;
glyphname = schwa;
layers = (
{
background = {
components = (
{
name = o;
transform = "{1, 0, 0, 1, -30, 0}";
}
);
};
layerId = UUID0;
paths = (
{
closed = 1;
nodes = (
"366 -11 OFFCURVE",
"445 136 OFFCURVE",
"445 291 CURVE SMOOTH",
"445 421 OFFCURVE",
"387 511 OFFCURVE",
"256 511 CURVE SMOOTH",
"179 511 OFFCURVE",
"120 481 OFFCURVE",
"70 413 CURVE",
"103 394 LINE",
"140 440 OFFCURVE",
"194 461 OFFCURVE",
"240 461 CURVE SMOOTH",
"325 461 OFFCURVE",
"360 388 OFFCURVE",
"357 255 CURVE SMOOTH",
"351 108 OFFCURVE",
"298 27 OFFCURVE",
"217 27 CURVE SMOOTH",
"164 27 OFFCURVE",
"125 62 OFFCURVE",
"125 115 CURVE SMOOTH",
"125 215 OFFCURVE",
"254 250 OFFCURVE",
"377 264 CURVE",
"376 300 LINE",
"240 286 OFFCURVE",
"42 246 OFFCURVE",
"42 113 CURVE SMOOTH",
"42 27 OFFCURVE",
"125 -11 OFFCURVE",
"205 -11 CURVE SMOOTH"
);
}
);
width = 490;
},
{
background = {
components = (
{
name = o;
transform = "{1, 0, 0, 1, -33, 0}";
}
);
};
layerId = "6B2A2AD0-3CEC-4B3D-96BE-6A11A3496094";
paths = (
{
closed = 1;
nodes = (
"380 -11 OFFCURVE",
"447 164 OFFCURVE",
"447 293 CURVE SMOOTH",
"447 431 OFFCURVE",
"370 511 OFFCURVE",
"241 511 CURVE SMOOTH",
"174 511 OFFCURVE",
"101 490 OFFCURVE",
"48 400 CURVE",
"104 373 LINE",
"131 407 OFFCURVE",
"181 419 OFFCURVE",
"212 419 CURVE SMOOTH",
"268 419 OFFCURVE",
"317 377 OFFCURVE",
"309 247 CURVE",
"301 121 OFFCURVE",
"267 55 OFFCURVE",
"205 55 CURVE SMOOTH",
"176 55 OFFCURVE",
"142 74 OFFCURVE",
"141 121 CURVE SMOOTH",
"140 185 OFFCURVE",
"191 218 OFFCURVE",
"337 236 CURVE",
"328 300 LINE",
"198 284 OFFCURVE",
"24 251 OFFCURVE",
"24 123 CURVE SMOOTH",
"24 35 OFFCURVE",
"103 -11 OFFCURVE",
"194 -11 CURVE SMOOTH"
);
}
);
width = 481;
}
);
unicode = 0259;
},
{
color = 4;
glyphname = ezh;
layers = (
{
anchors = (
{
name = bottom;
position = "{170, -255}";
},
{
name = top;
position = "{248, 512}";
}
);
background = {
paths = (
{
closed = 1;
nodes = (
"302 -256 OFFCURVE",
"384 -173 OFFCURVE",
"391 -17 CURVE SMOOTH",
"397 88 OFFCURVE",
"335 190 OFFCURVE",
"126 170 CURVE",
"127 134 LINE",
"256 145 OFFCURVE",
"308 94 OFFCURVE",
"302 -28 CURVE SMOOTH",
"297 -156 OFFCURVE",
"244 -219 OFFCURVE",
"165 -219 CURVE SMOOTH",
"125 -219 OFFCURVE",
"84 -201 OFFCURVE",
"64 -164 CURVE",
"80 -149 OFFCURVE",
"88 -136 OFFCURVE",
"89 -118 CURVE SMOOTH",
"90 -94 OFFCURVE",
"77 -71 OFFCURVE",
"44 -72 CURVE SMOOTH",
"14 -73 OFFCURVE",
"-3 -97 OFFCURVE",
"-5 -126 CURVE SMOOTH",
"-9 -184 OFFCURVE",
"60 -256 OFFCURVE",
"177 -256 CURVE SMOOTH"
);
}
);
};
components = (
{
name = "dzeabkhasian-cy";
}
);
layerId = UUID0;
width = 440;
},
{
anchors = (
{
name = bottom;
position = "{200, -255}";
},
{
name = top;
position = "{282, 500}";
}
);
background = {
anchors = (
{
name = top;
position = "{271, 500}";
}
);
paths = (
{
closed = 1;
nodes = (
"220 151 LINE",
"254 183 OFFCURVE",
"293 224 OFFCURVE",
"337 280 CURVE",
"486 471 LINE",
"443 511 LINE",
"411 483 OFFCURVE",
"378 481 OFFCURVE",
"363 481 CURVE SMOOTH",
"306 481 OFFCURVE",
"238 511 OFFCURVE",
"182 511 CURVE SMOOTH",
"100 511 OFFCURVE",
"59 441 OFFCURVE",
"59 370 CURVE SMOOTH",
"59 339 OFFCURVE",
"63 313 OFFCURVE",
"71 292 CURVE",
"121 309 LINE",
"106 350 OFFCURVE",
"118 394 OFFCURVE",
"156 394 CURVE SMOOTH",
"194 394 OFFCURVE",
"223 369 OFFCURVE",
"265 369 CURVE SMOOTH",
"296 369 OFFCURVE",
"331 379 OFFCURVE",
"384 423 CURVE",
"385 423 LINE",
"333 374 OFFCURVE",
"301 353 OFFCURVE",
"235 276 CURVE SMOOTH",
"215 253 OFFCURVE",
"192 226 OFFCURVE",
"169 198 CURVE"
);
}
);
};
components = (
{
name = "dzeabkhasian-cy";
}
);
guideLines = (
{
position = "{255, 433}";
}
);
layerId = "6B2A2AD0-3CEC-4B3D-96BE-6A11A3496094";
width = 478;
}
);
unicode = 0292;
},
{
glyphname = f;
layers = (
{
layerId = UUID0;
paths = (
{
closed = 1;
nodes = (
"183 757 OFFCURVE",
"138 645 OFFCURVE",
"117 500 CURVE",
"29 500 LINE",
"24 457 LINE",
"112 458 LINE",
"104 390 OFFCURVE",
"100 316 OFFCURVE",
"94 245 CURVE",
"70 -20 OFFCURVE",
"78 -232 OFFCURVE",
"-16 -232 CURVE SMOOTH",
"-28 -232 OFFCURVE",
"-38 -229 OFFCURVE",
"-45 -224 CURVE",
"-45 -197 OFFCURVE",
"-60 -179 OFFCURVE",
"-84 -178 CURVE SMOOTH",
"-114 -177 OFFCURVE",
"-125 -204 OFFCURVE",
"-125 -219 CURVE SMOOTH",
"-125 -253 OFFCURVE",
"-98 -271 OFFCURVE",
"-47 -271 CURVE SMOOTH",
"154 -271 OFFCURVE",
"154 -6 OFFCURVE",
"176 236 CURVE SMOOTH",
"183 313 OFFCURVE",
"186 390 OFFCURVE",
"190 459 CURVE",
"332 461 LINE",
"335 500 LINE",
"193 500 LINE",
"203 625 OFFCURVE",
"221 716 OFFCURVE",
"284 722 CURVE SMOOTH",
"295 723 OFFCURVE",
"309 721 OFFCURVE",
"313 718 CURVE",
"312 689 OFFCURVE",
"328 668 OFFCURVE",
"353 668 CURVE SMOOTH",
"383 667 OFFCURVE",
"393 693 OFFCURVE",
"393 708 CURVE SMOOTH",
"393 742 OFFCURVE",
"365 761 OFFCURVE",
"316 760 CURVE SMOOTH"
);
}
);
width = 325;
},
{
layerId = "6B2A2AD0-3CEC-4B3D-96BE-6A11A3496094";
paths = (
{
closed = 1;
nodes = (
"192 760 OFFCURVE",
"130 654 OFFCURVE",
"113 500 CURVE",
"33 500 LINE",
"24 427 LINE",
"104 428 LINE",
"95 317 OFFCURVE",
"81 103 OFFCURVE",
"71 -11 CURVE SMOOTH",
"64 -89 OFFCURVE",
"54 -200 OFFCURVE",
"9 -200 CURVE SMOOTH",
"3 -200 OFFCURVE",
"-1 -199 OFFCURVE",
"-4 -198 CURVE",
"1 -163 OFFCURVE",
"-23 -137 OFFCURVE",
"-53 -136 CURVE SMOOTH",
"-98 -135 OFFCURVE",
"-115 -176 OFFCURVE",
"-115 -199 CURVE SMOOTH",
"-115 -243 OFFCURVE",
"-81 -271 OFFCURVE",
"-20 -271 CURVE SMOOTH",
"116 -271 OFFCURVE",
"179 -166 OFFCURVE",
"197 -11 CURVE SMOOTH",
"210 102 OFFCURVE",
"226 315 OFFCURVE",
"233 429 CURVE",
"359 431 LINE",
"366 500 LINE",
"237 500 LINE",
"244 578 OFFCURVE",
"254 689 OFFCURVE",
"299 689 CURVE SMOOTH",
"305 689 OFFCURVE",
"310 688 OFFCURVE",
"312 687 CURVE",
"307 652 OFFCURVE",
"331 626 OFFCURVE",
"361 625 CURVE SMOOTH",
"406 624 OFFCURVE",
"423 663 OFFCURVE",
"423 686 CURVE SMOOTH",
"423 729 OFFCURVE",
"389 760 OFFCURVE",
"329 760 CURVE SMOOTH"
);
}
);
width = 353;
}
);
leftKerningGroup = f;
rightKerningGroup = f;
unicode = 0066;
},
{
glyphname = g;
layers = (
{
anchors = (
{
name = top;
position = "{294, 512}";
}
);
layerId = UUID0;
paths = (
{
closed = 1;
nodes = (
"309 -271 OFFCURVE",
"402 -179 OFFCURVE",
"418 14 CURVE SMOOTH",
"430 162 OFFCURVE",
"447 333 OFFCURVE",
"457 494 CURVE",
"425 505 OFFCURVE",
"375 511 OFFCURVE",
"330 511 CURVE SMOOTH",
"129 511 OFFCURVE",
"38 355 OFFCURVE",
"38 183 CURVE SMOOTH",
"38 72 OFFCURVE",
"80 -11 OFFCURVE",
"173 -11 CURVE SMOOTH",
"233 -11 OFFCURVE",
"302 20 OFFCURVE",
"358 213 CURVE",
"361 213 LINE",
"351 146 OFFCURVE",
"349 60 OFFCURVE",
"337 -19 CURVE SMOOTH",
"320 -136 OFFCURVE",
"282 -236 OFFCURVE",
"169 -236 CURVE SMOOTH",
"145 -236 OFFCURVE",
"113 -228 OFFCURVE",
"100 -208 CURVE",
"104 -199 OFFCURVE",
"106 -190 OFFCURVE",
"106 -182 CURVE SMOOTH",
"106 -151 OFFCURVE",
"85 -136 OFFCURVE",
"61 -136 CURVE SMOOTH",
"34 -136 OFFCURVE",
"14 -159 OFFCURVE",
"14 -187 CURVE SMOOTH",
"16 -252 OFFCURVE",
"114 -271 OFFCURVE",
"162 -271 CURVE SMOOTH"
);
},
{
closed = 1;
nodes = (
"140 36 OFFCURVE",
"122 108 OFFCURVE",
"122 200 CURVE SMOOTH",
"122 312 OFFCURVE",
"167 475 OFFCURVE",
"314 475 CURVE SMOOTH",
"338 475 OFFCURVE",
"362 471 OFFCURVE",
"380 462 CURVE",
"371 291 OFFCURVE",
"288 36 OFFCURVE",
"194 36 CURVE SMOOTH"
);
}
);
width = 518;
},
{
anchors = (
{
name = top;
position = "{301, 500}";
}
);
layerId = "6B2A2AD0-3CEC-4B3D-96BE-6A11A3496094";
paths = (
{
closed = 1;
nodes = (
"354 -271 OFFCURVE",
"421 -149 OFFCURVE",
"438 40 CURVE SMOOTH",
"449 156 OFFCURVE",
"465 395 OFFCURVE",
"470 490 CURVE",
"416 503 OFFCURVE",
"354 511 OFFCURVE",
"317 511 CURVE SMOOTH",
"113 511 OFFCURVE",
"27 356 OFFCURVE",
"27 171 CURVE SMOOTH",
"27 47 OFFCURVE",
"92 -11 OFFCURVE",
"165 -11 CURVE SMOOTH",
"226 -11 OFFCURVE",
"285 21 OFFCURVE",
"335 138 CURVE",
"336 138 LINE",
"320 84 OFFCURVE",
"311 37 OFFCURVE",
"302 -33 CURVE SMOOTH",
"290 -132 OFFCURVE",
"271 -205 OFFCURVE",
"191 -205 CURVE SMOOTH",
"176 -205 OFFCURVE",
"149 -198 OFFCURVE",
"143 -188 CURVE",
"147 -179 OFFCURVE",
"149 -167 OFFCURVE",
"149 -158 CURVE SMOOTH",
"149 -120 OFFCURVE",
"122 -95 OFFCURVE",
"86 -95 CURVE SMOOTH",
"39 -95 OFFCURVE",
"19 -139 OFFCURVE",
"19 -168 CURVE SMOOTH",
"19 -235 OFFCURVE",
"83 -271 OFFCURVE",
"182 -271 CURVE SMOOTH"
);
},
{
closed = 1;
nodes = (
"182 78 OFFCURVE",
"163 111 OFFCURVE",
"163 166 CURVE SMOOTH",
"163 344 OFFCURVE",
"201 444 OFFCURVE",
"293 445 CURVE SMOOTH",
"310 445 OFFCURVE",
"331 442 OFFCURVE",
"339 439 CURVE",
"331 289 OFFCURVE",
"278 78 OFFCURVE",
"206 78 CURVE SMOOTH"
);
}
);
width = 520;
}
);
leftKerningGroup = g;
rightKerningGroup = g;
unicode = 0067;
},
{
color = 4;
glyphname = gstroke;
layers = (
{
components = (
{
name = g;
}
);
layerId = "6B2A2AD0-3CEC-4B3D-96BE-6A11A3496094";
paths = (
{
closed = 1;
nodes = (
"177 -62 LINE",
"175 -115 LINE",
"480 -111 LINE",
"482 -62 LINE"
);
}
);
width = 520;
},
{
components = (
{
name = g;
}
);
layerId = UUID0;
paths = (
{
closed = 1;
nodes = (
"188 -52 LINE",
"186 -95 LINE",
"471 -91 LINE",
"473 -52 LINE"
);
}
);
width = 518;
}
);
unicode = 01E5;
},
{
glyphname = h;
layers = (
{
anchors = (
{
name = center;
position = "{299, 256}";
},
{
name = top;
position = "{163, 697}";
}
);
layerId = UUID0;
paths = (
{
closed = 1;
nodes = (
"512 -11 OFFCURVE",
"550 83 OFFCURVE",
"559 129 CURVE",
"534 136 LINE",
"514 64 OFFCURVE",
"483 39 OFFCURVE",
"461 39 CURVE SMOOTH",
"437 39 OFFCURVE",
"434 61 OFFCURVE",
"434 85 CURVE SMOOTH",
"434 143 OFFCURVE",
"462 271 OFFCURVE",
"462 381 CURVE SMOOTH",
"462 451 OFFCURVE",
"432 511 OFFCURVE",
"352 511 CURVE SMOOTH",
"287 511 OFFCURVE",
"223 470 OFFCURVE",
"155 288 CURVE",
"152 288 LINE",
"157 358 OFFCURVE",
"173 517 OFFCURVE",
"182 585 CURVE SMOOTH",
"188 630 OFFCURVE",
"201 705 OFFCURVE",
"209 755 CURVE",
"180 755 LINE",
"164 741 OFFCURVE",
"141 728 OFFCURVE",
"53 728 CURVE",
"49 688 LINE",
"119 692 LINE",
"116 675 OFFCURVE",
"115 673 OFFCURVE",
"110 639 CURVE SMOOTH",
"87 484 OFFCURVE",
"60 117 OFFCURVE",
"60 26 CURVE SMOOTH",
"60 15 OFFCURVE",
"60 9 OFFCURVE",
"61 0 CURVE",
"143 0 LINE",
"142 17 OFFCURVE",
"141 33 OFFCURVE",
"141 53 CURVE SMOOTH",
"141 238 OFFCURVE",
"243 464 OFFCURVE",
"332 464 CURVE SMOOTH",
"371 464 OFFCURVE",
"380 426 OFFCURVE",
"380 403 CURVE SMOOTH",
"380 298 OFFCURVE",
"351 160 OFFCURVE",
"351 85 CURVE SMOOTH",
"351 23 OFFCURVE",
"369 -11 OFFCURVE",
"432 -11 CURVE SMOOTH"
);
}
);
width = 572;
},
{
anchors = (
{
name = center;
position = "{287, 250}";
},
{
name = top;
position = "{175, 705}";
}
);
layerId = "6B2A2AD0-3CEC-4B3D-96BE-6A11A3496094";
paths = (
{
closed = 1;
nodes = (
"507 -11 OFFCURVE",
"557 88 OFFCURVE",
"568 145 CURVE",
"514 161 LINE",
"497 101 OFFCURVE",
"481 82 OFFCURVE",
"466 82 CURVE SMOOTH",
"458 82 OFFCURVE",
"451 86 OFFCURVE",
"451 108 CURVE SMOOTH",
"451 181 OFFCURVE",
"476 284 OFFCURVE",
"476 357 CURVE SMOOTH",
"476 451 OFFCURVE",
"439 511 OFFCURVE",
"354 511 CURVE SMOOTH",
"297 511 OFFCURVE",
"229 480 OFFCURVE",
"183 360 CURVE",
"182 360 LINE",
"197 431 OFFCURVE",
"208 529 OFFCURVE",
"210 551 CURVE SMOOTH",
"216 591 OFFCURVE",
"228 697 OFFCURVE",
"235 755 CURVE",
"181 755 LINE",
"167 742 OFFCURVE",
"122 725 OFFCURVE",
"29 725 CURVE",
"25 649 LINE",
"95 652 LINE",
"89 625 OFFCURVE",
"84 582 OFFCURVE",
"82 559 CURVE SMOOTH",
"68 440 OFFCURVE",
"51 212 OFFCURVE",
"51 48 CURVE SMOOTH",
"51 35 OFFCURVE",
"51 28 OFFCURVE",
"54 0 CURVE",
"182 0 LINE",
"181 16 OFFCURVE",
"179 54 OFFCURVE",
"179 72 CURVE SMOOTH",
"179 212 OFFCURVE",
"258 419 OFFCURVE",
"319 419 CURVE SMOOTH",
"339 419 OFFCURVE",
"347 407 OFFCURVE",
"347 377 CURVE SMOOTH",
"347 315 OFFCURVE",
"322 181 OFFCURVE",
"322 102 CURVE SMOOTH",
"322 31 OFFCURVE",
"343 -11 OFFCURVE",
"417 -11 CURVE SMOOTH"
);
}
);
width = 574;
}
);
leftKerningGroup = h;
rightKerningGroup = h;
unicode = 0068;
},
{
color = 4;
glyphname = hbar;
layers = (
{
components = (
{
name = h;
transform = "{1, 0, 0, 1, 23, 0}";
}
);
layerId = UUID0;
paths = (
{
closed = 1;
nodes = (
"45 618 LINE",
"43 575 LINE",
"388 579 LINE",
"390 618 LINE"
);
}
);
width = 594;
},
{
components = (
{
name = h;
}
);
layerId = "6B2A2AD0-3CEC-4B3D-96BE-6A11A3496094";
paths = (
{
closed = 1;
nodes = (
"23 608 LINE",
"21 555 LINE",
"356 559 LINE",
"358 608 LINE"
);
}
);
width = 574;
}
);
leftMetricsKey = h;
rightMetricsKey = n;
unicode = 0127;
},
{
color = 7;
glyphname = hbar.001;
layers = (
{
components = (
{
name = h;
}
);
layerId = UUID0;
paths = (
{
closed = 1;
nodes = (
"11 618 LINE",
"11 575 LINE",
"356 579 LINE",
"356 618 LINE"
);
}
);
width = 599;
},
{
components = (
{
name = h;
}
);
layerId = "6B2A2AD0-3CEC-4B3D-96BE-6A11A3496094";
paths = (
{
closed = 1;
nodes = (
"22 608 LINE",
"22 555 LINE",
"357 559 LINE",
"357 608 LINE"
);
}
);
width = 621;
}
);
},
{
glyphname = i;
layers = (
{
anchors = (
{
name = bottom;
position = "{149, 0}";
}
);
layerId = UUID0;
paths = (
{
closed = 1;
nodes = (
"53 511 OFFCURVE",
"16 417 OFFCURVE",
"7 370 CURVE",
"35 364 LINE",
"55 435 OFFCURVE",
"86 461 OFFCURVE",
"108 461 CURVE SMOOTH",
"131 461 OFFCURVE",
"136 433 OFFCURVE",
"136 416 CURVE SMOOTH",
"136 302 OFFCURVE",
"97 199 OFFCURVE",
"97 83 CURVE SMOOTH",
"97 21 OFFCURVE",
"126 -11 OFFCURVE",
"187 -11 CURVE SMOOTH",
"262 -11 OFFCURVE",
"299 74 OFFCURVE",
"311 130 CURVE",
"283 136 LINE",
"263 65 OFFCURVE",
"232 39 OFFCURVE",
"210 39 CURVE SMOOTH",
"188 39 OFFCURVE",
"179 54 OFFCURVE",
"179 81 CURVE SMOOTH",
"179 193 OFFCURVE",
"217 327 OFFCURVE",
"217 407 CURVE SMOOTH",
"217 469 OFFCURVE",
"189 511 OFFCURVE",
"133 511 CURVE SMOOTH"
);
},
{
closed = 1;
nodes = (
"161 727 OFFCURVE",
"136 704 OFFCURVE",
"136 670 CURVE SMOOTH",
"136 636 OFFCURVE",
"160 614 OFFCURVE",
"189 614 CURVE SMOOTH",
"218 614 OFFCURVE",
"243 636 OFFCURVE",
"243 670 CURVE SMOOTH",
"243 704 OFFCURVE",
"221 727 OFFCURVE",
"190 727 CURVE SMOOTH"
);
}
);
width = 324;
},
{
anchors = (
{
name = bottom;
position = "{159, 0}";
}
);
layerId = "6B2A2AD0-3CEC-4B3D-96BE-6A11A3496094";
paths = (
{
closed = 1;
nodes = (
"66 511 OFFCURVE",
"13 412 OFFCURVE",
"2 355 CURVE",
"56 339 LINE",
"73 399 OFFCURVE",
"89 418 OFFCURVE",
"104 418 CURVE SMOOTH",
"112 418 OFFCURVE",
"120 414 OFFCURVE",
"120 392 CURVE SMOOTH",
"120 329 OFFCURVE",
"87 180 OFFCURVE",
"87 102 CURVE SMOOTH",
"87 31 OFFCURVE",
"109 -11 OFFCURVE",
"183 -11 CURVE SMOOTH",
"273 -11 OFFCURVE",
"324 88 OFFCURVE",
"335 145 CURVE",
"281 161 LINE",
"264 101 OFFCURVE",
"248 82 OFFCURVE",
"232 82 CURVE SMOOTH",
"225 82 OFFCURVE",
"217 86 OFFCURVE",
"217 108 CURVE SMOOTH",
"217 152 OFFCURVE",
"249 330 OFFCURVE",
"249 395 CURVE SMOOTH",
"249 466 OFFCURVE",
"225 511 OFFCURVE",
"156 511 CURVE SMOOTH"
);
},
{
closed = 1;
nodes = (
"151 763 OFFCURVE",
"113 726 OFFCURVE",
"111 680 CURVE SMOOTH",
"109 635 OFFCURVE",
"139 599 OFFCURVE",
"185 599 CURVE SMOOTH",
"229 599 OFFCURVE",
"261 635 OFFCURVE",
"263 680 CURVE SMOOTH",
"265 726 OFFCURVE",
"235 763 OFFCURVE",
"191 763 CURVE SMOOTH"
);
}
);
width = 344;
}
);
leftKerningGroup = i;
rightKerningGroup = i;
unicode = 0069;
},
{
glyphname = idotless;
layers = (
{
anchors = (
{
name = bottom;
position = "{149, 0}";
},
{
name = ogonek;
position = "{239, 5}";
},
{
name = top;
position = "{175, 512}";
}
);
layerId = UUID0;
paths = (
{
closed = 1;
nodes = (
"53 511 OFFCURVE",
"16 417 OFFCURVE",
"7 370 CURVE",
"35 364 LINE",
"55 435 OFFCURVE",
"86 461 OFFCURVE",
"108 461 CURVE SMOOTH",
"131 461 OFFCURVE",
"136 433 OFFCURVE",
"136 416 CURVE SMOOTH",
"136 302 OFFCURVE",
"97 199 OFFCURVE",
"97 83 CURVE SMOOTH",
"97 21 OFFCURVE",
"126 -11 OFFCURVE",
"187 -11 CURVE SMOOTH",
"262 -11 OFFCURVE",
"299 74 OFFCURVE",
"311 130 CURVE",
"283 136 LINE",
"263 65 OFFCURVE",
"232 39 OFFCURVE",
"210 39 CURVE SMOOTH",
"188 39 OFFCURVE",
"179 54 OFFCURVE",
"179 81 CURVE SMOOTH",
"179 193 OFFCURVE",
"217 327 OFFCURVE",
"217 407 CURVE SMOOTH",
"217 469 OFFCURVE",
"189 511 OFFCURVE",
"133 511 CURVE SMOOTH"
);
}
);
width = 324;
},
{
anchors = (
{
name = bottom;
position = "{159, 0}";
},
{
name = ogonek;
position = "{247, 8}";
},
{
name = top;
position = "{185, 500}";
}
);
layerId = "6B2A2AD0-3CEC-4B3D-96BE-6A11A3496094";
paths = (
{
closed = 1;
nodes = (
"66 511 OFFCURVE",
"13 412 OFFCURVE",
"2 355 CURVE",
"56 339 LINE",
"73 399 OFFCURVE",
"89 418 OFFCURVE",
"104 418 CURVE SMOOTH",
"112 418 OFFCURVE",
"120 414 OFFCURVE",
"120 392 CURVE SMOOTH",
"120 329 OFFCURVE",
"87 180 OFFCURVE",
"87 102 CURVE SMOOTH",
"87 31 OFFCURVE",
"109 -11 OFFCURVE",
"183 -11 CURVE SMOOTH",
"273 -11 OFFCURVE",
"324 88 OFFCURVE",
"335 145 CURVE",
"281 161 LINE",
"264 101 OFFCURVE",
"248 82 OFFCURVE",
"232 82 CURVE SMOOTH",
"225 82 OFFCURVE",
"217 86 OFFCURVE",
"217 108 CURVE SMOOTH",
"217 152 OFFCURVE",
"249 330 OFFCURVE",
"249 395 CURVE SMOOTH",
"249 466 OFFCURVE",
"225 511 OFFCURVE",
"156 511 CURVE SMOOTH"
);
}
);
width = 344;
}
);
leftKerningGroup = i;
rightKerningGroup = i;
unicode = 0131;
},
{
glyphname = icircumflex;
layers = (
{
layerId = UUID0;
paths = (
{
closed = 1;
nodes = (
"53 511 OFFCURVE",
"16 417 OFFCURVE",
"7 370 CURVE",
"35 364 LINE",
"55 435 OFFCURVE",
"86 461 OFFCURVE",
"108 461 CURVE SMOOTH",
"131 461 OFFCURVE",
"136 433 OFFCURVE",
"136 416 CURVE SMOOTH",
"136 302 OFFCURVE",
"97 199 OFFCURVE",
"97 83 CURVE SMOOTH",
"97 21 OFFCURVE",
"126 -11 OFFCURVE",
"187 -11 CURVE SMOOTH",
"262 -11 OFFCURVE",
"299 74 OFFCURVE",
"311 130 CURVE",
"283 136 LINE",
"263 65 OFFCURVE",
"232 39 OFFCURVE",
"210 39 CURVE SMOOTH",
"188 39 OFFCURVE",
"179 54 OFFCURVE",
"179 81 CURVE SMOOTH",
"179 193 OFFCURVE",
"217 327 OFFCURVE",
"217 407 CURVE SMOOTH",
"217 469 OFFCURVE",
"189 511 OFFCURVE",
"133 511 CURVE SMOOTH"
);
},
{
closed = 1;
nodes = (
"169 776 LINE",
"11 619 LINE",
"33 593 LINE",
"159 702 LINE",
"161 702 LINE",
"271 589 LINE",
"297 615 LINE",
"171 776 LINE"
);
}
);
width = 324;
},
{
layerId = "6B2A2AD0-3CEC-4B3D-96BE-6A11A3496094";
paths = (
{
closed = 1;
nodes = (
"66 511 OFFCURVE",
"13 412 OFFCURVE",
"2 355 CURVE",
"56 339 LINE",
"73 399 OFFCURVE",
"89 418 OFFCURVE",
"104 418 CURVE SMOOTH",
"112 418 OFFCURVE",
"120 414 OFFCURVE",
"120 392 CURVE SMOOTH",
"120 329 OFFCURVE",
"87 180 OFFCURVE",
"87 102 CURVE SMOOTH",
"87 31 OFFCURVE",
"109 -11 OFFCURVE",
"183 -11 CURVE SMOOTH",
"273 -11 OFFCURVE",
"324 88 OFFCURVE",
"335 145 CURVE",
"281 161 LINE",
"264 101 OFFCURVE",
"248 82 OFFCURVE",
"232 82 CURVE SMOOTH",
"225 82 OFFCURVE",
"217 86 OFFCURVE",
"217 108 CURVE SMOOTH",
"217 152 OFFCURVE",
"249 330 OFFCURVE",
"249 395 CURVE SMOOTH",
"249 466 OFFCURVE",
"225 511 OFFCURVE",
"156 511 CURVE SMOOTH"
);
},
{
closed = 1;
nodes = (
"190 783 LINE",
"21 618 LINE",
"56 571 LINE",
"179 671 LINE",
"180 671 LINE",
"293 567 LINE",
"337 613 LINE",
"200 783 LINE"
);
}
);
width = 344;
}
);
leftKerningGroup = i;
rightKerningGroup = i;
unicode = 00EE;
},
{
glyphname = j;
layers = (
{
layerId = UUID0;
paths = (
{
closed = 1;
nodes = (
"61 511 OFFCURVE",
"26 413 OFFCURVE",
"19 366 CURVE",
"47 360 LINE",
"65 431 OFFCURVE",
"94 458 OFFCURVE",
"114 459 CURVE SMOOTH",
"137 460 OFFCURVE",
"144 436 OFFCURVE",
"145 417 CURVE SMOOTH",
"148 358 OFFCURVE",
"145 274 OFFCURVE",
"139 200 CURVE SMOOTH",
"136 161 OFFCURVE",
"115 -230 OFFCURVE",
"1 -230 CURVE SMOOTH",
"-6 -230 OFFCURVE",
"-14 -228 OFFCURVE",
"-19 -225 CURVE",
"-15 -190 OFFCURVE",
"-34 -170 OFFCURVE",
"-61 -170 CURVE SMOOTH",
"-90 -170 OFFCURVE",
"-104 -194 OFFCURVE",
"-104 -217 CURVE SMOOTH",
"-104 -257 OFFCURVE",
"-62 -271 OFFCURVE",
"-28 -271 CURVE SMOOTH",
"167 -271 OFFCURVE",
"196 -12 OFFCURVE",
"217 192 CURVE SMOOTH",
"225 274 OFFCURVE",
"227 354 OFFCURVE",
"227 409 CURVE SMOOTH",
"227 477 OFFCURVE",
"197 511 OFFCURVE",
"144 511 CURVE SMOOTH"
);
},
{
closed = 1;
nodes = (
"158 728 OFFCURVE",
"134 704 OFFCURVE",
"134 670 CURVE SMOOTH",
"134 636 OFFCURVE",
"158 615 OFFCURVE",
"187 615 CURVE SMOOTH",
"216 615 OFFCURVE",
"241 637 OFFCURVE",
"241 671 CURVE SMOOTH",
"241 705 OFFCURVE",
"218 728 OFFCURVE",
"187 728 CURVE SMOOTH"
);
}
);
width = 297;
},
{
layerId = "6B2A2AD0-3CEC-4B3D-96BE-6A11A3496094";
paths = (
{
closed = 1;
nodes = (
"66 511 OFFCURVE",
"19 412 OFFCURVE",
"7 355 CURVE",
"62 339 LINE",
"79 399 OFFCURVE",
"95 418 OFFCURVE",
"110 418 CURVE SMOOTH",
"117 418 OFFCURVE",
"125 414 OFFCURVE",
"125 392 CURVE SMOOTH",
"125 330 OFFCURVE",
"121 233 OFFCURVE",
"115 145 CURVE SMOOTH",
"109 71 OFFCURVE",
"87 -204 OFFCURVE",
"19 -205 CURVE SMOOTH",
"13 -205 OFFCURVE",
"6 -204 OFFCURVE",
"4 -203 CURVE",
"12 -162 OFFCURVE",
"-16 -135 OFFCURVE",
"-45 -134 CURVE SMOOTH",
"-92 -132 OFFCURVE",
"-108 -174 OFFCURVE",
"-108 -197 CURVE SMOOTH",
"-108 -241 OFFCURVE",
"-71 -271 OFFCURVE",
"-10 -271 CURVE SMOOTH",
"183 -271 OFFCURVE",
"227 -42 OFFCURVE",
"243 134 CURVE SMOOTH",
"251 226 OFFCURVE",
"255 327 OFFCURVE",
"254 395 CURVE SMOOTH",
"253 466 OFFCURVE",
"226 511 OFFCURVE",
"157 511 CURVE SMOOTH"
);
},
{
closed = 1;
nodes = (
"156 763 OFFCURVE",
"118 726 OFFCURVE",
"116 680 CURVE SMOOTH",
"114 635 OFFCURVE",
"144 599 OFFCURVE",
"189 599 CURVE SMOOTH",
"234 599 OFFCURVE",
"266 635 OFFCURVE",
"268 680 CURVE SMOOTH",
"270 726 OFFCURVE",
"240 763 OFFCURVE",
"196 763 CURVE SMOOTH"
);
}
);
width = 313;
}
);
leftKerningGroup = j;
rightKerningGroup = j;
unicode = 006A;
},
{
color = 7;
glyphname = jcircumflex;
layers = (
{
layerId = UUID0;
paths = (
{
closed = 1;
nodes = (
"61 511 OFFCURVE",
"26 413 OFFCURVE",
"19 366 CURVE",
"47 360 LINE",
"65 431 OFFCURVE",
"94 458 OFFCURVE",
"114 459 CURVE SMOOTH",
"137 460 OFFCURVE",
"144 436 OFFCURVE",
"145 417 CURVE SMOOTH",
"148 358 OFFCURVE",
"145 274 OFFCURVE",
"139 200 CURVE SMOOTH",
"136 161 OFFCURVE",
"115 -230 OFFCURVE",
"1 -230 CURVE SMOOTH",
"-6 -230 OFFCURVE",
"-14 -228 OFFCURVE",
"-19 -225 CURVE",
"-15 -190 OFFCURVE",
"-34 -170 OFFCURVE",
"-61 -170 CURVE SMOOTH",
"-90 -170 OFFCURVE",
"-104 -194 OFFCURVE",
"-104 -217 CURVE SMOOTH",
"-104 -257 OFFCURVE",
"-62 -271 OFFCURVE",
"-28 -271 CURVE SMOOTH",
"167 -271 OFFCURVE",
"196 -12 OFFCURVE",
"217 192 CURVE SMOOTH",
"225 274 OFFCURVE",
"227 354 OFFCURVE",
"227 409 CURVE SMOOTH",
"227 477 OFFCURVE",
"197 511 OFFCURVE",
"144 511 CURVE SMOOTH"
);
},
{
closed = 1;
nodes = (
"169 776 LINE",
"11 619 LINE",
"33 593 LINE",
"159 702 LINE",
"161 702 LINE",
"271 589 LINE",
"297 615 LINE",
"171 776 LINE"
);
}
);
width = 293;
},
{
layerId = "6B2A2AD0-3CEC-4B3D-96BE-6A11A3496094";
paths = (
{
closed = 1;
nodes = (
"66 511 OFFCURVE",
"19 412 OFFCURVE",
"7 355 CURVE",
"62 339 LINE",
"79 399 OFFCURVE",
"95 418 OFFCURVE",
"110 418 CURVE SMOOTH",
"117 418 OFFCURVE",
"125 414 OFFCURVE",
"125 392 CURVE SMOOTH",
"125 330 OFFCURVE",
"121 233 OFFCURVE",
"115 145 CURVE SMOOTH",
"109 71 OFFCURVE",
"87 -204 OFFCURVE",
"19 -205 CURVE SMOOTH",
"13 -205 OFFCURVE",
"6 -204 OFFCURVE",
"4 -203 CURVE",
"12 -162 OFFCURVE",
"-16 -135 OFFCURVE",
"-45 -134 CURVE SMOOTH",
"-92 -132 OFFCURVE",
"-108 -174 OFFCURVE",
"-108 -197 CURVE SMOOTH",
"-108 -241 OFFCURVE",
"-71 -271 OFFCURVE",
"-10 -271 CURVE SMOOTH",
"183 -271 OFFCURVE",
"227 -42 OFFCURVE",
"243 134 CURVE SMOOTH",
"251 226 OFFCURVE",
"255 327 OFFCURVE",
"254 395 CURVE SMOOTH",
"253 466 OFFCURVE",
"226 511 OFFCURVE",
"157 511 CURVE SMOOTH"
);
},
{
closed = 1;
nodes = (
"190 783 LINE",
"21 618 LINE",
"56 571 LINE",
"179 671 LINE",
"180 671 LINE",
"293 567 LINE",
"337 613 LINE",
"200 783 LINE"
);
}
);
width = 325;
}
);
leftKerningGroup = j;
rightKerningGroup = j;
unicode = 0135;
},
{
glyphname = k;
layers = (
{
anchors = (
{
name = bottom;
position = "{266, 0}";
},
{
name = top;
position = "{195, 707}";
}
);
layerId = UUID0;
paths = (
{
closed = 1;
nodes = (
"446 -11 OFFCURVE",
"480 45 OFFCURVE",
"492 102 CURVE",
"464 107 LINE",
"452 58 OFFCURVE",
"436 43 OFFCURVE",
"414 45 CURVE SMOOTH",
"386 48 OFFCURVE",
"365 103 OFFCURVE",
"344 150 CURVE SMOOTH",
"322 200 OFFCURVE",
"302 219 OFFCURVE",
"256 220 CURVE",
"256 221 LINE",
"387 245 OFFCURVE",
"449 332 OFFCURVE",
"449 403 CURVE SMOOTH",
"449 457 OFFCURVE",
"421 511 OFFCURVE",
"352 511 CURVE SMOOTH",
"281 511 OFFCURVE",
"216 465 OFFCURVE",
"156 288 CURVE",
"153 288 LINE",
"160 388 OFFCURVE",
"170 492 OFFCURVE",
"182 585 CURVE SMOOTH",
"188 630 OFFCURVE",
"197 705 OFFCURVE",
"207 755 CURVE",
"178 755 LINE",
"162 741 OFFCURVE",
"141 728 OFFCURVE",
"53 728 CURVE",
"49 688 LINE",
"72 689 OFFCURVE",
"96 691 OFFCURVE",
"119 692 CURVE",
"116 675 OFFCURVE",
"115 673 OFFCURVE",
"110 639 CURVE SMOOTH",
"86 482 OFFCURVE",
"60 118 OFFCURVE",
"60 26 CURVE SMOOTH",
"60 15 OFFCURVE",
"60 9 OFFCURVE",
"61 0 CURVE",
"143 0 LINE",
"142 17 OFFCURVE",
"141 33 OFFCURVE",
"141 53 CURVE SMOOTH",
"141 102 OFFCURVE",
"150 159 OFFCURVE",
"165 214 CURVE",
"174 214 OFFCURVE",
"182 215 OFFCURVE",
"191 215 CURVE",
"229 214 OFFCURVE",
"244 186 OFFCURVE",
"269 120 CURVE SMOOTH",
"304 28 OFFCURVE",
"333 -11 OFFCURVE",
"384 -11 CURVE SMOOTH"
);
},
{
closed = 1;
nodes = (
"208 358 OFFCURVE",
"267 460 OFFCURVE",
"321 464 CURVE SMOOTH",
"362 467 OFFCURVE",
"368 426 OFFCURVE",
"368 401 CURVE SMOOTH",
"368 299 OFFCURVE",
"300 243 OFFCURVE",
"173 243 CURVE"
);
}
);
width = 520;
},
{
anchors = (
{
name = bottom;
position = "{264, 0}";
},
{
name = top;
position = "{215, 705}";
}
);
layerId = "6B2A2AD0-3CEC-4B3D-96BE-6A11A3496094";
paths = (
{
closed = 1;
nodes = (
"441 -11 OFFCURVE",
"486 68 OFFCURVE",
"501 140 CURVE",
"447 157 LINE",
"432 105 OFFCURVE",
"418 88 OFFCURVE",
"404 88 CURVE SMOOTH",
"387 88 OFFCURVE",
"375 115 OFFCURVE",
"356 158 CURVE SMOOTH",
"345 186 OFFCURVE",
"325 219 OFFCURVE",
"269 221 CURVE",
"269 222 LINE",
"412 252 OFFCURVE",
"459 344 OFFCURVE",
"459 405 CURVE SMOOTH",
"459 470 OFFCURVE",
"425 511 OFFCURVE",
"351 511 CURVE SMOOTH",
"299 511 OFFCURVE",
"235 479 OFFCURVE",
"191 391 CURVE",
"190 391 LINE",
"197 427 OFFCURVE",
"205 466 OFFCURVE",
"210 521 CURVE SMOOTH",
"219 604 OFFCURVE",
"231 682 OFFCURVE",
"241 755 CURVE",
"187 755 LINE",
"172 742 OFFCURVE",
"127 725 OFFCURVE",
"34 725 CURVE",
"30 649 LINE",
"44 650 OFFCURVE",
"80 651 OFFCURVE",
"102 652 CURVE",
"96 623 OFFCURVE",
"90 585 OFFCURVE",
"87 559 CURVE SMOOTH",
"58 334 OFFCURVE",
"46 87 OFFCURVE",
"46 49 CURVE SMOOTH",
"46 36 OFFCURVE",
"46 28 OFFCURVE",
"49 0 CURVE",
"179 0 LINE",
"177 18 OFFCURVE",
"176 49 OFFCURVE",
"176 67 CURVE SMOOTH",
"176 102 OFFCURVE",
"180 160 OFFCURVE",
"188 198 CURVE",
"195 200 OFFCURVE",
"201 198 OFFCURVE",
"206 194 CURVE SMOOTH",
"221 184 OFFCURVE",
"230 154 OFFCURVE",
"243 118 CURVE SMOOTH",
"279 20 OFFCURVE",
"311 -11 OFFCURVE",
"370 -11 CURVE SMOOTH"
);
},
{
closed = 1;
nodes = (
"218 380 OFFCURVE",
"280 445 OFFCURVE",
"313 445 CURVE SMOOTH",
"331 445 OFFCURVE",
"339 427 OFFCURVE",
"339 401 CURVE SMOOTH",
"339 315 OFFCURVE",
"294 262 OFFCURVE",
"195 262 CURVE"
);
}
);
width = 518;
}
);
leftKerningGroup = h;
rightKerningGroup = k;
unicode = 006B;
},
{
glyphname = l;
layers = (
{
anchors = (
{
name = bottom;
position = "{164, 0}";
},
{
name = top;
position = "{155, 705}";
},
{
name = topright;
position = "{261, 512}";
}
);
layerId = UUID0;
paths = (
{
closed = 1;
nodes = (
"186 755 LINE",
"169 741 OFFCURVE",
"146 728 OFFCURVE",
"59 728 CURVE",
"54 688 LINE",
"78 689 OFFCURVE",
"101 691 OFFCURVE",
"125 692 CURVE",
"123 678 OFFCURVE",
"122 674 OFFCURVE",
"116 638 CURVE SMOOTH",
"92 462 OFFCURVE",
"60 154 OFFCURVE",
"62 70 CURVE SMOOTH",
"63 17 OFFCURVE",
"87 -11 OFFCURVE",
"142 -11 CURVE SMOOTH",
"222 -11 OFFCURVE",
"262 83 OFFCURVE",
"271 129 CURVE",
"243 136 LINE",
"223 64 OFFCURVE",
"192 39 OFFCURVE",
"170 39 CURVE SMOOTH",
"145 39 OFFCURVE",
"143 65 OFFCURVE",
"143 91 CURVE SMOOTH",
"143 188 OFFCURVE",
"169 444 OFFCURVE",
"188 585 CURVE SMOOTH",
"193 630 OFFCURVE",
"207 705 OFFCURVE",
"214 755 CURVE"
);
}
);
width = 283;
},
{
anchors = (
{
name = bottom;
position = "{173, 0}";
},
{
name = top;
position = "{152, 701}";
},
{
name = topright;
position = "{293, 500}";
}
);
layerId = "6B2A2AD0-3CEC-4B3D-96BE-6A11A3496094";
paths = (
{
closed = 1;
nodes = (
"189 755 LINE",
"174 742 OFFCURVE",
"130 725 OFFCURVE",
"38 725 CURVE",
"34 649 LINE",
"48 650 OFFCURVE",
"83 651 OFFCURVE",
"104 652 CURVE",
"99 623 OFFCURVE",
"94 585 OFFCURVE",
"91 559 CURVE SMOOTH",
"71 389 OFFCURVE",
"49 206 OFFCURVE",
"49 85 CURVE SMOOTH",
"49 15 OFFCURVE",
"91 -11 OFFCURVE",
"139 -11 CURVE SMOOTH",
"235 -11 OFFCURVE",
"276 78 OFFCURVE",
"293 145 CURVE",
"239 161 LINE",
"222 101 OFFCURVE",
"206 82 OFFCURVE",
"190 82 CURVE SMOOTH",
"183 82 OFFCURVE",
"176 87 OFFCURVE",
"176 111 CURVE SMOOTH",
"176 163 OFFCURVE",
"187 264 OFFCURVE",
"224 585 CURVE SMOOTH",
"229 636 OFFCURVE",
"236 692 OFFCURVE",
"243 755 CURVE"
);
}
);
width = 303;
}
);
leftKerningGroup = l;
rightKerningGroup = l;
unicode = 006C;
},
{
glyphname = lslash;
layers = (
{
layerId = UUID0;
paths = (
{
closed = 1;
nodes = (
"188 755 LINE",
"172 741 OFFCURVE",
"149 728 OFFCURVE",
"61 728 CURVE",
"57 688 LINE",
"81 689 OFFCURVE",
"104 691 OFFCURVE",
"128 692 CURVE",
"125 678 OFFCURVE",
"124 674 OFFCURVE",
"119 638 CURVE",
"107 556 OFFCURVE",
"94 445 OFFCURVE",
"83 342 CURVE",
"2 285 LINE",
"-1 229 LINE",
"78 285 LINE",
"69 189 OFFCURVE",
"63 107 OFFCURVE",
"64 70 CURVE SMOOTH",
"65 17 OFFCURVE",
"90 -11 OFFCURVE",
"144 -11 CURVE SMOOTH",
"224 -11 OFFCURVE",
"265 83 OFFCURVE",
"274 129 CURVE",
"245 136 LINE",
"225 64 OFFCURVE",
"195 39 OFFCURVE",
"173 39 CURVE SMOOTH",
"147 39 OFFCURVE",
"145 65 OFFCURVE",
"145 91 CURVE SMOOTH",
"145 143 OFFCURVE",
"153 242 OFFCURVE",
"163 344 CURVE",
"258 411 LINE",
"261 465 LINE",
"168 400 LINE",
"191 597 OFFCURVE",
"185 556 OFFCURVE",
"217 755 CURVE"
);
}
);
width = 286;
},
{
layerId = "6B2A2AD0-3CEC-4B3D-96BE-6A11A3496094";
paths = (
{
closed = 1;
nodes = (
"210 755 LINE",
"195 742 OFFCURVE",
"151 725 OFFCURVE",
"59 725 CURVE",
"55 649 LINE",
"69 650 OFFCURVE",
"104 651 OFFCURVE",
"125 652 CURVE",
"120 623 OFFCURVE",
"115 585 OFFCURVE",
"112 559 CURVE SMOOTH",
"104 489 OFFCURVE",
"95 417 OFFCURVE",
"87 348 CURVE",
"9 294 LINE",
"3 185 LINE",
"77 235 LINE",
"72 180 OFFCURVE",
"70 128 OFFCURVE",
"70 85 CURVE SMOOTH",
"70 15 OFFCURVE",
"112 -11 OFFCURVE",
"160 -11 CURVE SMOOTH",
"256 -11 OFFCURVE",
"297 78 OFFCURVE",
"314 145 CURVE",
"260 161 LINE",
"243 101 OFFCURVE",
"227 82 OFFCURVE",
"211 82 CURVE SMOOTH",
"204 82 OFFCURVE",
"197 87 OFFCURVE",
"197 111 CURVE SMOOTH",
"197 146 OFFCURVE",
"202 203 OFFCURVE",
"216 331 CURVE",
"292 384 LINE",
"298 491 LINE",
"229 443 LINE",
"241 547 OFFCURVE",
"252 651 OFFCURVE",
"264 755 CURVE"
);
}
);
width = 325;
}
);
leftKerningGroup = l;
rightKerningGroup = l;
unicode = 0142;
},
{
glyphname = m;
layers = (
{
layerId = UUID0;
paths = (
{
closed = 1;
nodes = (
"813 -11 OFFCURVE",
"855 83 OFFCURVE",
"864 129 CURVE",
"836 136 LINE",
"816 64 OFFCURVE",
"784 39 OFFCURVE",
"762 39 CURVE SMOOTH",
"738 39 OFFCURVE",
"735 61 OFFCURVE",
"735 85 CURVE SMOOTH",
"735 143 OFFCURVE",
"768 271 OFFCURVE",
"768 381 CURVE SMOOTH",
"768 451 OFFCURVE",
"743 511 OFFCURVE",
"663 511 CURVE SMOOTH",
"608 511 OFFCURVE",
"542 473 OFFCURVE",
"476 291 CURVE",
"473 291 LINE",
"485 341 OFFCURVE",
"490 359 OFFCURVE",
"490 397 CURVE SMOOTH",
"490 446 OFFCURVE",
"463 511 OFFCURVE",
"383 511 CURVE SMOOTH",
"328 511 OFFCURVE",
"263 470 OFFCURVE",
"200 288 CURVE",
"197 288 LINE",
"202 316 OFFCURVE",
"210 356 OFFCURVE",
"212 394 CURVE SMOOTH",
"215 455 OFFCURVE",
"203 511 OFFCURVE",
"138 511 CURVE SMOOTH",
"58 511 OFFCURVE",
"17 417 OFFCURVE",
"8 370 CURVE",
"36 364 LINE",
"56 435 OFFCURVE",
"87 461 OFFCURVE",
"109 461 CURVE SMOOTH",
"132 461 OFFCURVE",
"136 440 OFFCURVE",
"136 416 CURVE SMOOTH",
"136 386 OFFCURVE",
"134 382 OFFCURVE",
"116 226 CURVE SMOOTH",
"101 100 OFFCURVE",
"97 60 OFFCURVE",
"97 26 CURVE SMOOTH",
"97 15 OFFCURVE",
"97 9 OFFCURVE",
"98 0 CURVE",
"182 0 LINE",
"181 17 OFFCURVE",
"180 33 OFFCURVE",
"180 53 CURVE SMOOTH",
"180 222 OFFCURVE",
"271 464 OFFCURVE",
"363 464 CURVE SMOOTH",
"402 464 OFFCURVE",
"410 430 OFFCURVE",
"411 407 CURVE SMOOTH",
"413 323 OFFCURVE",
"375 127 OFFCURVE",
"375 26 CURVE SMOOTH",
"375 15 OFFCURVE",
"375 9 OFFCURVE",
"376 0 CURVE",
"460 0 LINE",
"459 17 OFFCURVE",
"458 33 OFFCURVE",
"458 53 CURVE SMOOTH",
"458 222 OFFCURVE",
"547 464 OFFCURVE",
"641 464 CURVE SMOOTH",
"680 464 OFFCURVE",
"689 426 OFFCURVE",
"689 403 CURVE SMOOTH",
"689 297 OFFCURVE",
"653 159 OFFCURVE",
"653 85 CURVE SMOOTH",
"653 23 OFFCURVE",
"670 -11 OFFCURVE",
"733 -11 CURVE SMOOTH"
);
}
);
width = 876;
},
{
layerId = "6B2A2AD0-3CEC-4B3D-96BE-6A11A3496094";
paths = (
{
closed = 1;
nodes = (
"812 -11 OFFCURVE",
"861 88 OFFCURVE",
"873 145 CURVE",
"818 161 LINE",
"801 101 OFFCURVE",
"785 82 OFFCURVE",
"770 82 CURVE SMOOTH",
"763 82 OFFCURVE",
"755 86 OFFCURVE",
"755 108 CURVE SMOOTH",
"755 181 OFFCURVE",
"780 284 OFFCURVE",
"780 357 CURVE SMOOTH",
"780 451 OFFCURVE",
"744 511 OFFCURVE",
"659 511 CURVE SMOOTH",
"602 511 OFFCURVE",
"539 480 OFFCURVE",
"492 360 CURVE",
"491 360 LINE",
"493 373 OFFCURVE",
"493 385 OFFCURVE",
"493 396 CURVE SMOOTH",
"493 468 OFFCURVE",
"460 511 OFFCURVE",
"395 511 CURVE SMOOTH",
"338 511 OFFCURVE",
"268 480 OFFCURVE",
"221 360 CURVE",
"220 360 LINE",
"223 383 OFFCURVE",
"226 394 OFFCURVE",
"226 420 CURVE SMOOTH",
"226 491 OFFCURVE",
"185 511 OFFCURVE",
"142 511 CURVE SMOOTH",
"55 511 OFFCURVE",
"20 412 OFFCURVE",
"8 355 CURVE",
"63 339 LINE",
"80 399 OFFCURVE",
"96 418 OFFCURVE",
"111 418 CURVE SMOOTH",
"118 418 OFFCURVE",
"125 414 OFFCURVE",
"125 392 CURVE SMOOTH",
"125 365 OFFCURVE",
"114 291 OFFCURVE",
"105 215 CURVE SMOOTH",
"96 152 OFFCURVE",
"89 87 OFFCURVE",
"89 48 CURVE SMOOTH",
"89 35 OFFCURVE",
"89 28 OFFCURVE",
"92 0 CURVE",
"220 0 LINE",
"219 16 OFFCURVE",
"217 54 OFFCURVE",
"217 72 CURVE SMOOTH",
"217 212 OFFCURVE",
"295 419 OFFCURVE",
"356 419 CURVE SMOOTH",
"376 419 OFFCURVE",
"384 407 OFFCURVE",
"384 377 CURVE SMOOTH",
"384 315 OFFCURVE",
"361 181 OFFCURVE",
"361 67 CURVE SMOOTH",
"361 55 OFFCURVE",
"361 28 OFFCURVE",
"364 0 CURVE",
"493 0 LINE",
"491 25 OFFCURVE",
"490 59 OFFCURVE",
"490 77 CURVE SMOOTH",
"490 217 OFFCURVE",
"563 419 OFFCURVE",
"624 419 CURVE SMOOTH",
"645 419 OFFCURVE",
"652 407 OFFCURVE",
"652 377 CURVE SMOOTH",
"652 315 OFFCURVE",
"627 181 OFFCURVE",
"627 102 CURVE SMOOTH",
"627 31 OFFCURVE",
"647 -11 OFFCURVE",
"721 -11 CURVE SMOOTH"
);
}
);
width = 878;
}
);
leftKerningGroup = n;
rightKerningGroup = n;
unicode = 006D;
},
{
glyphname = n;
layers = (
{
anchors = (
{
name = bottom;
position = "{313, 0}";
},
{
name = top;
position = "{339, 512}";
}
);
background = {
anchors = (
{
name = top;
position = "{364, 512}";
}
);
};
layerId = UUID0;
paths = (
{
closed = 1;
nodes = (
"553 -11 OFFCURVE",
"594 83 OFFCURVE",
"603 129 CURVE",
"575 136 LINE",
"555 64 OFFCURVE",
"524 39 OFFCURVE",
"502 39 CURVE SMOOTH",
"478 39 OFFCURVE",
"475 61 OFFCURVE",
"475 85 CURVE SMOOTH",
"475 143 OFFCURVE",
"505 271 OFFCURVE",
"505 381 CURVE SMOOTH",
"505 451 OFFCURVE",
"476 511 OFFCURVE",
"396 511 CURVE SMOOTH",
"331 511 OFFCURVE",
"267 465 OFFCURVE",
"199 283 CURVE",
"196 283 LINE",
"201 309 OFFCURVE",
"208 346 OFFCURVE",
"211 383 CURVE SMOOTH",
"215 448 OFFCURVE",
"205 511 OFFCURVE",
"137 511 CURVE SMOOTH",
"57 511 OFFCURVE",
"16 417 OFFCURVE",
"7 370 CURVE",
"35 364 LINE",
"55 435 OFFCURVE",
"86 461 OFFCURVE",
"108 461 CURVE SMOOTH",
"131 461 OFFCURVE",
"135 440 OFFCURVE",
"135 416 CURVE SMOOTH",
"135 386 OFFCURVE",
"134 382 OFFCURVE",
"116 226 CURVE SMOOTH",
"101 100 OFFCURVE",
"96 60 OFFCURVE",
"96 26 CURVE SMOOTH",
"96 15 OFFCURVE",
"96 9 OFFCURVE",
"97 0 CURVE",
"181 0 LINE",
"180 17 OFFCURVE",
"179 33 OFFCURVE",
"179 53 CURVE SMOOTH",
"179 222 OFFCURVE",
"284 464 OFFCURVE",
"376 464 CURVE SMOOTH",
"415 464 OFFCURVE",
"423 426 OFFCURVE",
"423 403 CURVE SMOOTH",
"423 296 OFFCURVE",
"392 160 OFFCURVE",
"392 85 CURVE SMOOTH",
"392 23 OFFCURVE",
"410 -11 OFFCURVE",
"473 -11 CURVE SMOOTH"
);
}
);
width = 615;
},
{
anchors = (
{
name = bottom;
position = "{327, 0}";
},
{
name = top;
position = "{341, 500}";
}
);
background = {
anchors = (
{
name = top;
position = "{351, 500}";
}
);
paths = (
{
closed = 1;
nodes = (
"362 126 LINE",
"345 -29 OFFCURVE",
"310 -205 OFFCURVE",
"220 -205 CURVE SMOOTH",
"205 -205 OFFCURVE",
"189 -198 OFFCURVE",
"183 -188 CURVE",
"187 -179 OFFCURVE",
"189 -167 OFFCURVE",
"189 -158 CURVE SMOOTH",
"189 -120 OFFCURVE",
"162 -95 OFFCURVE",
"126 -95 CURVE SMOOTH",
"79 -95 OFFCURVE",
"59 -139 OFFCURVE",
"59 -168 CURVE SMOOTH",
"59 -235 OFFCURVE",
"123 -271 OFFCURVE",
"222 -271 CURVE SMOOTH",
"385 -271 OFFCURVE",
"465 -117 OFFCURVE",
"489 126 CURVE"
);
}
);
};
layerId = "6B2A2AD0-3CEC-4B3D-96BE-6A11A3496094";
paths = (
{
closed = 1;
nodes = (
"543 -11 OFFCURVE",
"593 88 OFFCURVE",
"604 145 CURVE",
"550 161 LINE",
"533 101 OFFCURVE",
"517 82 OFFCURVE",
"502 82 CURVE SMOOTH",
"495 82 OFFCURVE",
"487 86 OFFCURVE",
"487 108 CURVE SMOOTH",
"487 181 OFFCURVE",
"512 284 OFFCURVE",
"512 357 CURVE SMOOTH",
"512 451 OFFCURVE",
"477 511 OFFCURVE",
"392 511 CURVE SMOOTH",
"334 511 OFFCURVE",
"268 480 OFFCURVE",
"221 360 CURVE",
"220 360 LINE",
"223 383 OFFCURVE",
"226 394 OFFCURVE",
"226 420 CURVE SMOOTH",
"226 491 OFFCURVE",
"185 511 OFFCURVE",
"142 511 CURVE SMOOTH",
"55 511 OFFCURVE",
"20 412 OFFCURVE",
"8 355 CURVE",
"63 339 LINE",
"80 399 OFFCURVE",
"96 418 OFFCURVE",
"111 418 CURVE SMOOTH",
"118 418 OFFCURVE",
"125 414 OFFCURVE",
"125 392 CURVE SMOOTH",
"125 367 OFFCURVE",
"115 298 OFFCURVE",
"106 226 CURVE SMOOTH",
"97 159 OFFCURVE",
"89 89 OFFCURVE",
"89 48 CURVE SMOOTH",
"89 35 OFFCURVE",
"89 28 OFFCURVE",
"92 0 CURVE",
"221 0 LINE",
"220 16 OFFCURVE",
"218 54 OFFCURVE",
"218 72 CURVE SMOOTH",
"218 212 OFFCURVE",
"295 419 OFFCURVE",
"356 419 CURVE SMOOTH",
"376 419 OFFCURVE",
"384 407 OFFCURVE",
"384 377 CURVE SMOOTH",
"384 315 OFFCURVE",
"359 181 OFFCURVE",
"359 102 CURVE SMOOTH",
"359 31 OFFCURVE",
"379 -11 OFFCURVE",
"453 -11 CURVE SMOOTH"
);
}
);
width = 610;
}
);
leftKerningGroup = n;
rightKerningGroup = n;
unicode = 006E;
},
{
color = 4;
glyphname = eng;
layers = (
{
background = {
paths = (
{
closed = 1;
nodes = (
"392 85 LINE",
"383 -88 OFFCURVE",
"356 -236 OFFCURVE",
"239 -236 CURVE SMOOTH",
"215 -236 OFFCURVE",
"183 -228 OFFCURVE",
"170 -208 CURVE",
"174 -199 OFFCURVE",
"176 -190 OFFCURVE",
"176 -182 CURVE SMOOTH",
"176 -151 OFFCURVE",
"155 -136 OFFCURVE",
"131 -136 CURVE SMOOTH",
"104 -136 OFFCURVE",
"84 -159 OFFCURVE",
"84 -187 CURVE SMOOTH",
"84 -252 OFFCURVE",
"184 -271 OFFCURVE",
"232 -271 CURVE SMOOTH",
"399 -271 OFFCURVE",
"460 -112 OFFCURVE",
"474 85 CURVE"
);
}
);
};
layerId = UUID0;
paths = (
{
closed = 1;
nodes = (
"389 -271 OFFCURVE",
"469 -112 OFFCURVE",
"493 121 CURVE SMOOTH",
"501 197 OFFCURVE",
"508 266 OFFCURVE",
"508 321 CURVE SMOOTH",
"508 434 OFFCURVE",
"478 511 OFFCURVE",
"396 511 CURVE SMOOTH",
"331 511 OFFCURVE",
"267 465 OFFCURVE",
"199 283 CURVE",
"196 283 LINE",
"202 315 OFFCURVE",
"212 364 OFFCURVE",
"212 408 CURVE SMOOTH",
"212 463 OFFCURVE",
"196 511 OFFCURVE",
"137 511 CURVE SMOOTH",
"57 511 OFFCURVE",
"16 417 OFFCURVE",
"7 370 CURVE",
"35 364 LINE",
"55 435 OFFCURVE",
"86 461 OFFCURVE",
"108 461 CURVE SMOOTH",
"131 461 OFFCURVE",
"135 440 OFFCURVE",
"135 416 CURVE SMOOTH",
"135 386 OFFCURVE",
"134 382 OFFCURVE",
"116 226 CURVE SMOOTH",
"101 100 OFFCURVE",
"96 60 OFFCURVE",
"96 26 CURVE SMOOTH",
"96 15 OFFCURVE",
"96 9 OFFCURVE",
"97 0 CURVE",
"181 0 LINE",
"180 17 OFFCURVE",
"179 33 OFFCURVE",
"179 53 CURVE SMOOTH",
"179 222 OFFCURVE",
"284 464 OFFCURVE",
"376 464 CURVE SMOOTH",
"414 464 OFFCURVE",
"426 423 OFFCURVE",
"426 323 CURVE SMOOTH",
"426 270 OFFCURVE",
"421 203 OFFCURVE",
"412 121 CURVE SMOOTH",
"389 -88 OFFCURVE",
"333 -239 OFFCURVE",
"234 -239 CURVE SMOOTH",
"202 -239 OFFCURVE",
"180 -229 OFFCURVE",
"165 -212 CURVE",
"174 -199 OFFCURVE",
"176 -190 OFFCURVE",
"176 -182 CURVE SMOOTH",
"176 -151 OFFCURVE",
"155 -136 OFFCURVE",
"131 -136 CURVE SMOOTH",
"104 -136 OFFCURVE",
"84 -159 OFFCURVE",
"84 -187 CURVE SMOOTH",
"84 -252 OFFCURVE",
"184 -271 OFFCURVE",
"232 -271 CURVE SMOOTH"
);
}
);
width = 576;
},
{
background = {
paths = (
{
closed = 1;
nodes = (
"415 231 LINE",
"417 -126 LINE SMOOTH",
"417 -155 OFFCURVE",
"412 -201 OFFCURVE",
"375 -201 CURVE SMOOTH",
"370 -201 OFFCURVE",
"361 -199 OFFCURVE",
"358 -197 CURVE",
"367 -153 OFFCURVE",
"341 -120 OFFCURVE",
"299 -121 CURVE SMOOTH",
"259 -122 OFFCURVE",
"236 -154 OFFCURVE",
"236 -189 CURVE SMOOTH",
"236 -230 OFFCURVE",
"270 -271 OFFCURVE",
"345 -271 CURVE SMOOTH",
"465 -271 OFFCURVE",
"556 -183 OFFCURVE",
"556 2 CURVE SMOOTH",
"556 231 LINE"
);
}
);
};
layerId = "6B2A2AD0-3CEC-4B3D-96BE-6A11A3496094";
paths = (
{
closed = 1;
nodes = (
"423 -257 OFFCURVE",
"502 -122 OFFCURVE",
"535 106 CURVE SMOOTH",
"544 178 OFFCURVE",
"556 252 OFFCURVE",
"556 307 CURVE SMOOTH",
"556 424 OFFCURVE",
"518 511 OFFCURVE",
"402 511 CURVE SMOOTH",
"344 511 OFFCURVE",
"268 480 OFFCURVE",
"221 360 CURVE",
"220 360 LINE",
"223 383 OFFCURVE",
"226 394 OFFCURVE",
"226 420 CURVE SMOOTH",
"226 491 OFFCURVE",
"185 511 OFFCURVE",
"142 511 CURVE SMOOTH",
"55 511 OFFCURVE",
"20 412 OFFCURVE",
"8 355 CURVE",
"63 339 LINE",
"80 399 OFFCURVE",
"96 418 OFFCURVE",
"111 418 CURVE SMOOTH",
"118 418 OFFCURVE",
"125 414 OFFCURVE",
"125 392 CURVE SMOOTH",
"125 367 OFFCURVE",
"116 300 OFFCURVE",
"106 230 CURVE SMOOTH",
"98 162 OFFCURVE",
"89 90 OFFCURVE",
"89 48 CURVE SMOOTH",
"89 35 OFFCURVE",
"89 28 OFFCURVE",
"92 0 CURVE",
"221 0 LINE",
"220 16 OFFCURVE",
"218 54 OFFCURVE",
"218 72 CURVE SMOOTH",
"218 212 OFFCURVE",
"295 419 OFFCURVE",
"376 419 CURVE SMOOTH",
"423 419 OFFCURVE",
"428 380 OFFCURVE",
"428 327 CURVE SMOOTH",
"428 281 OFFCURVE",
"418 200 OFFCURVE",
"408 106 CURVE SMOOTH",
"386 -82 OFFCURVE",
"328 -194 OFFCURVE",
"261 -194 CURVE SMOOTH",
"244 -194 OFFCURVE",
"229 -186 OFFCURVE",
"221 -177 CURVE",
"227 -168 OFFCURVE",
"230 -153 OFFCURVE",
"230 -144 CURVE SMOOTH",
"230 -106 OFFCURVE",
"203 -81 OFFCURVE",
"167 -81 CURVE SMOOTH",
"120 -81 OFFCURVE",
"100 -125 OFFCURVE",
"100 -154 CURVE SMOOTH",
"100 -221 OFFCURVE",
"164 -257 OFFCURVE",
"263 -257 CURVE SMOOTH"
);
}
);
width = 616;
}
);
unicode = 014B;
},
{
glyphname = o;
layers = (
{
anchors = (
{
name = bottom;
position = "{248, 0}";
},
{
name = center;
position = "{261, 256}";
},
{
name = ogonek;
position = "{456, 5}";
},
{
name = top;
position = "{293, 512}";
},
{
name = topright;
position = "{425, 506}";
}
);
layerId = UUID0;
paths = (
{
closed = 1;
nodes = (
"132 511 OFFCURVE",
"39 375 OFFCURVE",
"39 213 CURVE SMOOTH",
"39 89 OFFCURVE",
"99 -11 OFFCURVE",
"231 -11 CURVE SMOOTH",
"386 -11 OFFCURVE",
"476 131 OFFCURVE",
"476 292 CURVE SMOOTH",
"476 432 OFFCURVE",
"394 511 OFFCURVE",
"286 511 CURVE SMOOTH"
);
},
{
closed = 1;
nodes = (
"369 472 OFFCURVE",
"390 355 OFFCURVE",
"388 261 CURVE SMOOTH",
"386 164 OFFCURVE",
"346 25 OFFCURVE",
"240 27 CURVE SMOOTH",
"148 29 OFFCURVE",
"125 154 OFFCURVE",
"127 246 CURVE SMOOTH",
"129 374 OFFCURVE",
"182 475 OFFCURVE",
"271 474 CURVE SMOOTH"
);
}
);
width = 521;
},
{
anchors = (
{
name = bottom;
position = "{245, 0}";
},
{
name = center;
position = "{258, 250}";
},
{
name = ogonek;
position = "{450, 5}";
},
{
name = top;
position = "{273, 500}";
},
{
name = topright;
position = "{435, 500}";
}
);
layerId = "6B2A2AD0-3CEC-4B3D-96BE-6A11A3496094";
paths = (
{
closed = 1;
nodes = (
"125 511 OFFCURVE",
"28 376 OFFCURVE",
"28 216 CURVE SMOOTH",
"28 91 OFFCURVE",
"94 -11 OFFCURVE",
"229 -11 CURVE SMOOTH",
"385 -11 OFFCURVE",
"480 129 OFFCURVE",
"480 288 CURVE SMOOTH",
"480 430 OFFCURVE",
"391 511 OFFCURVE",
"279 511 CURVE SMOOTH"
);
},
{
closed = 1;
nodes = (
"331 444 OFFCURVE",
"344 332 OFFCURVE",
"342 259 CURVE SMOOTH",
"340 177 OFFCURVE",
"314 55 OFFCURVE",
"245 55 CURVE SMOOTH",
"181 55 OFFCURVE",
"164 164 OFFCURVE",
"164 244 CURVE SMOOTH",
"164 354 OFFCURVE",
"203 446 OFFCURVE",
"264 445 CURVE SMOOTH"
);
}
);
width = 515;
}
);
leftKerningGroup = o;
rightKerningGroup = o;
unicode = 006F;
},
{
glyphname = oslash;
layers = (
{
anchors = (
{
name = top;
position = "{274, 512}";
}
);
layerId = UUID0;
paths = (
{
closed = 1;
nodes = (
"393 479 LINE",
"362 500 OFFCURVE",
"326 511 OFFCURVE",
"286 511 CURVE SMOOTH",
"132 511 OFFCURVE",
"39 375 OFFCURVE",
"39 213 CURVE SMOOTH",
"39 144 OFFCURVE",
"58 82 OFFCURVE",
"97 41 CURVE",
"34 -52 LINE",
"66 -77 LINE",
"129 15 LINE",
"157 -2 OFFCURVE",
"190 -11 OFFCURVE",
"231 -11 CURVE SMOOTH",
"386 -11 OFFCURVE",
"476 131 OFFCURVE",
"476 292 CURVE SMOOTH",
"476 357 OFFCURVE",
"458 409 OFFCURVE",
"429 446 CURVE",
"489 533 LINE",
"448 562 LINE"
);
},
{
closed = 1;
nodes = (
"386 336 OFFCURVE",
"389 297 OFFCURVE",
"388 261 CURVE SMOOTH",
"386 164 OFFCURVE",
"346 25 OFFCURVE",
"240 27 CURVE SMOOTH",
"208 27 OFFCURVE",
"184 43 OFFCURVE",
"167 68 CURVE",
"377 372 LINE"
);
},
{
closed = 1;
nodes = (
"311 474 OFFCURVE",
"337 454 OFFCURVE",
"355 424 CURVE",
"145 112 LINE",
"130 153 OFFCURVE",
"126 203 OFFCURVE",
"127 246 CURVE SMOOTH",
"129 374 OFFCURVE",
"182 476 OFFCURVE",
"271 474 CURVE SMOOTH"
);
}
);
width = 521;
},
{
anchors = (
{
name = top;
position = "{271, 500}";
}
);
layerId = "6B2A2AD0-3CEC-4B3D-96BE-6A11A3496094";
paths = (
{
closed = 1;
nodes = (
"376 487 LINE",
"348 503 OFFCURVE",
"314 511 OFFCURVE",
"279 511 CURVE SMOOTH",
"125 511 OFFCURVE",
"28 376 OFFCURVE",
"28 216 CURVE SMOOTH",
"28 154 OFFCURVE",
"44 98 OFFCURVE",
"77 57 CURVE",
"13 -33 LINE",
"66 -77 LINE",
"131 12 LINE",
"158 -3 OFFCURVE",
"191 -11 OFFCURVE",
"229 -11 CURVE SMOOTH",
"385 -11 OFFCURVE",
"480 129 OFFCURVE",
"480 288 CURVE SMOOTH",
"480 349 OFFCURVE",
"464 398 OFFCURVE",
"436 436 CURVE",
"499 521 LINE",
"435 570 LINE"
);
},
{
closed = 1;
nodes = (
"354 303 OFFCURVE",
"355 279 OFFCURVE",
"355 259 CURVE SMOOTH",
"353 177 OFFCURVE",
"323 55 OFFCURVE",
"247 55 CURVE SMOOTH",
"220 55 OFFCURVE",
"200 71 OFFCURVE",
"185 95 CURVE",
"351 326 LINE"
);
},
{
closed = 1;
nodes = (
"292 445 OFFCURVE",
"312 429 OFFCURVE",
"326 405 CURVE",
"159 165 LINE",
"154 191 OFFCURVE",
"151 219 OFFCURVE",
"151 244 CURVE SMOOTH",
"151 354 OFFCURVE",
"197 445 OFFCURVE",
"264 445 CURVE SMOOTH"
);
}
);
width = 515;
}
);
leftKerningGroup = o;
rightKerningGroup = o;
unicode = 00F8;
},
{
glyphname = oe;
layers = (
{
layerId = UUID0;
paths = (
{
closed = 1;
nodes = (
"515 511 OFFCURVE",
"445 455 OFFCURVE",
"417 406 CURVE",
"414 406 LINE",
"391 472 OFFCURVE",
"342 510 OFFCURVE",
"277 511 CURVE SMOOTH",
"123 513 OFFCURVE",
"40 375 OFFCURVE",
"40 213 CURVE SMOOTH",
"40 89 OFFCURVE",
"90 -11 OFFCURVE",
"222 -11 CURVE SMOOTH",
"292 -11 OFFCURVE",
"357 36 OFFCURVE",
"390 89 CURVE",
"392 89 LINE",
"420 21 OFFCURVE",
"479 -11 OFFCURVE",
"543 -11 CURVE SMOOTH",
"634 -11 OFFCURVE",
"705 36 OFFCURVE",
"761 141 CURVE",
"728 160 LINE",
"684 76 OFFCURVE",
"611 34 OFFCURVE",
"555 39 CURVE SMOOTH",
"500 44 OFFCURVE",
"442 92 OFFCURVE",
"447 231 CURVE",
"589 245 OFFCURVE",
"738 294 OFFCURVE",
"738 402 CURVE SMOOTH",
"738 491 OFFCURVE",
"664 511 OFFCURVE",
"593 511 CURVE SMOOTH"
);
},
{
closed = 1;
nodes = (
"371 472 OFFCURVE",
"370 317 OFFCURVE",
"368 248 CURVE SMOOTH",
"365 137 OFFCURVE",
"328 27 OFFCURVE",
"231 28 CURVE SMOOTH",
"139 29 OFFCURVE",
"123 154 OFFCURVE",
"125 246 CURVE SMOOTH",
"127 374 OFFCURVE",
"171 476 OFFCURVE",
"260 474 CURVE SMOOTH"
);
},
{
closed = 1;
nodes = (
"625 481 OFFCURVE",
"658 459 OFFCURVE",
"658 405 CURVE SMOOTH",
"658 315 OFFCURVE",
"542 279 OFFCURVE",
"447 266 CURVE",
"453 374 OFFCURVE",
"509 470 OFFCURVE",
"578 477 CURVE SMOOTH"
);
}
);
width = 797;
},
{
layerId = "6B2A2AD0-3CEC-4B3D-96BE-6A11A3496094";
paths = (
{
closed = 1;
nodes = (
"526 511 OFFCURVE",
"468 484 OFFCURVE",
"421 414 CURVE",
"420 414 LINE",
"385 489 OFFCURVE",
"323 511 OFFCURVE",
"272 511 CURVE SMOOTH",
"119 511 OFFCURVE",
"28 376 OFFCURVE",
"28 216 CURVE SMOOTH",
"28 91 OFFCURVE",
"92 -11 OFFCURVE",
"228 -11 CURVE SMOOTH",
"276 -11 OFFCURVE",
"343 5 OFFCURVE",
"389 84 CURVE",
"390 84 LINE",
"428 7 OFFCURVE",
"499 -11 OFFCURVE",
"541 -11 CURVE SMOOTH",
"619 -11 OFFCURVE",
"696 19 OFFCURVE",
"754 150 CURVE",
"695 178 LINE",
"659 94 OFFCURVE",
"601 81 OFFCURVE",
"567 81 CURVE SMOOTH",
"524 81 OFFCURVE",
"478 108 OFFCURVE",
"478 222 CURVE",
"595 239 OFFCURVE",
"743 276 OFFCURVE",
"743 385 CURVE SMOOTH",
"743 473 OFFCURVE",
"682 511 OFFCURVE",
"593 511 CURVE SMOOTH"
);
},
{
closed = 1;
nodes = (
"329 444 OFFCURVE",
"339 332 OFFCURVE",
"337 259 CURVE SMOOTH",
"335 177 OFFCURVE",
"312 55 OFFCURVE",
"243 55 CURVE SMOOTH",
"179 55 OFFCURVE",
"165 164 OFFCURVE",
"165 244 CURVE SMOOTH",
"165 354 OFFCURVE",
"201 446 OFFCURVE",
"262 445 CURVE SMOOTH"
);
},
{
closed = 1;
nodes = (
"602 445 OFFCURVE",
"625 432 OFFCURVE",
"626 399 CURVE SMOOTH",
"628 350 OFFCURVE",
"589 306 OFFCURVE",
"481 287 CURVE",
"489 361 OFFCURVE",
"514 445 OFFCURVE",
"582 445 CURVE SMOOTH"
);
}
);
width = 784;
}
);
leftKerningGroup = o;
rightKerningGroup = e;
unicode = 0153;
},
{
glyphname = p;
layers = (
{
layerId = UUID0;
paths = (
{
closed = 1;
nodes = (
"231 -255 LINE",
"231 -214 LINE",
"210 -215 OFFCURVE",
"189 -216 OFFCURVE",
"168 -217 CURVE",
"174 -196 OFFCURVE",
"174 -161 OFFCURVE",
"184 -8 CURVE",
"199 -10 OFFCURVE",
"214 -11 OFFCURVE",
"231 -11 CURVE SMOOTH",
"424 -11 OFFCURVE",
"526 123 OFFCURVE",
"526 317 CURVE SMOOTH",
"526 422 OFFCURVE",
"483 511 OFFCURVE",
"391 511 CURVE SMOOTH",
"332 511 OFFCURVE",
"268 476 OFFCURVE",
"213 292 CURVE",
"210 292 LINE",
"216 322 OFFCURVE",
"224 366 OFFCURVE",
"224 406 CURVE SMOOTH",
"224 462 OFFCURVE",
"208 511 OFFCURVE",
"148 511 CURVE SMOOTH",
"68 511 OFFCURVE",
"27 417 OFFCURVE",
"18 370 CURVE",
"47 364 LINE",
"67 435 OFFCURVE",
"97 461 OFFCURVE",
"119 461 CURVE SMOOTH",
"145 461 OFFCURVE",
"146 434 OFFCURVE",
"146 408 CURVE SMOOTH",
"146 357 OFFCURVE",
"121 145 OFFCURVE",
"103 -85 CURVE SMOOTH",
"97 -163 OFFCURVE",
"98 -225 OFFCURVE",
"42 -225 CURVE",
"42 -255 LINE"
);
},
{
closed = 1;
nodes = (
"226 23 OFFCURVE",
"208 28 OFFCURVE",
"187 35 CURVE",
"190 70 OFFCURVE",
"193 100 OFFCURVE",
"198 130 CURVE SMOOTH",
"223 292 OFFCURVE",
"297 464 OFFCURVE",
"370 464 CURVE SMOOTH",
"425 464 OFFCURVE",
"440 391 OFFCURVE",
"440 299 CURVE SMOOTH",
"440 178 OFFCURVE",
"389 23 OFFCURVE",
"248 23 CURVE SMOOTH"
);
}
);
width = 571;
},
{
layerId = "6B2A2AD0-3CEC-4B3D-96BE-6A11A3496094";
paths = (
{
closed = 1;
nodes = (
"281 -255 LINE",
"281 -179 LINE",
"267 -179 OFFCURVE",
"236 -180 OFFCURVE",
"215 -182 CURVE",
"219 -151 OFFCURVE",
"222 -107 OFFCURVE",
"227 -10 CURVE",
"238 -11 OFFCURVE",
"252 -11 OFFCURVE",
"259 -11 CURVE SMOOTH",
"450 -11 OFFCURVE",
"541 130 OFFCURVE",
"541 320 CURVE SMOOTH",
"541 433 OFFCURVE",
"489 511 OFFCURVE",
"393 511 CURVE SMOOTH",
"340 511 OFFCURVE",
"269 480 OFFCURVE",
"222 360 CURVE",
"221 360 LINE",
"224 383 OFFCURVE",
"225 394 OFFCURVE",
"225 420 CURVE SMOOTH",
"225 491 OFFCURVE",
"186 511 OFFCURVE",
"143 511 CURVE SMOOTH",
"55 511 OFFCURVE",
"20 412 OFFCURVE",
"9 355 CURVE",
"63 339 LINE",
"80 399 OFFCURVE",
"96 418 OFFCURVE",
"111 418 CURVE SMOOTH",
"119 418 OFFCURVE",
"126 413 OFFCURVE",
"126 389 CURVE SMOOTH",
"126 347 OFFCURVE",
"120 213 OFFCURVE",
"91 -100 CURVE SMOOTH",
"86 -152 OFFCURVE",
"78 -190 OFFCURVE",
"28 -190 CURVE",
"28 -255 LINE"
);
},
{
closed = 1;
nodes = (
"263 55 OFFCURVE",
"245 57 OFFCURVE",
"231 61 CURVE",
"234 100 OFFCURVE",
"238 135 OFFCURVE",
"242 168 CURVE SMOOTH",
"263 333 OFFCURVE",
"302 420 OFFCURVE",
"356 420 CURVE SMOOTH",
"385 420 OFFCURVE",
"405 392 OFFCURVE",
"405 319 CURVE SMOOTH",
"405 240 OFFCURVE",
"385 55 OFFCURVE",
"271 55 CURVE SMOOTH"
);
}
);
width = 575;
}
);
unicode = 0070;
},
{
glyphname = thorn;
layers = (
{
layerId = UUID0;
paths = (
{
closed = 1;
nodes = (
"167 755 LINE",
"151 741 OFFCURVE",
"128 728 OFFCURVE",
"40 728 CURVE",
"36 688 LINE",
"60 689 OFFCURVE",
"84 691 OFFCURVE",
"108 692 CURVE",
"104 669 OFFCURVE",
"103 648 OFFCURVE",
"101 619 CURVE SMOOTH",
"80 350 OFFCURVE",
"69 191 OFFCURVE",
"50 -86 CURVE SMOOTH",
"45 -164 OFFCURVE",
"45 -225 OFFCURVE",
"-11 -225 CURVE",
"-11 -255 LINE",
"178 -255 LINE",
"178 -214 LINE",
"157 -215 OFFCURVE",
"136 -216 OFFCURVE",
"115 -217 CURVE",
"121 -194 OFFCURVE",
"121 -161 OFFCURVE",
"123 -134 CURVE",
"129 -7 LINE",
"152 -10 OFFCURVE",
"173 -11 OFFCURVE",
"189 -11 CURVE SMOOTH",
"387 -11 OFFCURVE",
"466 142 OFFCURVE",
"466 326 CURVE SMOOTH",
"466 423 OFFCURVE",
"433 511 OFFCURVE",
"341 511 CURVE SMOOTH",
"281 511 OFFCURVE",
"201 491 OFFCURVE",
"148 298 CURVE",
"145 299 LINE",
"155 405 OFFCURVE",
"165 498 OFFCURVE",
"173 586 CURVE SMOOTH",
"178 631 OFFCURVE",
"187 699 OFFCURVE",
"196 755 CURVE"
);
},
{
closed = 1;
nodes = (
"359 466 OFFCURVE",
"378 409 OFFCURVE",
"380 318 CURVE SMOOTH",
"382 196 OFFCURVE",
"352 26 OFFCURVE",
"206 24 CURVE SMOOTH",
"180 24 OFFCURVE",
"145 31 OFFCURVE",
"129 47 CURVE",
"133 214 OFFCURVE",
"217 460 OFFCURVE",
"312 464 CURVE SMOOTH"
);
}
);
width = 512;
},
{
layerId = "6B2A2AD0-3CEC-4B3D-96BE-6A11A3496094";
paths = (
{
closed = 1;
nodes = (
"171 755 LINE",
"156 742 OFFCURVE",
"111 725 OFFCURVE",
"19 725 CURVE",
"15 649 LINE",
"29 650 OFFCURVE",
"63 651 OFFCURVE",
"84 652 CURVE",
"80 623 OFFCURVE",
"79 583 OFFCURVE",
"77 560 CURVE SMOOTH",
"63 322 OFFCURVE",
"54 153 OFFCURVE",
"38 -100 CURVE SMOOTH",
"35 -152 OFFCURVE",
"25 -190 OFFCURVE",
"-25 -190 CURVE",
"-25 -255 LINE",
"229 -255 LINE",
"229 -179 LINE",
"214 -179 OFFCURVE",
"184 -180 OFFCURVE",
"162 -182 CURVE",
"166 -152 OFFCURVE",
"169 -111 OFFCURVE",
"170 -92 CURVE SMOOTH",
"174 -10 LINE",
"186 -11 OFFCURVE",
"203 -11 OFFCURVE",
"210 -11 CURVE SMOOTH",
"401 -11 OFFCURVE",
"484 131 OFFCURVE",
"484 321 CURVE SMOOTH",
"484 426 OFFCURVE",
"442 511 OFFCURVE",
"342 511 CURVE SMOOTH",
"288 511 OFFCURVE",
"235 481 OFFCURVE",
"188 390 CURVE",
"187 390 LINE",
"196 464 OFFCURVE",
"199 490 OFFCURVE",
"205 551 CURVE SMOOTH",
"212 619 OFFCURVE",
"218 687 OFFCURVE",
"225 755 CURVE"
);
},
{
closed = 1;
nodes = (
"323 420 OFFCURVE",
"348 393 OFFCURVE",
"348 320 CURVE SMOOTH",
"348 241 OFFCURVE",
"336 55 OFFCURVE",
"223 55 CURVE SMOOTH",
"213 55 OFFCURVE",
"192 58 OFFCURVE",
"177 62 CURVE",
"191 306 OFFCURVE",
"234 420 OFFCURVE",
"294 420 CURVE SMOOTH"
);
}
);
width = 520;
}
);
unicode = 00FE;
},
{
glyphname = q;
layers = (
{
layerId = UUID0;
paths = (
{
closed = 1;
nodes = (
"138 509 OFFCURVE",
"37 369 OFFCURVE",
"38 174 CURVE SMOOTH",
"39 69 OFFCURVE",
"83 -13 OFFCURVE",
"175 -11 CURVE SMOOTH",
"234 -10 OFFCURVE",
"304 24 OFFCURVE",
"357 208 CURVE",
"360 208 LINE",
"348 117 OFFCURVE",
"337 15 OFFCURVE",
"329 -85 CURVE SMOOTH",
"323 -163 OFFCURVE",
"324 -225 OFFCURVE",
"268 -225 CURVE",
"268 -255 LINE",
"457 -255 LINE",
"457 -214 LINE",
"436 -215 OFFCURVE",
"415 -216 OFFCURVE",
"394 -217 CURVE",
"400 -194 OFFCURVE",
"402 -161 OFFCURVE",
"404 -134 CURVE SMOOTH",
"416 43 OFFCURVE",
"448 333 OFFCURVE",
"461 501 CURVE",
"431 507 OFFCURVE",
"364 511 OFFCURVE",
"331 511 CURVE SMOOTH"
);
},
{
closed = 1;
nodes = (
"341 477 OFFCURVE",
"366 474 OFFCURVE",
"386 468 CURVE",
"377 290 OFFCURVE",
"291 37 OFFCURVE",
"196 36 CURVE SMOOTH",
"141 36 OFFCURVE",
"125 102 OFFCURVE",
"124 193 CURVE SMOOTH",
"123 315 OFFCURVE",
"174 475 OFFCURVE",
"315 477 CURVE SMOOTH"
);
}
);
width = 518;
},
{
layerId = "6B2A2AD0-3CEC-4B3D-96BE-6A11A3496094";
paths = (
{
closed = 1;
nodes = (
"113 511 OFFCURVE",
"27 359 OFFCURVE",
"27 179 CURVE SMOOTH",
"27 81 OFFCURVE",
"74 -11 OFFCURVE",
"169 -11 CURVE SMOOTH",
"216 -11 OFFCURVE",
"270 6 OFFCURVE",
"322 106 CURVE",
"323 106 LINE",
"317 71 OFFCURVE",
"313 25 OFFCURVE",
"310 -10 CURVE SMOOTH",
"299 -144 OFFCURVE",
"304 -190 OFFCURVE",
"239 -190 CURVE",
"239 -255 LINE",
"492 -255 LINE",
"492 -179 LINE",
"478 -179 OFFCURVE",
"446 -180 OFFCURVE",
"424 -182 CURVE",
"428 -152 OFFCURVE",
"431 -112 OFFCURVE",
"432 -93 CURVE SMOOTH",
"446 103 OFFCURVE",
"461 298 OFFCURVE",
"475 494 CURVE",
"425 503 OFFCURVE",
"356 511 OFFCURVE",
"314 511 CURVE SMOOTH"
);
},
{
closed = 1;
nodes = (
"309 445 OFFCURVE",
"334 443 OFFCURVE",
"342 439 CURVE",
"337 272 OFFCURVE",
"277 80 OFFCURVE",
"215 80 CURVE SMOOTH",
"194 80 OFFCURVE",
"164 103 OFFCURVE",
"164 185 CURVE SMOOTH",
"164 309 OFFCURVE",
"191 445 OFFCURVE",
"300 445 CURVE SMOOTH"
);
}
);
width = 522;
}
);
unicode = 0071;
},
{
glyphname = r;
layers = (
{
anchors = (
{
name = bottom;
position = "{173, 0}";
},
{
name = top;
position = "{254, 512}";
}
);
layerId = UUID0;
paths = (
{
closed = 1;
nodes = (
"184 0 LINE",
"183 17 OFFCURVE",
"182 23 OFFCURVE",
"182 43 CURVE SMOOTH",
"182 205 OFFCURVE",
"272 468 OFFCURVE",
"365 447 CURVE",
"368 420 OFFCURVE",
"387 405 OFFCURVE",
"411 405 CURVE SMOOTH",
"439 405 OFFCURVE",
"457 429 OFFCURVE",
"457 453 CURVE SMOOTH",
"457 489 OFFCURVE",
"427 511 OFFCURVE",
"387 511 CURVE SMOOTH",
"322 511 OFFCURVE",
"256 466 OFFCURVE",
"198 293 CURVE",
"195 293 LINE",
"202 331 OFFCURVE",
"208 367 OFFCURVE",
"210 397 CURVE SMOOTH",
"213 466 OFFCURVE",
"197 511 OFFCURVE",
"137 511 CURVE SMOOTH",
"57 511 OFFCURVE",
"16 417 OFFCURVE",
"7 370 CURVE",
"35 364 LINE",
"55 435 OFFCURVE",
"86 461 OFFCURVE",
"108 461 CURVE SMOOTH",
"136 461 OFFCURVE",
"136 430 OFFCURVE",
"135 403 CURVE SMOOTH",
"134 382 OFFCURVE",
"130 361 OFFCURVE",
"116 231 CURVE SMOOTH",
"102 105 OFFCURVE",
"100 60 OFFCURVE",
"100 26 CURVE SMOOTH",
"100 15 OFFCURVE",
"100 9 OFFCURVE",
"101 0 CURVE"
);
}
);
width = 455;
},
{
anchors = (
{
name = bottom;
position = "{203, 0}";
},
{
name = top;
position = "{250, 500}";
}
);
layerId = "6B2A2AD0-3CEC-4B3D-96BE-6A11A3496094";
paths = (
{
closed = 1;
nodes = (
"223 0 LINE",
"222 16 OFFCURVE",
"220 54 OFFCURVE",
"220 72 CURVE SMOOTH",
"220 214 OFFCURVE",
"287 425 OFFCURVE",
"343 419 CURVE",
"342 387 OFFCURVE",
"369 367 OFFCURVE",
"398 367 CURVE SMOOTH",
"438 367 OFFCURVE",
"465 400 OFFCURVE",
"465 435 CURVE SMOOTH",
"465 481 OFFCURVE",
"431 511 OFFCURVE",
"381 511 CURVE SMOOTH",
"332 511 OFFCURVE",
"271 483 OFFCURVE",
"217 331 CURVE",
"216 331 LINE",
"223 369 OFFCURVE",
"226 399 OFFCURVE",
"226 420 CURVE SMOOTH",
"226 491 OFFCURVE",
"185 511 OFFCURVE",
"142 511 CURVE SMOOTH",
"55 511 OFFCURVE",
"20 412 OFFCURVE",
"8 355 CURVE",
"63 339 LINE",
"80 399 OFFCURVE",
"96 418 OFFCURVE",
"111 418 CURVE SMOOTH",
"118 418 OFFCURVE",
"125 414 OFFCURVE",
"125 392 CURVE SMOOTH",
"125 367 OFFCURVE",
"116 300 OFFCURVE",
"106 229 CURVE SMOOTH",
"98 162 OFFCURVE",
"89 90 OFFCURVE",
"89 48 CURVE SMOOTH",
"89 35 OFFCURVE",
"89 28 OFFCURVE",
"92 0 CURVE"
);
}
);
width = 459;
}
);
leftKerningGroup = n;
rightKerningGroup = r;
unicode = 0072;
},
{
glyphname = s;
layers = (
{
anchors = (
{
name = bottom;
position = "{216, 0}";
},
{
name = top;
position = "{228, 512}";
}
);
layerId = UUID0;
paths = (
{
closed = 1;
nodes = (
"302 -11 OFFCURVE",
"378 51 OFFCURVE",
"378 135 CURVE SMOOTH",
"378 220 OFFCURVE",
"287 264 OFFCURVE",
"215 306 CURVE SMOOTH",
"170 334 OFFCURVE",
"132 361 OFFCURVE",
"132 399 CURVE SMOOTH",
"132 446 OFFCURVE",
"180 478 OFFCURVE",
"224 478 CURVE SMOOTH",
"269 478 OFFCURVE",
"295 460 OFFCURVE",
"302 438 CURVE",
"295 427 OFFCURVE",
"293 417 OFFCURVE",
"293 407 CURVE SMOOTH",
"293 386 OFFCURVE",
"309 367 OFFCURVE",
"333 367 CURVE SMOOTH",
"357 367 OFFCURVE",
"375 385 OFFCURVE",
"375 413 CURVE SMOOTH",
"375 473 OFFCURVE",
"302 511 OFFCURVE",
"227 511 CURVE SMOOTH",
"124 511 OFFCURVE",
"54 449 OFFCURVE",
"54 376 CURVE SMOOTH",
"54 318 OFFCURVE",
"110 280 OFFCURVE",
"169 245 CURVE SMOOTH",
"231 208 OFFCURVE",
"296 174 OFFCURVE",
"296 121 CURVE SMOOTH",
"296 61 OFFCURVE",
"260 26 OFFCURVE",
"188 26 CURVE SMOOTH",
"152 26 OFFCURVE",
"115 43 OFFCURVE",
"105 72 CURVE",
"112 83 OFFCURVE",
"114 93 OFFCURVE",
"114 103 CURVE SMOOTH",
"114 124 OFFCURVE",
"100 145 OFFCURVE",
"73 145 CURVE SMOOTH",
"49 145 OFFCURVE",
"30 125 OFFCURVE",
"30 96 CURVE SMOOTH",
"30 27 OFFCURVE",
"109 -11 OFFCURVE",
"190 -11 CURVE SMOOTH"
);
}
);
width = 428;
},
{
anchors = (
{
name = bottom;
position = "{224, 0}";
},
{
name = top;
position = "{237, 500}";
}
);
layerId = "6B2A2AD0-3CEC-4B3D-96BE-6A11A3496094";
paths = (
{
closed = 1;
nodes = (
"315 -11 OFFCURVE",
"404 53 OFFCURVE",
"404 143 CURVE SMOOTH",
"404 226 OFFCURVE",
"321 269 OFFCURVE",
"255 307 CURVE SMOOTH",
"174 354 OFFCURVE",
"162 365 OFFCURVE",
"162 393 CURVE SMOOTH",
"162 426 OFFCURVE",
"201 445 OFFCURVE",
"229 445 CURVE SMOOTH",
"247 445 OFFCURVE",
"273 439 OFFCURVE",
"284 425 CURVE",
"280 416 OFFCURVE",
"278 406 OFFCURVE",
"278 396 CURVE SMOOTH",
"278 364 OFFCURVE",
"302 335 OFFCURVE",
"338 335 CURVE SMOOTH",
"377 335 OFFCURVE",
"401 366 OFFCURVE",
"401 401 CURVE SMOOTH",
"401 470 OFFCURVE",
"313 511 OFFCURVE",
"233 511 CURVE SMOOTH",
"111 511 OFFCURVE",
"43 437 OFFCURVE",
"43 367 CURVE SMOOTH",
"43 297 OFFCURVE",
"86 262 OFFCURVE",
"181 208 CURVE SMOOTH",
"233 178 OFFCURVE",
"282 154 OFFCURVE",
"282 117 CURVE SMOOTH",
"282 85 OFFCURVE",
"261 55 OFFCURVE",
"203 55 CURVE SMOOTH",
"183 55 OFFCURVE",
"147 69 OFFCURVE",
"140 83 CURVE",
"144 93 OFFCURVE",
"146 103 OFFCURVE",
"146 113 CURVE SMOOTH",
"146 147 OFFCURVE",
"121 175 OFFCURVE",
"85 175 CURVE SMOOTH",
"49 175 OFFCURVE",
"21 146 OFFCURVE",
"21 105 CURVE SMOOTH",
"21 34 OFFCURVE",
"104 -11 OFFCURVE",
"200 -11 CURVE SMOOTH"
);
}
);
width = 446;
}
);
leftKerningGroup = s;
rightKerningGroup = s;
unicode = 0073;
},
{
glyphname = germandbls;
layers = (
{
layerId = UUID0;
paths = (
{
closed = 1;
nodes = (
"79 -272 OFFCURVE",
"127 -159 OFFCURVE",
"150 -13 CURVE SMOOTH",
"169 101 OFFCURVE",
"182 369 OFFCURVE",
"194 470 CURVE SMOOTH",
"207 625 OFFCURVE",
"246 727 OFFCURVE",
"370 727 CURVE SMOOTH",
"455 727 OFFCURVE",
"485 669 OFFCURVE",
"485 614 CURVE SMOOTH",
"485 565 OFFCURVE",
"460 535 OFFCURVE",
"434 510 CURVE SMOOTH",
"393 471 OFFCURVE",
"337 445 OFFCURVE",
"337 378 CURVE SMOOTH",
"337 317 OFFCURVE",
"396 276 OFFCURVE",
"452 233 CURVE SMOOTH",
"495 200 OFFCURVE",
"534 166 OFFCURVE",
"534 121 CURVE SMOOTH",
"534 61 OFFCURVE",
"507 26 OFFCURVE",
"446 26 CURVE SMOOTH",
"410 26 OFFCURVE",
"378 43 OFFCURVE",
"368 72 CURVE",
"375 83 OFFCURVE",
"376 93 OFFCURVE",
"376 103 CURVE SMOOTH",
"376 124 OFFCURVE",
"362 145 OFFCURVE",
"336 145 CURVE SMOOTH",
"312 145 OFFCURVE",
"292 125 OFFCURVE",
"292 96 CURVE SMOOTH",
"292 27 OFFCURVE",
"367 -11 OFFCURVE",
"448 -11 CURVE SMOOTH",
"549 -11 OFFCURVE",
"616 51 OFFCURVE",
"616 135 CURVE SMOOTH",
"616 206 OFFCURVE",
"563 252 OFFCURVE",
"510 290 CURVE SMOOTH",
"458 328 OFFCURVE",
"407 358 OFFCURVE",
"407 397 CURVE SMOOTH",
"407 431 OFFCURVE",
"433 453 OFFCURVE",
"464 477 CURVE SMOOTH",
"513 515 OFFCURVE",
"561 554 OFFCURVE",
"561 624 CURVE SMOOTH",
"561 688 OFFCURVE",
"511 760 OFFCURVE",
"375 760 CURVE",
"206 760 OFFCURVE",
"147 649 OFFCURVE",
"120 500 CURVE",
"28 500 LINE",
"23 457 LINE",
"113 458 LINE",
"96 332 OFFCURVE",
"85 115 OFFCURVE",
"75 -12 CURVE SMOOTH",
"63 -145 OFFCURVE",
"44 -232 OFFCURVE",
"-16 -232 CURVE SMOOTH",
"-23 -232 OFFCURVE",
"-39 -229 OFFCURVE",
"-46 -224 CURVE",
"-46 -197 OFFCURVE",
"-60 -178 OFFCURVE",
"-84 -177 CURVE SMOOTH",
"-114 -176 OFFCURVE",
"-126 -204 OFFCURVE",
"-126 -219 CURVE SMOOTH",
"-126 -253 OFFCURVE",
"-99 -271 OFFCURVE",
"-48 -271 CURVE SMOOTH"
);
}
);
width = 650;
},
{
layerId = "6B2A2AD0-3CEC-4B3D-96BE-6A11A3496094";
paths = (
{
closed = 1;
nodes = (
"116 -271 OFFCURVE",
"179 -166 OFFCURVE",
"197 -11 CURVE",
"210 144 OFFCURVE",
"222 300 OFFCURVE",
"235 455 CURVE SMOOTH",
"244 558 OFFCURVE",
"269 688 OFFCURVE",
"395 688 CURVE SMOOTH",
"437 688 OFFCURVE",
"486 674 OFFCURVE",
"491 612 CURVE SMOOTH",
"494 576 OFFCURVE",
"476 549 OFFCURVE",
"451 525 CURVE SMOOTH",
"396 473 OFFCURVE",
"304 434 OFFCURVE",
"304 347 CURVE SMOOTH",
"304 298 OFFCURVE",
"338 260 OFFCURVE",
"430 208 CURVE SMOOTH",
"482 178 OFFCURVE",
"526 154 OFFCURVE",
"526 117 CURVE SMOOTH",
"526 85 OFFCURVE",
"510 55 OFFCURVE",
"452 55 CURVE SMOOTH",
"432 55 OFFCURVE",
"401 69 OFFCURVE",
"394 83 CURVE",
"398 93 OFFCURVE",
"400 103 OFFCURVE",
"400 113 CURVE SMOOTH",
"400 147 OFFCURVE",
"375 175 OFFCURVE",
"339 175 CURVE SMOOTH",
"303 175 OFFCURVE",
"275 146 OFFCURVE",
"275 105 CURVE SMOOTH",
"275 34 OFFCURVE",
"353 -11 OFFCURVE",
"449 -11 CURVE SMOOTH",
"564 -11 OFFCURVE",
"648 53 OFFCURVE",
"648 143 CURVE SMOOTH",
"648 226 OFFCURVE",
"570 269 OFFCURVE",
"504 307 CURVE SMOOTH",
"423 354 OFFCURVE",
"424 369 OFFCURVE",
"424 393 CURVE SMOOTH",
"424 426 OFFCURVE",
"468 451 OFFCURVE",
"512 483 CURVE SMOOTH",
"557 516 OFFCURVE",
"602 555 OFFCURVE",
"602 618 CURVE SMOOTH",
"602 738 OFFCURVE",
"468 760 OFFCURVE",
"381 760 CURVE SMOOTH",
"265 760 OFFCURVE",
"136 705 OFFCURVE",
"113 500 CURVE",
"33 500 LINE",
"24 427 LINE",
"104 428 LINE",
"95 317 OFFCURVE",
"81 103 OFFCURVE",
"71 -11 CURVE SMOOTH",
"64 -89 OFFCURVE",
"54 -200 OFFCURVE",
"9 -200 CURVE SMOOTH",
"3 -200 OFFCURVE",
"-1 -199 OFFCURVE",
"-4 -198 CURVE",
"1 -163 OFFCURVE",
"-23 -137 OFFCURVE",
"-53 -136 CURVE SMOOTH",
"-98 -135 OFFCURVE",
"-115 -176 OFFCURVE",
"-115 -199 CURVE SMOOTH",
"-115 -243 OFFCURVE",
"-81 -271 OFFCURVE",
"-20 -271 CURVE SMOOTH"
);
}
);
width = 671;
}
);
unicode = 00DF;
},
{
color = 4;
glyphname = longs;
layers = (
{
layerId = "6B2A2AD0-3CEC-4B3D-96BE-6A11A3496094";
paths = (
{
closed = 1;
nodes = (
"192 760 OFFCURVE",
"130 654 OFFCURVE",
"113 500 CURVE",
"33 500 LINE",
"24 427 LINE",
"104 428 LINE",
"95 317 OFFCURVE",
"81 103 OFFCURVE",
"71 -11 CURVE SMOOTH",
"64 -89 OFFCURVE",
"54 -200 OFFCURVE",
"9 -200 CURVE SMOOTH",
"3 -200 OFFCURVE",
"-1 -199 OFFCURVE",
"-4 -198 CURVE",
"1 -163 OFFCURVE",
"-23 -137 OFFCURVE",
"-53 -136 CURVE SMOOTH",
"-98 -135 OFFCURVE",
"-115 -176 OFFCURVE",
"-115 -199 CURVE SMOOTH",
"-115 -243 OFFCURVE",
"-81 -271 OFFCURVE",
"-20 -271 CURVE SMOOTH",
"116 -271 OFFCURVE",
"179 -166 OFFCURVE",
"197 -11 CURVE SMOOTH",
"209 93 OFFCURVE",
"225 297 OFFCURVE",
"237 500 CURVE SMOOTH",
"243 608 OFFCURVE",
"254 689 OFFCURVE",
"299 689 CURVE SMOOTH",
"305 689 OFFCURVE",
"310 688 OFFCURVE",
"312 687 CURVE",
"307 652 OFFCURVE",
"331 626 OFFCURVE",
"361 625 CURVE SMOOTH",
"406 624 OFFCURVE",
"423 663 OFFCURVE",
"423 686 CURVE SMOOTH",
"423 729 OFFCURVE",
"389 760 OFFCURVE",
"329 760 CURVE SMOOTH"
);
}
);
width = 353;
},
{
layerId = UUID0;
paths = (
{
closed = 1;
nodes = (
"183 757 OFFCURVE",
"138 645 OFFCURVE",
"117 500 CURVE",
"29 500 LINE",
"24 457 LINE",
"112 458 LINE",
"104 390 OFFCURVE",
"81 62 OFFCURVE",
"75 -7 CURVE SMOOTH",
"63 -142 OFFCURVE",
"45 -232 OFFCURVE",
"-16 -232 CURVE SMOOTH",
"-28 -232 OFFCURVE",
"-38 -229 OFFCURVE",
"-45 -224 CURVE",
"-45 -197 OFFCURVE",
"-60 -179 OFFCURVE",
"-84 -178 CURVE SMOOTH",
"-114 -177 OFFCURVE",
"-125 -204 OFFCURVE",
"-125 -219 CURVE SMOOTH",
"-125 -253 OFFCURVE",
"-98 -271 OFFCURVE",
"-47 -271 CURVE SMOOTH",
"85 -271 OFFCURVE",
"131 -156 OFFCURVE",
"152 -9 CURVE SMOOTH",
"167 87 OFFCURVE",
"178 256 OFFCURVE",
"193 500 CURVE SMOOTH",
"203 625 OFFCURVE",
"221 716 OFFCURVE",
"284 722 CURVE SMOOTH",
"295 723 OFFCURVE",
"309 721 OFFCURVE",
"313 718 CURVE",
"312 689 OFFCURVE",
"328 668 OFFCURVE",
"353 668 CURVE SMOOTH",
"383 667 OFFCURVE",
"393 693 OFFCURVE",
"393 708 CURVE SMOOTH",
"393 742 OFFCURVE",
"365 761 OFFCURVE",
"316 760 CURVE SMOOTH"
);
}
);
width = 325;
}
);
leftMetricsKey = f;
rightMetricsKey = f;
unicode = 017F;
},
{
glyphname = t;
layers = (
{
anchors = (
{
name = bottom;
position = "{199, 0}";
},
{
name = center;
position = "{155, 286}";
}
);
layerId = UUID0;
paths = (
{
closed = 1;
nodes = (
"179 641 LINE",
"153 551 OFFCURVE",
"117 500 OFFCURVE",
"25 500 CURVE",
"22 458 LINE",
"111 459 LINE",
"94 315 OFFCURVE",
"85 182 OFFCURVE",
"85 107 CURVE SMOOTH",
"85 44 OFFCURVE",
"111 -11 OFFCURVE",
"189 -11 CURVE SMOOTH",
"253 -11 OFFCURVE",
"294 25 OFFCURVE",
"333 93 CURVE",
"307 110 LINE",
"269 46 OFFCURVE",
"232 40 OFFCURVE",
"213 40 CURVE SMOOTH",
"169 40 OFFCURVE",
"166 88 OFFCURVE",
"166 127 CURVE SMOOTH",
"166 216 OFFCURVE",
"183 348 OFFCURVE",
"195 460 CURVE",
"355 462 LINE",
"358 500 LINE",
"199 500 LINE",
"217 641 LINE"
);
}
);
width = 364;
},
{
anchors = (
{
name = bottom;
position = "{218, 0}";
},
{
name = center;
position = "{178, 290}";
}
);
layerId = "6B2A2AD0-3CEC-4B3D-96BE-6A11A3496094";
paths = (
{
closed = 1;
nodes = (
"186 651 LINE",
"167 553 OFFCURVE",
"126 500 OFFCURVE",
"27 500 CURVE",
"18 427 LINE",
"98 428 LINE",
"87 333 OFFCURVE",
"78 219 OFFCURVE",
"75 151 CURVE SMOOTH",
"73 68 OFFCURVE",
"92 -11 OFFCURVE",
"202 -11 CURVE SMOOTH",
"277 -11 OFFCURVE",
"345 31 OFFCURVE",
"390 116 CURVE",
"339 148 LINE",
"309 93 OFFCURVE",
"264 85 OFFCURVE",
"249 85 CURVE SMOOTH",
"205 85 OFFCURVE",
"201 125 OFFCURVE",
"201 151 CURVE SMOOTH",
"201 196 OFFCURVE",
"215 333 OFFCURVE",
"227 429 CURVE",
"352 431 LINE",
"358 500 LINE",
"233 500 LINE",
"253 651 LINE"
);
}
);
width = 395;
}
);
leftKerningGroup = t;
rightKerningGroup = t;
unicode = 0074;
},
{
glyphname = u;
layers = (
{
anchors = (
{
name = bottom;
position = "{283, 0}";
},
{
name = ogonek;
position = "{512, 5}";
},
{
name = top;
position = "{310, 512}";
},
{
name = topright;
position = "{528, 505}";
}
);
layerId = UUID0;
paths = (
{
closed = 1;
nodes = (
"273 -11 OFFCURVE",
"329 31 OFFCURVE",
"397 213 CURVE",
"400 213 LINE",
"390 163 OFFCURVE",
"382 117 OFFCURVE",
"382 79 CURVE SMOOTH",
"382 25 OFFCURVE",
"405 -11 OFFCURVE",
"459 -11 CURVE SMOOTH",
"539 -11 OFFCURVE",
"580 83 OFFCURVE",
"589 130 CURVE",
"561 136 LINE",
"541 65 OFFCURVE",
"510 40 OFFCURVE",
"488 40 CURVE SMOOTH",
"467 40 OFFCURVE",
"461 60 OFFCURVE",
"461 84 CURVE SMOOTH",
"461 114 OFFCURVE",
"462 114 OFFCURVE",
"480 270 CURVE SMOOTH",
"495 396 OFFCURVE",
"500 440 OFFCURVE",
"500 474 CURVE SMOOTH",
"500 485 OFFCURVE",
"500 491 OFFCURVE",
"499 500 CURVE",
"415 500 LINE",
"416 483 OFFCURVE",
"417 467 OFFCURVE",
"417 447 CURVE SMOOTH",
"417 278 OFFCURVE",
"320 36 OFFCURVE",
"228 36 CURVE SMOOTH",
"189 36 OFFCURVE",
"181 76 OFFCURVE",
"181 99 CURVE SMOOTH",
"181 183 OFFCURVE",
"214 338 OFFCURVE",
"214 414 CURVE SMOOTH",
"214 476 OFFCURVE",
"186 511 OFFCURVE",
"133 511 CURVE SMOOTH",
"53 511 OFFCURVE",
"15 417 OFFCURVE",
"6 370 CURVE",
"34 364 LINE",
"54 435 OFFCURVE",
"82 461 OFFCURVE",
"104 461 CURVE SMOOTH",
"128 461 OFFCURVE",
"131 439 OFFCURVE",
"131 414 CURVE SMOOTH",
"131 357 OFFCURVE",
"99 230 OFFCURVE",
"99 119 CURVE SMOOTH",
"99 50 OFFCURVE",
"128 -11 OFFCURVE",
"208 -11 CURVE SMOOTH"
);
}
);
width = 593;
},
{
anchors = (
{
name = bottom;
position = "{286, 0}";
},
{
name = ogonek;
position = "{511, 5}";
},
{
name = top;
position = "{315, 500}";
},
{
name = topright;
position = "{549, 500}";
}
);
background = {
paths = (
{
closed = 1;
nodes = (
"393 402 OFFCURVE",
"397 365 OFFCURVE",
"377 153 CURVE SMOOTH",
"375 126 OFFCURVE",
"371 109 OFFCURVE",
"371 80 CURVE SMOOTH",
"371 9 OFFCURVE",
"412 -11 OFFCURVE",
"455 -11 CURVE SMOOTH",
"542 -11 OFFCURVE",
"577 88 OFFCURVE",
"588 145 CURVE",
"534 161 LINE",
"517 101 OFFCURVE",
"501 82 OFFCURVE",
"486 82 CURVE SMOOTH",
"479 82 OFFCURVE",
"472 86 OFFCURVE",
"472 108 CURVE SMOOTH",
"472 157 OFFCURVE",
"509 366 OFFCURVE",
"509 452 CURVE SMOOTH",
"509 465 OFFCURVE",
"509 472 OFFCURVE",
"506 500 CURVE",
"377 500 LINE"
);
}
);
};
layerId = "6B2A2AD0-3CEC-4B3D-96BE-6A11A3496094";
paths = (
{
closed = 1;
nodes = (
"269 -11 OFFCURVE",
"329 24 OFFCURVE",
"375 145 CURVE",
"376 145 LINE",
"374 122 OFFCURVE",
"371 106 OFFCURVE",
"371 80 CURVE SMOOTH",
"371 9 OFFCURVE",
"412 -11 OFFCURVE",
"455 -11 CURVE SMOOTH",
"542 -11 OFFCURVE",
"577 88 OFFCURVE",
"588 145 CURVE",
"534 161 LINE",
"517 101 OFFCURVE",
"501 82 OFFCURVE",
"486 82 CURVE SMOOTH",
"479 82 OFFCURVE",
"472 86 OFFCURVE",
"472 108 CURVE SMOOTH",
"472 133 OFFCURVE",
"482 199 OFFCURVE",
"491 270 CURVE SMOOTH",
"500 338 OFFCURVE",
"509 410 OFFCURVE",
"509 452 CURVE SMOOTH",
"509 465 OFFCURVE",
"509 472 OFFCURVE",
"506 500 CURVE",
"377 500 LINE",
"379 484 OFFCURVE",
"380 446 OFFCURVE",
"380 428 CURVE SMOOTH",
"380 288 OFFCURVE",
"303 81 OFFCURVE",
"247 81 CURVE SMOOTH",
"227 81 OFFCURVE",
"219 93 OFFCURVE",
"219 123 CURVE SMOOTH",
"219 185 OFFCURVE",
"245 319 OFFCURVE",
"245 398 CURVE SMOOTH",
"245 469 OFFCURVE",
"224 511 OFFCURVE",
"150 511 CURVE SMOOTH",
"60 511 OFFCURVE",
"10 412 OFFCURVE",
"-1 355 CURVE",
"53 339 LINE",
"70 399 OFFCURVE",
"86 418 OFFCURVE",
"101 418 CURVE SMOOTH",
"108 418 OFFCURVE",
"117 414 OFFCURVE",
"117 392 CURVE SMOOTH",
"117 319 OFFCURVE",
"91 216 OFFCURVE",
"91 143 CURVE SMOOTH",
"91 49 OFFCURVE",
"126 -11 OFFCURVE",
"211 -11 CURVE SMOOTH"
);
}
);
width = 598;
}
);
leftKerningGroup = u;
rightKerningGroup = u;
unicode = 0075;
},
{
glyphname = v;
layers = (
{
layerId = UUID0;
paths = (
{
closed = 1;
nodes = (
"320 511 OFFCURVE",
"306 481 OFFCURVE",
"306 461 CURVE",
"307 431 OFFCURVE",
"330 419 OFFCURVE",
"348 419 CURVE SMOOTH",
"365 419 OFFCURVE",
"380 426 OFFCURVE",
"388 444 CURVE",
"455 416 OFFCURVE",
"439 277 OFFCURVE",
"422 224 CURVE SMOOTH",
"392 128 OFFCURVE",
"306 44 OFFCURVE",
"240 43 CURVE SMOOTH",
"192 42 OFFCURVE",
"191 87 OFFCURVE",
"192 119 CURVE SMOOTH",
"194 187 OFFCURVE",
"212 335 OFFCURVE",
"211 416 CURVE SMOOTH",
"209 478 OFFCURVE",
"181 513 OFFCURVE",
"128 511 CURVE SMOOTH",
"48 509 OFFCURVE",
"12 416 OFFCURVE",
"4 369 CURVE",
"32 362 LINE",
"51 434 OFFCURVE",
"78 460 OFFCURVE",
"100 460 CURVE SMOOTH",
"124 460 OFFCURVE",
"128 439 OFFCURVE",
"128 415 CURVE SMOOTH",
"128 357 OFFCURVE",
"106 228 OFFCURVE",
"108 117 CURVE",
"110 48 OFFCURVE",
"139 -12 OFFCURVE",
"222 -11 CURVE SMOOTH",
"325 -10 OFFCURVE",
"420 95 OFFCURVE",
"460 201 CURVE SMOOTH",
"512 339 OFFCURVE",
"484 511 OFFCURVE",
"363 511 CURVE SMOOTH"
);
}
);
width = 526;
},
{
layerId = "6B2A2AD0-3CEC-4B3D-96BE-6A11A3496094";
paths = (
{
closed = 1;
nodes = (
"304 511 OFFCURVE",
"285 469 OFFCURVE",
"285 441 CURVE SMOOTH",
"285 397 OFFCURVE",
"320 379 OFFCURVE",
"347 379 CURVE SMOOTH",
"366 379 OFFCURVE",
"381 388 OFFCURVE",
"393 397 CURVE",
"407 383 OFFCURVE",
"418 350 OFFCURVE",
"418 320 CURVE SMOOTH",
"418 180 OFFCURVE",
"333 66 OFFCURVE",
"261 64 CURVE SMOOTH",
"229 64 OFFCURVE",
"225 100 OFFCURVE",
"225 121 CURVE SMOOTH",
"225 181 OFFCURVE",
"243 309 OFFCURVE",
"243 395 CURVE SMOOTH",
"243 458 OFFCURVE",
"224 511 OFFCURVE",
"147 511 CURVE SMOOTH",
"57 511 OFFCURVE",
"7 412 OFFCURVE",
"-4 355 CURVE",
"50 339 LINE",
"67 399 OFFCURVE",
"83 418 OFFCURVE",
"98 418 CURVE SMOOTH",
"105 418 OFFCURVE",
"114 414 OFFCURVE",
"114 392 CURVE SMOOTH",
"114 344 OFFCURVE",
"98 214 OFFCURVE",
"98 145 CURVE SMOOTH",
"98 48 OFFCURVE",
"134 -11 OFFCURVE",
"225 -11 CURVE SMOOTH",
"392 -11 OFFCURVE",
"492 191 OFFCURVE",
"492 329 CURVE SMOOTH",
"492 428 OFFCURVE",
"447 511 OFFCURVE",
"361 511 CURVE SMOOTH"
);
}
);
width = 523;
}
);
rightKerningGroup = v;
unicode = 0076;
},
{
glyphname = w;
layers = (
{
anchors = (
{
name = top;
position = "{427, 512}";
}
);
layerId = UUID0;
paths = (
{
closed = 1;
nodes = (
"595 511 OFFCURVE",
"580 484 OFFCURVE",
"580 462 CURVE SMOOTH",
"580 432 OFFCURVE",
"604 419 OFFCURVE",
"622 419 CURVE SMOOTH",
"639 419 OFFCURVE",
"655 426 OFFCURVE",
"663 444 CURVE",
"729 416 OFFCURVE",
"713 277 OFFCURVE",
"696 224 CURVE SMOOTH",
"662 119 OFFCURVE",
"583 40 OFFCURVE",
"507 41 CURVE",
"462 42 OFFCURVE",
"453 80 OFFCURVE",
"453 119 CURVE SMOOTH",
"453 210 OFFCURVE",
"486 321 OFFCURVE",
"486 455 CURVE SMOOTH",
"486 465 OFFCURVE",
"485 489 OFFCURVE",
"482 500 CURVE",
"396 500 LINE",
"401 460 OFFCURVE",
"403 423 OFFCURVE",
"403 388 CURVE SMOOTH",
"403 169 OFFCURVE",
"314 42 OFFCURVE",
"229 42 CURVE SMOOTH",
"195 42 OFFCURVE",
"186 73 OFFCURVE",
"186 102 CURVE SMOOTH",
"186 159 OFFCURVE",
"213 327 OFFCURVE",
"213 414 CURVE SMOOTH",
"213 476 OFFCURVE",
"185 511 OFFCURVE",
"132 511 CURVE SMOOTH",
"52 511 OFFCURVE",
"14 417 OFFCURVE",
"5 370 CURVE",
"33 364 LINE",
"53 435 OFFCURVE",
"81 461 OFFCURVE",
"103 461 CURVE SMOOTH",
"127 461 OFFCURVE",
"130 439 OFFCURVE",
"130 414 CURVE SMOOTH",
"130 357 OFFCURVE",
"104 225 OFFCURVE",
"104 119 CURVE SMOOTH",
"104 48 OFFCURVE",
"130 -11 OFFCURVE",
"208 -11 CURVE SMOOTH",
"276 -11 OFFCURVE",
"351 56 OFFCURVE",
"382 140 CURVE",
"371 19 OFFCURVE",
"431 -11 OFFCURVE",
"483 -11 CURVE SMOOTH",
"596 -11 OFFCURVE",
"691 82 OFFCURVE",
"735 201 CURVE SMOOTH",
"786 338 OFFCURVE",
"759 511 OFFCURVE",
"640 511 CURVE SMOOTH"
);
}
);
width = 801;
},
{
anchors = (
{
name = top;
position = "{414, 500}";
}
);
layerId = "6B2A2AD0-3CEC-4B3D-96BE-6A11A3496094";
paths = (
{
closed = 1;
nodes = (
"577 511 OFFCURVE",
"558 469 OFFCURVE",
"558 441 CURVE SMOOTH",
"558 397 OFFCURVE",
"593 379 OFFCURVE",
"620 379 CURVE SMOOTH",
"639 379 OFFCURVE",
"654 388 OFFCURVE",
"666 397 CURVE",
"680 383 OFFCURVE",
"691 350 OFFCURVE",
"691 320 CURVE SMOOTH",
"691 183 OFFCURVE",
"588 64 OFFCURVE",
"519 64 CURVE SMOOTH",
"488 64 OFFCURVE",
"479 100 OFFCURVE",
"479 121 CURVE SMOOTH",
"479 181 OFFCURVE",
"502 366 OFFCURVE",
"502 452 CURVE SMOOTH",
"502 465 OFFCURVE",
"502 472 OFFCURVE",
"500 500 CURVE",
"371 500 LINE",
"372 484 OFFCURVE",
"374 446 OFFCURVE",
"374 428 CURVE SMOOTH",
"374 308 OFFCURVE",
"347 64 OFFCURVE",
"250 64 CURVE SMOOTH",
"223 64 OFFCURVE",
"222 100 OFFCURVE",
"222 121 CURVE SMOOTH",
"222 181 OFFCURVE",
"246 309 OFFCURVE",
"246 395 CURVE SMOOTH",
"246 458 OFFCURVE",
"226 511 OFFCURVE",
"149 511 CURVE SMOOTH",
"59 511 OFFCURVE",
"9 412 OFFCURVE",
"-2 355 CURVE",
"52 339 LINE",
"69 399 OFFCURVE",
"85 418 OFFCURVE",
"101 418 CURVE SMOOTH",
"108 418 OFFCURVE",
"117 414 OFFCURVE",
"117 392 CURVE SMOOTH",
"117 344 OFFCURVE",
"94 214 OFFCURVE",
"94 145 CURVE SMOOTH",
"94 48 OFFCURVE",
"130 -11 OFFCURVE",
"216 -11 CURVE SMOOTH",
"284 -11 OFFCURVE",
"354 27 OFFCURVE",
"383 135 CURVE",
"373 56 OFFCURVE",
"397 -11 OFFCURVE",
"484 -11 CURVE SMOOTH",
"646 -11 OFFCURVE",
"765 187 OFFCURVE",
"765 329 CURVE SMOOTH",
"765 428 OFFCURVE",
"720 511 OFFCURVE",
"634 511 CURVE SMOOTH"
);
}
);
width = 795;
}
);
rightKerningGroup = v;
unicode = 0077;
},
{
glyphname = x;
layers = (
{
layerId = UUID0;
paths = (
{
closed = 1;
nodes = (
"126 -11 OFFCURVE",
"182 6 OFFCURVE",
"249 202 CURVE",
"250 202 LINE",
"321 21 OFFCURVE",
"341 -11 OFFCURVE",
"407 -11 CURVE SMOOTH",
"474 -11 OFFCURVE",
"498 58 OFFCURVE",
"507 125 CURVE",
"479 129 LINE",
"469 76 OFFCURVE",
"452 50 OFFCURVE",
"428 50 CURVE SMOOTH",
"396 50 OFFCURVE",
"365 103 OFFCURVE",
"302 265 CURVE",
"359 406 OFFCURVE",
"400 445 OFFCURVE",
"428 449 CURVE",
"434 440 OFFCURVE",
"444 419 OFFCURVE",
"474 419 CURVE SMOOTH",
"497 419 OFFCURVE",
"515 439 OFFCURVE",
"515 462 CURVE SMOOTH",
"515 490 OFFCURVE",
"496 511 OFFCURVE",
"461 511 CURVE SMOOTH",
"424 511 OFFCURVE",
"355 488 OFFCURVE",
"284 314 CURVE",
"267 362 OFFCURVE",
"255 402 OFFCURVE",
"243 433 CURVE SMOOTH",
"222 484 OFFCURVE",
"201 511 OFFCURVE",
"155 511 CURVE SMOOTH",
"65 511 OFFCURVE",
"49 404 OFFCURVE",
"49 351 CURVE",
"78 352 LINE",
"82 430 OFFCURVE",
"105 450 OFFCURVE",
"129 450 CURVE SMOOTH",
"147 450 OFFCURVE",
"159 436 OFFCURVE",
"172 405 CURVE SMOOTH",
"187 373 OFFCURVE",
"203 323 OFFCURVE",
"230 252 CURVE",
"175 91 OFFCURVE",
"131 37 OFFCURVE",
"94 45 CURVE",
"93 61 OFFCURVE",
"87 86 OFFCURVE",
"56 86 CURVE SMOOTH",
"34 86 OFFCURVE",
"15 68 OFFCURVE",
"15 40 CURVE SMOOTH",
"15 10 OFFCURVE",
"39 -11 OFFCURVE",
"77 -11 CURVE SMOOTH"
);
}
);
width = 545;
},
{
layerId = "6B2A2AD0-3CEC-4B3D-96BE-6A11A3496094";
paths = (
{
closed = 1;
nodes = (
"142 -11 OFFCURVE",
"187 11 OFFCURVE",
"237 161 CURVE",
"238 161 LINE",
"296 25 OFFCURVE",
"316 -11 OFFCURVE",
"383 -11 CURVE SMOOTH",
"490 -11 OFFCURVE",
"515 91 OFFCURVE",
"521 149 CURVE",
"465 157 LINE",
"458 95 OFFCURVE",
"445 82 OFFCURVE",
"427 82 CURVE SMOOTH",
"395 82 OFFCURVE",
"349 199 OFFCURVE",
"322 274 CURVE",
"357 359 OFFCURVE",
"373 387 OFFCURVE",
"391 401 CURVE",
"400 390 OFFCURVE",
"415 380 OFFCURVE",
"439 380 CURVE SMOOTH",
"474 380 OFFCURVE",
"502 410 OFFCURVE",
"502 443 CURVE SMOOTH",
"502 482 OFFCURVE",
"480 511 OFFCURVE",
"432 511 CURVE SMOOTH",
"397 511 OFFCURVE",
"349 499 OFFCURVE",
"293 356 CURVE",
"283 393 OFFCURVE",
"279 404 OFFCURVE",
"271 424 CURVE SMOOTH",
"252 476 OFFCURVE",
"228 511 OFFCURVE",
"173 511 CURVE SMOOTH",
"66 511 OFFCURVE",
"32 409 OFFCURVE",
"26 351 CURVE",
"82 343 LINE",
"89 403 OFFCURVE",
"108 419 OFFCURVE",
"125 418 CURVE",
"138 417 OFFCURVE",
"147 412 OFFCURVE",
"160 384 CURVE SMOOTH",
"177 345 OFFCURVE",
"187 307 OFFCURVE",
"208 251 CURVE",
"174 152 OFFCURVE",
"155 104 OFFCURVE",
"135 91 CURVE",
"129 109 OFFCURVE",
"111 128 OFFCURVE",
"79 128 CURVE SMOOTH",
"45 128 OFFCURVE",
"16 99 OFFCURVE",
"16 58 CURVE SMOOTH",
"16 17 OFFCURVE",
"47 -11 OFFCURVE",
"96 -11 CURVE SMOOTH"
);
}
);
width = 543;
}
);
unicode = 0078;
},
{
glyphname = y;
layers = (
{
anchors = (
{
name = bottom;
position = "{393, 0}";
},
{
name = top;
position = "{257, 512}";
}
);
layerId = UUID0;
paths = (
{
closed = 1;
nodes = (
"148 -274 OFFCURVE",
"233 -198 OFFCURVE",
"333 -17 CURVE SMOOTH",
"401 107 OFFCURVE",
"466 250 OFFCURVE",
"466 383 CURVE SMOOTH",
"466 446 OFFCURVE",
"447 511 OFFCURVE",
"386 511 CURVE SMOOTH",
"362 511 OFFCURVE",
"339 496 OFFCURVE",
"339 467 CURVE SMOOTH",
"339 446 OFFCURVE",
"355 428 OFFCURVE",
"379 428 CURVE SMOOTH",
"389 428 OFFCURVE",
"398 430 OFFCURVE",
"404 434 CURVE",
"412 423 OFFCURVE",
"419 396 OFFCURVE",
"419 363 CURVE SMOOTH",
"419 254 OFFCURVE",
"361 117 OFFCURVE",
"305 19 CURVE",
"303 19 LINE",
"289 136 OFFCURVE",
"252 296 OFFCURVE",
"214 398 CURVE SMOOTH",
"196 447 OFFCURVE",
"168 511 OFFCURVE",
"101 511 CURVE SMOOTH",
"19 511 OFFCURVE",
"3 410 OFFCURVE",
"10 338 CURVE",
"42 342 LINE",
"36 403 OFFCURVE",
"51 443 OFFCURVE",
"76 446 CURVE SMOOTH",
"102 449 OFFCURVE",
"115 417 OFFCURVE",
"125 395 CURVE SMOOTH",
"181 260 OFFCURVE",
"224 80 OFFCURVE",
"247 -75 CURVE",
"226 -111 OFFCURVE",
"152 -224 OFFCURVE",
"94 -221 CURVE SMOOTH",
"86 -221 OFFCURVE",
"80 -218 OFFCURVE",
"72 -214 CURVE",
"73 -181 OFFCURVE",
"57 -162 OFFCURVE",
"29 -162 CURVE SMOOTH",
"11 -162 OFFCURVE",
"-12 -178 OFFCURVE",
"-12 -208 CURVE SMOOTH",
"-12 -243 OFFCURVE",
"18 -269 OFFCURVE",
"64 -271 CURVE SMOOTH"
);
}
);
width = 514;
},
{
anchors = (
{
name = bottom;
position = "{466, 0}";
},
{
name = top;
position = "{280, 500}";
}
);
layerId = "6B2A2AD0-3CEC-4B3D-96BE-6A11A3496094";
paths = (
{
closed = 1;
nodes = (
"227 -271 OFFCURVE",
"331 -145 OFFCURVE",
"407 2 CURVE SMOOTH",
"475 135 OFFCURVE",
"520 284 OFFCURVE",
"520 371 CURVE SMOOTH",
"520 439 OFFCURVE",
"492 511 OFFCURVE",
"418 511 CURVE SMOOTH",
"385 511 OFFCURVE",
"349 489 OFFCURVE",
"349 443 CURVE SMOOTH",
"349 411 OFFCURVE",
"376 385 OFFCURVE",
"410 385 CURVE SMOOTH",
"415 385 OFFCURVE",
"419 385 OFFCURVE",
"424 386 CURVE",
"438 370 OFFCURVE",
"437 331 OFFCURVE",
"436 316 CURVE SMOOTH",
"431 249 OFFCURVE",
"409 165 OFFCURVE",
"368 73 CURVE",
"367 73 LINE",
"345 202 OFFCURVE",
"293 339 OFFCURVE",
"265 407 CURVE SMOOTH",
"244 457 OFFCURVE",
"208 511 OFFCURVE",
"142 511 CURVE SMOOTH",
"35 511 OFFCURVE",
"-1 409 OFFCURVE",
"-7 351 CURVE",
"49 343 LINE",
"56 405 OFFCURVE",
"76 418 OFFCURVE",
"94 418 CURVE SMOOTH",
"116 418 OFFCURVE",
"131 385 OFFCURVE",
"141 364 CURVE SMOOTH",
"192 247 OFFCURVE",
"264 67 OFFCURVE",
"284 -61 CURVE",
"267 -98 OFFCURVE",
"209 -178 OFFCURVE",
"163 -178 CURVE SMOOTH",
"160 -178 OFFCURVE",
"156 -178 OFFCURVE",
"153 -177 CURVE",
"148 -143 OFFCURVE",
"127 -123 OFFCURVE",
"92 -123 CURVE SMOOTH",
"61 -123 OFFCURVE",
"28 -150 OFFCURVE",
"28 -193 CURVE SMOOTH",
"28 -239 OFFCURVE",
"62 -271 OFFCURVE",
"123 -271 CURVE SMOOTH"
);
}
);
width = 561;
}
);
leftKerningGroup = y;
rightKerningGroup = y;
unicode = 0079;
},
{
glyphname = z;
layers = (
{
anchors = (
{
name = top;
position = "{261, 512}";
}
);
layerId = UUID0;
paths = (
{
closed = 1;
nodes = (
"83 20 OFFCURVE",
"112 25 OFFCURVE",
"141 25 CURVE SMOOTH",
"200 25 OFFCURVE",
"258 -11 OFFCURVE",
"318 -11 CURVE SMOOTH",
"376 -11 OFFCURVE",
"423 32 OFFCURVE",
"423 96 CURVE SMOOTH",
"423 119 OFFCURVE",
"418 142 OFFCURVE",
"411 162 CURVE",
"384 153 LINE",
"389 139 OFFCURVE",
"391 125 OFFCURVE",
"391 115 CURVE SMOOTH",
"391 68 OFFCURVE",
"359 61 OFFCURVE",
"336 61 CURVE SMOOTH",
"292 61 OFFCURVE",
"247 94 OFFCURVE",
"198 94 CURVE SMOOTH",
"149 94 OFFCURVE",
"114 78 OFFCURVE",
"83 42 CURVE",
"82 42 LINE",
"130 107 OFFCURVE",
"171 159 OFFCURVE",
"230 235 CURVE SMOOTH",
"313 343 OFFCURVE",
"401 446 OFFCURVE",
"431 484 CURVE",
"401 512 LINE",
"367 483 OFFCURVE",
"328 479 OFFCURVE",
"311 479 CURVE SMOOTH",
"251 479 OFFCURVE",
"219 511 OFFCURVE",
"159 511 CURVE SMOOTH",
"101 511 OFFCURVE",
"51 468 OFFCURVE",
"51 404 CURVE SMOOTH",
"51 381 OFFCURVE",
"57 358 OFFCURVE",
"64 338 CURVE",
"91 347 LINE",
"86 361 OFFCURVE",
"84 374 OFFCURVE",
"84 385 CURVE SMOOTH",
"84 432 OFFCURVE",
"116 443 OFFCURVE",
"139 443 CURVE SMOOTH",
"183 443 OFFCURVE",
"214 418 OFFCURVE",
"257 415 CURVE SMOOTH",
"283 412 OFFCURVE",
"316 418 OFFCURVE",
"351 455 CURVE",
"353 455 LINE",
"306 398 OFFCURVE",
"268 352 OFFCURVE",
"213 280 CURVE SMOOTH",
"149 196 OFFCURVE",
"68 87 OFFCURVE",
"18 14 CURVE",
"50 -11 LINE"
);
}
);
width = 471;
},
{
anchors = (
{
name = top;
position = "{258, 500}";
}
);
layerId = "6B2A2AD0-3CEC-4B3D-96BE-6A11A3496094";
paths = (
{
closed = 1;
nodes = (
"93 17 OFFCURVE",
"121 19 OFFCURVE",
"136 19 CURVE SMOOTH",
"193 19 OFFCURVE",
"271 -11 OFFCURVE",
"327 -11 CURVE SMOOTH",
"409 -11 OFFCURVE",
"450 59 OFFCURVE",
"450 130 CURVE SMOOTH",
"450 161 OFFCURVE",
"443 185 OFFCURVE",
"436 206 CURVE",
"385 189 LINE",
"391 175 OFFCURVE",
"394 160 OFFCURVE",
"393 147 CURVE SMOOTH",
"392 123 OFFCURVE",
"378 104 OFFCURVE",
"353 104 CURVE SMOOTH",
"315 104 OFFCURVE",
"289 129 OFFCURVE",
"239 129 CURVE SMOOTH",
"208 129 OFFCURVE",
"169 122 OFFCURVE",
"114 78 CURVE",
"113 78 LINE",
"164 120 OFFCURVE",
"229 172 OFFCURVE",
"315 280 CURVE",
"365 344 OFFCURVE",
"414 407 OFFCURVE",
"464 471 CURVE",
"421 511 LINE",
"389 483 OFFCURVE",
"356 481 OFFCURVE",
"341 481 CURVE SMOOTH",
"284 481 OFFCURVE",
"216 511 OFFCURVE",
"160 511 CURVE SMOOTH",
"78 511 OFFCURVE",
"37 441 OFFCURVE",
"37 370 CURVE SMOOTH",
"37 339 OFFCURVE",
"41 313 OFFCURVE",
"49 292 CURVE",
"99 309 LINE",
"95 320 OFFCURVE",
"93 332 OFFCURVE",
"93 343 CURVE SMOOTH",
"93 371 OFFCURVE",
"107 394 OFFCURVE",
"134 394 CURVE SMOOTH",
"172 394 OFFCURVE",
"201 369 OFFCURVE",
"243 369 CURVE SMOOTH",
"274 369 OFFCURVE",
"309 379 OFFCURVE",
"362 423 CURVE",
"363 423 LINE",
"311 374 OFFCURVE",
"279 353 OFFCURVE",
"213 276 CURVE SMOOTH",
"151 204 OFFCURVE",
"63 95 OFFCURVE",
"18 29 CURVE",
"61 -11 LINE"
);
}
);
width = 491;
}
);
leftKerningGroup = z;
rightKerningGroup = z;
unicode = 007A;
},
{
glyphname = fi;
layers = (
{
layerId = UUID0;
paths = (
{
closed = 1;
nodes = (
"81 -271 OFFCURVE",
"131 -154 OFFCURVE",
"153 -11 CURVE SMOOTH",
"165 67 OFFCURVE",
"173 218 OFFCURVE",
"190 459 CURVE",
"332 461 LINE",
"335 500 LINE",
"193 500 LINE",
"204 662 OFFCURVE",
"243 726 OFFCURVE",
"337 729 CURVE SMOOTH",
"385 731 OFFCURVE",
"435 706 OFFCURVE",
"443 672 CURVE",
"438 659 OFFCURVE",
"436 646 OFFCURVE",
"437 635 CURVE SMOOTH",
"439 617 OFFCURVE",
"453 601 OFFCURVE",
"477 599 CURVE SMOOTH",
"500 597 OFFCURVE",
"523 614 OFFCURVE",
"524 644 CURVE SMOOTH",
"527 703 OFFCURVE",
"448 759 OFFCURVE",
"352 760 CURVE",
"215 756 OFFCURVE",
"144 674 OFFCURVE",
"116 500 CURVE",
"29 500 LINE",
"24 457 LINE",
"111 458 LINE",
"96 323 OFFCURVE",
"89 128 OFFCURVE",
"75 -17 CURVE SMOOTH",
"62 -130 OFFCURVE",
"50 -232 OFFCURVE",
"-15 -232 CURVE SMOOTH",
"-31 -232 OFFCURVE",
"-38 -230 OFFCURVE",
"-49 -224 CURVE",
"-48 -220 OFFCURVE",
"-47 -216 OFFCURVE",
"-47 -213 CURVE SMOOTH",
"-47 -192 OFFCURVE",
"-64 -179 OFFCURVE",
"-84 -178 CURVE SMOOTH",
"-114 -177 OFFCURVE",
"-125 -204 OFFCURVE",
"-125 -219 CURVE SMOOTH",
"-125 -253 OFFCURVE",
"-98 -271 OFFCURVE",
"-47 -271 CURVE SMOOTH"
);
},
{
closed = 1;
nodes = (
"582 -11 OFFCURVE",
"619 74 OFFCURVE",
"631 130 CURVE",
"603 136 LINE",
"583 65 OFFCURVE",
"552 39 OFFCURVE",
"530 39 CURVE SMOOTH",
"508 39 OFFCURVE",
"499 54 OFFCURVE",
"499 81 CURVE SMOOTH",
"499 193 OFFCURVE",
"537 327 OFFCURVE",
"537 407 CURVE SMOOTH",
"537 469 OFFCURVE",
"509 511 OFFCURVE",
"453 511 CURVE SMOOTH",
"373 511 OFFCURVE",
"336 417 OFFCURVE",
"327 370 CURVE",
"355 364 LINE",
"375 435 OFFCURVE",
"406 461 OFFCURVE",
"428 461 CURVE SMOOTH",
"451 461 OFFCURVE",
"456 433 OFFCURVE",
"456 416 CURVE SMOOTH",
"456 302 OFFCURVE",
"417 199 OFFCURVE",
"417 83 CURVE SMOOTH",
"417 21 OFFCURVE",
"446 -11 OFFCURVE",
"507 -11 CURVE SMOOTH"
);
}
);
width = 643;
},
{
layerId = "6B2A2AD0-3CEC-4B3D-96BE-6A11A3496094";
paths = (
{
closed = 1;
nodes = (
"116 -271 OFFCURVE",
"179 -166 OFFCURVE",
"197 -11 CURVE SMOOTH",
"210 102 OFFCURVE",
"226 315 OFFCURVE",
"233 429 CURVE",
"335 431 LINE",
"341 500 LINE",
"237 500 LINE",
"252 640 OFFCURVE",
"283 694 OFFCURVE",
"380 694 CURVE SMOOTH",
"428 694 OFFCURVE",
"448 681 OFFCURVE",
"469 658 CURVE",
"466 648 OFFCURVE",
"464 635 OFFCURVE",
"464 626 CURVE SMOOTH",
"464 591 OFFCURVE",
"492 567 OFFCURVE",
"526 567 CURVE SMOOTH",
"574 567 OFFCURVE",
"588 609 OFFCURVE",
"588 633 CURVE SMOOTH",
"588 729 OFFCURVE",
"456 760 OFFCURVE",
"382 760 CURVE SMOOTH",
"225 760 OFFCURVE",
"135 674 OFFCURVE",
"113 500 CURVE",
"33 500 LINE",
"24 427 LINE",
"104 428 LINE",
"95 317 OFFCURVE",
"81 103 OFFCURVE",
"71 -11 CURVE SMOOTH",
"64 -89 OFFCURVE",
"54 -200 OFFCURVE",
"9 -200 CURVE SMOOTH",
"3 -200 OFFCURVE",
"-1 -199 OFFCURVE",
"-4 -198 CURVE",
"-3 -194 OFFCURVE",
"-3 -191 OFFCURVE",
"-3 -188 CURVE SMOOTH",
"-3 -157 OFFCURVE",
"-27 -136 OFFCURVE",
"-55 -136 CURVE SMOOTH",
"-99 -136 OFFCURVE",
"-115 -176 OFFCURVE",
"-115 -199 CURVE SMOOTH",
"-115 -243 OFFCURVE",
"-81 -271 OFFCURVE",
"-20 -271 CURVE SMOOTH"
);
},
{
closed = 1;
nodes = (
"613 -11 OFFCURVE",
"664 88 OFFCURVE",
"675 145 CURVE",
"621 161 LINE",
"604 101 OFFCURVE",
"587 82 OFFCURVE",
"572 82 CURVE SMOOTH",
"565 82 OFFCURVE",
"557 86 OFFCURVE",
"557 108 CURVE SMOOTH",
"557 152 OFFCURVE",
"588 330 OFFCURVE",
"588 395 CURVE SMOOTH",
"588 466 OFFCURVE",
"565 511 OFFCURVE",
"496 511 CURVE SMOOTH",
"406 511 OFFCURVE",
"353 412 OFFCURVE",
"342 355 CURVE",
"396 339 LINE",
"413 399 OFFCURVE",
"429 418 OFFCURVE",
"444 418 CURVE SMOOTH",
"452 418 OFFCURVE",
"459 414 OFFCURVE",
"459 392 CURVE SMOOTH",
"459 329 OFFCURVE",
"427 180 OFFCURVE",
"427 102 CURVE SMOOTH",
"427 31 OFFCURVE",
"449 -11 OFFCURVE",
"523 -11 CURVE SMOOTH"
);
}
);
width = 683;
}
);
leftKerningGroup = f;
rightKerningGroup = i;
unicode = FB01;
},
{
glyphname = fl;
layers = (
{
layerId = UUID0;
paths = (
{
closed = 1;
nodes = (
"86 -271 OFFCURVE",
"134 -152 OFFCURVE",
"154 -8 CURVE SMOOTH",
"163 49 OFFCURVE",
"171 189 OFFCURVE",
"190 459 CURVE",
"332 461 LINE",
"335 500 LINE",
"193 500 LINE",
"204 661 OFFCURVE",
"245 730 OFFCURVE",
"337 728 CURVE SMOOTH",
"382 727 OFFCURVE",
"432 704 OFFCURVE",
"451 686 CURVE",
"447 656 OFFCURVE",
"442 622 OFFCURVE",
"438 585 CURVE SMOOTH",
"414 398 OFFCURVE",
"388 144 OFFCURVE",
"390 70 CURVE SMOOTH",
"391 17 OFFCURVE",
"416 -11 OFFCURVE",
"470 -11 CURVE SMOOTH",
"550 -11 OFFCURVE",
"591 83 OFFCURVE",
"600 129 CURVE",
"571 136 LINE",
"551 64 OFFCURVE",
"521 39 OFFCURVE",
"499 39 CURVE SMOOTH",
"473 39 OFFCURVE",
"471 65 OFFCURVE",
"471 91 CURVE SMOOTH",
"471 247 OFFCURVE",
"510 549 OFFCURVE",
"543 755 CURVE",
"514 755 LINE",
"499 746 OFFCURVE",
"484 742 OFFCURVE",
"468 742 CURVE SMOOTH",
"431 742 OFFCURVE",
"392 760 OFFCURVE",
"342 760 CURVE SMOOTH",
"215 760 OFFCURVE",
"145 676 OFFCURVE",
"116 500 CURVE",
"29 500 LINE",
"24 457 LINE",
"111 458 LINE",
"95 326 OFFCURVE",
"89 137 OFFCURVE",
"76 -6 CURVE SMOOTH",
"65 -126 OFFCURVE",
"49 -232 OFFCURVE",
"-15 -232 CURVE SMOOTH",
"-27 -232 OFFCURVE",
"-38 -229 OFFCURVE",
"-50 -224 CURVE",
"-49 -220 OFFCURVE",
"-48 -216 OFFCURVE",
"-48 -212 CURVE SMOOTH",
"-48 -192 OFFCURVE",
"-64 -179 OFFCURVE",
"-84 -178 CURVE SMOOTH",
"-114 -177 OFFCURVE",
"-125 -204 OFFCURVE",
"-125 -219 CURVE SMOOTH",
"-125 -249 OFFCURVE",
"-98 -271 OFFCURVE",
"-47 -271 CURVE SMOOTH"
);
}
);
width = 611;
},
{
layerId = "6B2A2AD0-3CEC-4B3D-96BE-6A11A3496094";
paths = (
{
closed = 1;
nodes = (
"116 -271 OFFCURVE",
"179 -166 OFFCURVE",
"197 -11 CURVE SMOOTH",
"210 102 OFFCURVE",
"226 315 OFFCURVE",
"233 429 CURVE",
"335 431 LINE",
"341 500 LINE",
"237 500 LINE",
"252 640 OFFCURVE",
"278 694 OFFCURVE",
"363 694 CURVE SMOOTH",
"393 694 OFFCURVE",
"430 684 OFFCURVE",
"459 662 CURVE",
"456 632 OFFCURVE",
"449 584 OFFCURVE",
"446 559 CURVE SMOOTH",
"427 389 OFFCURVE",
"404 206 OFFCURVE",
"404 85 CURVE SMOOTH",
"404 15 OFFCURVE",
"446 -11 OFFCURVE",
"495 -11 CURVE SMOOTH",
"591 -11 OFFCURVE",
"632 78 OFFCURVE",
"648 145 CURVE",
"594 161 LINE",
"577 101 OFFCURVE",
"561 82 OFFCURVE",
"546 82 CURVE SMOOTH",
"539 82 OFFCURVE",
"531 87 OFFCURVE",
"531 111 CURVE SMOOTH",
"531 171 OFFCURVE",
"546 298 OFFCURVE",
"599 755 CURVE",
"544 755 LINE",
"532 742 OFFCURVE",
"518 738 OFFCURVE",
"502 738 CURVE SMOOTH",
"465 738 OFFCURVE",
"418 760 OFFCURVE",
"361 760 CURVE SMOOTH",
"209 760 OFFCURVE",
"135 672 OFFCURVE",
"113 500 CURVE",
"33 500 LINE",
"24 427 LINE",
"104 428 LINE",
"95 317 OFFCURVE",
"81 103 OFFCURVE",
"71 -11 CURVE SMOOTH",
"64 -89 OFFCURVE",
"54 -200 OFFCURVE",
"9 -200 CURVE SMOOTH",
"3 -200 OFFCURVE",
"-1 -199 OFFCURVE",
"-4 -198 CURVE",
"-3 -194 OFFCURVE",
"-3 -191 OFFCURVE",
"-3 -188 CURVE SMOOTH",
"-3 -157 OFFCURVE",
"-27 -136 OFFCURVE",
"-55 -136 CURVE SMOOTH",
"-94 -136 OFFCURVE",
"-115 -166 OFFCURVE",
"-115 -199 CURVE SMOOTH",
"-115 -243 OFFCURVE",
"-81 -271 OFFCURVE",
"-20 -271 CURVE SMOOTH"
);
}
);
width = 658;
}
);
leftKerningGroup = f;
rightKerningGroup = l;
unicode = FB02;
},
{
glyphname = ordfeminine;
layers = (
{
layerId = UUID0;
paths = (
{
closed = 1;
nodes = (
"121 716 OFFCURVE",
"64 609 OFFCURVE",
"64 490 CURVE SMOOTH",
"64 411 OFFCURVE",
"94 380 OFFCURVE",
"140 380 CURVE SMOOTH",
"175 380 OFFCURVE",
"224 397 OFFCURVE",
"264 522 CURVE",
"266 522 LINE",
"259 490 OFFCURVE",
"254 461 OFFCURVE",
"254 438 CURVE SMOOTH",
"254 402 OFFCURVE",
"266 380 OFFCURVE",
"300 380 CURVE SMOOTH",
"351 380 OFFCURVE",
"369 428 OFFCURVE",
"378 464 CURVE",
"356 469 LINE",
"343 424 OFFCURVE",
"330 417 OFFCURVE",
"318 417 CURVE SMOOTH",
"307 417 OFFCURVE",
"307 433 OFFCURVE",
"307 451 CURVE SMOOTH",
"307 492 OFFCURVE",
"322 604 OFFCURVE",
"335 706 CURVE",
"308 712 OFFCURVE",
"270 716 OFFCURVE",
"245 716 CURVE SMOOTH"
);
},
{
closed = 1;
nodes = (
"245 689 OFFCURVE",
"263 685 OFFCURVE",
"273 680 CURVE",
"269 566 OFFCURVE",
"207 414 OFFCURVE",
"154 420 CURVE SMOOTH",
"133 423 OFFCURVE",
"120 447 OFFCURVE",
"120 501 CURVE SMOOTH",
"120 596 OFFCURVE",
"148 685 OFFCURVE",
"225 688 CURVE SMOOTH"
);
}
);
width = 402;
},
{
layerId = "6B2A2AD0-3CEC-4B3D-96BE-6A11A3496094";
paths = (
{
closed = 1;
nodes = (
"119 716 OFFCURVE",
"47 620 OFFCURVE",
"47 485 CURVE SMOOTH",
"47 405 OFFCURVE",
"94 367 OFFCURVE",
"140 367 CURVE SMOOTH",
"180 367 OFFCURVE",
"214 389 OFFCURVE",
"246 463 CURVE",
"247 463 LINE",
"245 453 OFFCURVE",
"243 437 OFFCURVE",
"243 426 CURVE SMOOTH",
"243 382 OFFCURVE",
"264 367 OFFCURVE",
"301 367 CURVE SMOOTH",
"362 367 OFFCURVE",
"391 431 OFFCURVE",
"398 468 CURVE",
"365 478 LINE",
"354 439 OFFCURVE",
"340 427 OFFCURVE",
"330 427 CURVE SMOOTH",
"325 427 OFFCURVE",
"320 431 OFFCURVE",
"320 446 CURVE SMOOTH",
"320 490 OFFCURVE",
"343 638 OFFCURVE",
"353 703 CURVE",
"317 711 OFFCURVE",
"267 716 OFFCURVE",
"243 716 CURVE SMOOTH"
);
},
{
closed = 1;
nodes = (
"229 667 OFFCURVE",
"245 664 OFFCURVE",
"250 662 CURVE",
"245 568 OFFCURVE",
"210 437 OFFCURVE",
"174 437 CURVE SMOOTH",
"157 437 OFFCURVE",
"148 459 OFFCURVE",
"149 494 CURVE SMOOTH",
"154 623 OFFCURVE",
"183 664 OFFCURVE",
"219 666 CURVE SMOOTH"
);
}
);
width = 406;
}
);
unicode = 00AA;
},
{
glyphname = ordmasculine;
layers = (
{
layerId = UUID0;
paths = (
{
closed = 1;
nodes = (
"119 716 OFFCURVE",
"61 625 OFFCURVE",
"61 523 CURVE SMOOTH",
"61 444 OFFCURVE",
"98 375 OFFCURVE",
"181 375 CURVE SMOOTH",
"279 375 OFFCURVE",
"335 472 OFFCURVE",
"335 573 CURVE SMOOTH",
"335 662 OFFCURVE",
"284 716 OFFCURVE",
"216 716 CURVE SMOOTH"
);
},
{
closed = 1;
nodes = (
"264 687 OFFCURVE",
"276 612 OFFCURVE",
"275 554 CURVE SMOOTH",
"273 493 OFFCURVE",
"251 407 OFFCURVE",
"189 407 CURVE SMOOTH",
"133 407 OFFCURVE",
"120 485 OFFCURVE",
"121 543 CURVE SMOOTH",
"123 625 OFFCURVE",
"155 687 OFFCURVE",
"207 687 CURVE SMOOTH"
);
}
);
width = 362;
},
{
layerId = "6B2A2AD0-3CEC-4B3D-96BE-6A11A3496094";
paths = (
{
closed = 1;
nodes = (
"114 716 OFFCURVE",
"47 625 OFFCURVE",
"47 520 CURVE SMOOTH",
"47 436 OFFCURVE",
"93 364 OFFCURVE",
"185 364 CURVE SMOOTH",
"289 364 OFFCURVE",
"354 461 OFFCURVE",
"354 564 CURVE SMOOTH",
"354 660 OFFCURVE",
"292 716 OFFCURVE",
"217 716 CURVE SMOOTH"
);
},
{
closed = 1;
nodes = (
"238 666 OFFCURVE",
"249 623 OFFCURVE",
"249 550 CURVE SMOOTH",
"249 478 OFFCURVE",
"230 417 OFFCURVE",
"193 417 CURVE SMOOTH",
"164 417 OFFCURVE",
"152 462 OFFCURVE",
"152 530 CURVE SMOOTH",
"152 610 OFFCURVE",
"175 666 OFFCURVE",
"209 666 CURVE SMOOTH"
);
}
);
width = 368;
}
);
unicode = 00BA;
},
{
glyphname = "Be-cy";
layers = (
{
layerId = UUID0;
paths = (
{
closed = 1;
nodes = (
"329 0 LINE SMOOTH",
"464 0 OFFCURVE",
"572 68 OFFCURVE",
"572 212 CURVE SMOOTH",
"572 335 OFFCURVE",
"496 404 OFFCURVE",
"297 399 CURVE SMOOTH",
"213 397 LINE",
"222 552 LINE SMOOTH",
"226 622 OFFCURVE",
"227 662 OFFCURVE",
"295 663 CURVE SMOOTH",
"383 665 LINE SMOOTH",
"458 667 OFFCURVE",
"520 643 OFFCURVE",
"514 525 CURVE",
"547 525 LINE",
"551 700 LINE",
"76 700 LINE",
"74 656 LINE",
"98 657 OFFCURVE",
"123 659 OFFCURVE",
"147 660 CURVE",
"144 640 OFFCURVE",
"141 615 OFFCURVE",
"140 588 CURVE SMOOTH",
"118 161 LINE SMOOTH",
"114 86 OFFCURVE",
"117 35 OFFCURVE",
"42 33 CURVE",
"40 0 LINE"
);
},
{
closed = 1;
nodes = (
"285 39 OFFCURVE",
"223 38 OFFCURVE",
"192 41 CURVE",
"195 58 OFFCURVE",
"197 83 OFFCURVE",
"199 119 CURVE SMOOTH",
"211 359 LINE",
"243 361 OFFCURVE",
"274 362 OFFCURVE",
"314 362 CURVE SMOOTH",
"405 362 OFFCURVE",
"484 323 OFFCURVE",
"479 202 CURVE SMOOTH",
"474 90 OFFCURVE",
"401 39 OFFCURVE",
"298 39 CURVE SMOOTH"
);
}
);
width = 619;
},
{
layerId = "6B2A2AD0-3CEC-4B3D-96BE-6A11A3496094";
paths = (
{
closed = 1;
nodes = (
"373 0 LINE SMOOTH",
"513 0 OFFCURVE",
"622 68 OFFCURVE",
"627 199 CURVE SMOOTH",
"632 321 OFFCURVE",
"578 415 OFFCURVE",
"330 409 CURVE SMOOTH",
"270 407 LINE",
"277 547 LINE SMOOTH",
"282 625 OFFCURVE",
"307 634 OFFCURVE",
"349 634 CURVE SMOOTH",
"415 635 LINE SMOOTH",
"469 636 OFFCURVE",
"535 615 OFFCURVE",
"529 506 CURVE",
"595 506 LINE",
"600 700 LINE",
"72 700 LINE",
"67 623 LINE",
"82 624 OFFCURVE",
"121 625 OFFCURVE",
"143 626 CURVE",
"140 609 OFFCURVE",
"136 572 OFFCURVE",
"134 536 CURVE SMOOTH",
"114 153 LINE SMOOTH",
"110 72 OFFCURVE",
"83 68 OFFCURVE",
"38 66 CURVE",
"35 0 LINE"
);
},
{
closed = 1;
nodes = (
"315 71 OFFCURVE",
"284 71 OFFCURVE",
"249 71 CURVE",
"252 88 OFFCURVE",
"255 123 OFFCURVE",
"257 159 CURVE SMOOTH",
"266 336 LINE",
"292 338 OFFCURVE",
"313 338 OFFCURVE",
"347 337 CURVE SMOOTH",
"417 336 OFFCURVE",
"474 311 OFFCURVE",
"469 202 CURVE SMOOTH",
"465 117 OFFCURVE",
"428 76 OFFCURVE",
"346 72 CURVE SMOOTH"
);
}
);
width = 659;
}
);
leftKerningGroup = H;
rightKerningGroup = "Be-cy";
unicode = 0411;
},
